<svg xmlns="http://www.w3.org/2000/svg" viewBox="0 0 1190 850"><g fill="#fff" stroke-width="0"><path d="M298 425.5V638h595V213H298zm303.1-155.7c7.2 4.6 9.9 8.5 9.9 14.3 0 2.9-.8 6.5-1.9 8.7-2.4 4.8-11.8 14.2-14.2 14.2-1 0-3.9-2.5-6.6-5.5-8.8-10.1-11.1-17.1-7.7-23.6C582 275 593 267 595.5 267c.6 0 3.1 1.3 5.6 2.8m-119.4 5.7c7.8 2.3 14.3 8.7 17.3 16.9l1.1 2.9 2.9-3.9c5.2-7 12.8-11.8 23.5-14.9 4.5-1.3 8.4-1.6 16.5-1.3 9.7.4 11.4.8 18.2 4 9.5 4.5 13 7.7 23.5 21.2 4.8 6.1 9 11.5 9.4 12 .4.4 4-2.7 8.1-6.9 4-4.3 10.2-10 13.8-12.7 25.1-19.1 56.9-19.8 72.4-1.7l3.3 3.9 1.2-4.1c1.7-5.7 9.3-13.1 15.6-15.2 14.4-5 29.4 1.3 36.2 15.1 2.4 4.9 2.8 6.9 2.8 14.2 0 9.3-1.6 13.7-7.5 20.4-3.3 3.7-3.6 4.6-1.8 4.6 2.6 0 8.8 5.5 10.8 9.4 3.9 8.1 2 15.8-5.3 22.2l-4.3 3.8 3.2 2.8c3.9 3.5 5.8 8.7 4.9 13.4-.8 4.5-5.7 10-10.2 11.5l-3.6 1.2 2.5 1.9c6.5 4.6 12.9 18.4 14.3 30.3 1.2 11.6-3 26.8-9.8 35l-2.5 2.9 3.9 1.8c7 3.1 10 11.9 6.3 19-1.5 2.9-1.5 3.1 1.1 5.8 4.6 4.8 4.6 12.3 0 17.9-2.5 2.9-2.6 3.1-.9 6.2 2.4 4.8 1.5 12.6-1.9 15.5-1.4 1.2-3.1 2.4-3.8 2.6-.9.3-.9.9 0 2.5 1.6 3.1 1.4 10-.5 12.8-1.7 2.6-7.5 5-10.4 4.2-1-.3-2.7.1-3.7.8-7.8 5.3-17.3-.2-17.3-10 0-5.1 2.5-4.5 3.9.9.6 2.4 1.8 4.9 2.6 5.6 2.3 1.9 7.1 1.6 9.4-.4 1.4-1.3 2.8-1.6 5.1-1.1 4.7 1 8-1.5 8-6.3 0-2.1-.7-4.7-1.5-5.8-2.3-3-1.8-5 1.5-6.4 6.3-2.6 7.9-9.5 3.5-14.8-1.4-1.7-2.5-3.3-2.5-3.6 0-.4 1.8-2.4 4-4.5 3.1-2.9 4-4.5 4-7.1s-.9-4.2-4-7.1c-2.2-2.1-4-4.1-4-4.5 0-.3 1.1-1.9 2.5-3.6 5.9-6.9.3-16.8-9.5-16.8-1.6 0-3-.5-3-1.1 0-.7 2.1-3.4 4.6-6.1 11.8-12.7 14.4-32.7 6.4-49.6-3.7-7.8-9.5-13.5-17.7-17.4-7.9-3.8-10.6-7.4-9.9-13.1s3.9-8.7 9.3-8.7c7.2 0 11.8 6.3 7.7 10.5-2 2-6.9 1.6-6.9-.5 0-.8 1-1.6 2.3-1.8 2.8-.4 2.4-2.3-.9-3.9-4.1-2.1-8.7 2.2-7.5 7 1.5 6.3 12.4 9.3 19.3 5.2 9.2-5.4 7.6-15.3-3.4-20.9-4.3-2.2-4.2-4 .5-5.4 7.2-2.2 12.8-9.7 11.9-16.2-.7-5.7-3.3-8.7-10.3-12.1-3.5-1.6-6.4-3.4-6.4-3.9s2.1-2.9 4.6-5.2c6.8-6.3 8.9-10.8 8.9-19.8-.1-6.2-.5-8.4-2.7-12.5-6.2-11.7-17.9-17-29.9-13.4-14.2 4.3-20.5 23.2-10.8 32.8 2.6 2.6 3.8 3.1 7.8 3.1 5.8 0 10.1-2.8 10.1-6.7 0-2.3-.3-2.5-3.2-1.9-6.8 1.3-10.2-5-5.8-10.7 4.5-5.7 14-5.6 19.9.3 10.7 10.8 3.2 31.4-13.2 35.9-5.4 1.6-10.2 1.1-10.2-.9 0-1.1 1.5-1.7 5-2.1 6.3-.8 10.4-2.8 14.2-7.3 5.8-6.5 6.8-15.3 2.4-21.5-2.6-3.6-7.8-5.6-11.2-4.2-6 2.2-6.5 7.4-.6 6.4 9.4-1.5 8.7 12.1-.8 15.7-3.3 1.3-9.6 1.3-12.8.1-3.9-1.5-7.4-5.9-9.7-12.2-5.4-15-18.4-23.9-34.6-23.9-9.6 0-15.9 1.7-27.4 7.2-9.8 4.7-11.3 5.9-22.8 17.4-6.7 6.8-12.6 12.4-13 12.4-.4-.1-4.7-5.5-9.7-12.1-10.8-14.4-16.8-20.2-25.5-24.3-5.4-2.5-8-3.1-15.8-3.4-21.4-1-35.4 7.7-44.2 27.4-1.7 3.8-4.3 8.2-5.8 9.7-8.7 9.3-23.7 8.8-27.8-.8-2-5-1.7-8.3 1.1-11 3.1-3.2 5.2-3.1 8.7.2 2.3 2.2 3 2.4 4.3 1.3 2.3-1.9 1.9-7.3-.9-9.9-9.9-9.3-25.2 4.1-21.6 18.9 2.2 9 9.7 15.3 20.2 16.8 3.7.5 5.3 1.2 5.3 2.2 0 2.3-9 1.7-15.3-1-9.3-4-14.4-12-14.4-22.5-.1-17.5 17.9-28 28.9-17 2.8 2.8 3.3 4 3.3 7.9 0 8.4-7.4 12.7-11.9 7-1.7-2.2-2.3-2.4-3.6-1.4-2.4 2-1.8 5.9 1.4 9.1 8.6 8.5 25.1-2.4 25.1-16.6 0-7.6-4.7-14.7-12.5-18.8-3.1-1.7-5.8-2.2-12-2.2-7.1 0-8.6.3-13.5 3.1-16.4 9.3-19.9 30.8-7.4 45.5 2.4 2.8 4.4 5.5 4.4 6 0 .4-1.4 1.9-3.1 3.1-8.3 6.1-8 17.5.6 23.1 4.5 2.8 4.4 4.8-.2 7.2-5.5 3-9.3 8.8-9.3 14.4 0 8.8 5.7 14.5 14.5 14.5 6.3.1 11.7-3.5 13.5-8.9 2.3-6.8-3.9-12.8-9.8-9.4-3.8 2.1-4.1 4.9-.7 4.9 4.1 0 2.9 3.4-1.3 3.8-2.6.3-3.4-.1-4.3-2.2-1.7-3.6-.3-7.4 3.4-9.6 9.4-5.8 19.6 2.3 16.7 13.2-1.1 3.9-3 6-12 13.1-12 9.5-16.5 18.6-16.5 33.7.1 11.9 2.5 18.7 9.6 26.4 5.3 5.8 6 8.1 2.9 9.1-1.1.4-3.4 1.8-5 3.2-3.6 3-3.9 6.8-1 10.6 1.1 1.4 2 2.9 2 3.3s-1.8 2.4-4 4.4c-5.5 5.1-5.5 8.9.1 14l4 3.8-2 3.3c-4 6.5-2.1 12 4.5 13.8 2.9.8 2.9.8 2.6 7.7-.5 8.8 1.4 11 8.8 10.7 4.6-.2 5 0 6.9 3.2 1.5 2.6 2.7 3.5 4.8 3.5 2.8 0 7.3-3.4 7.3-5.7 0-.7.9-1.3 2-1.3 3.1 0 2.5 3.7-1.4 7.6-4.4 4.4-10 4.7-14 .8-1.4-1.5-2.6-3.1-2.6-3.6 0-.6-1-.8-2.3-.4-3.6.9-9.4-1.2-11.7-4.2-1.8-2.2-2.1-3.7-1.8-8.4.3-5.5.2-5.8-2.5-6.9-6.1-2.5-8.7-10.7-5.3-16.8 1.2-2.2 1.1-2.6-1.6-5-4.1-3.7-5-10.5-1.9-15.4 1.2-1.9 2.8-3.8 3.7-4.1 1.4-.5 1.4-.8 0-2.8-2.5-3.6-2-10.1.9-13.7 1.4-1.6 3.5-3.3 4.6-3.6 1.8-.6 1.7-.9-1.5-4.5-14.3-15.9-14.1-42.9.5-59.5l3-3.4-4-1.1c-8.4-2.2-13.1-8.8-13.1-18.1 0-6.1 3.2-12.5 8-15.9l3.1-2.2-2.4-1.9c-3.5-2.6-5.7-7.9-5.7-13.4 0-5.2 1.6-8.9 5.4-12.4l2.5-2.4-3.1-3.5c-5.5-6.4-7.3-11.6-7.3-21.8 0-8.4.3-9.6 3.5-16 7.2-14.2 22.9-20.6 38.7-15.9m68.7 14.9c9.9 3 16.4 9.7 18.9 19.6 1.4 5.3 1.5 5.4 6.9 7.2 7.5 2.5 13.4 7.8 16.9 15.2 1.6 3.4 2.9 6.8 2.9 7.6.1.8.9-.6 1.9-3.1s3.3-6.8 5.2-9.5c5.2-7.6 20.7-23.3 27.4-27.6 15.7-10.2 35.1-10.3 44.7-.1 3.7 3.9 6.8 11 6.8 15.9 0 8.6.8 10.2 5.4 11 7.3 1.2 14.8 4.6 19.2 8.6 5.6 5.1 7.9 11.2 7.9 20.4-.1 9.8-4.3 18.3-14 28.1-7 7.3-7 7.3-4 7.3 4.6 0 15.7 3.3 20.6 6.2 6.3 3.7 14.6 12.8 17.6 19.4 5.2 11.5 4.1 27.3-2.7 37.6-4.2 6.3-13.6 12.5-20.1 13.4l-4.9.7 2.1 2.8c5.6 7.8 8.6 24.9 7 38.8-2.9 23.7-14.5 37.8-36.2 43.7-4.6 1.3-10 1.8-19.4 1.7-11.1 0-14.3-.4-22-2.7-13.8-4.2-21.8-8.8-31.4-18.4-4.6-4.6-8.4-8.2-8.5-8-6.2 8.7-16.1 17-26.1 21.8-11.7 5.6-20.3 7.3-36.5 7.3-11.6 0-16-.4-22.3-2.1-10.1-2.8-20-8-25.9-13.7l-4.6-4.6-1.7 4.6c-1.8 4.6-4.5 6.1-4.5 2.5 0-2.5 2.5-7.7 4-8.2.5-.1-.4-2.3-2-4.8s-3.7-6.6-4.7-9.2c-.9-2.7-1.9-4.8-2.2-4.8-.4 0-2.1.9-3.9 2-3.9 2.4-6.8 2.6-7.6.4-.8-2 3.6-6.1 7.5-6.9 3.1-.7 3.2-1 2.3-6.8-.7-3.7-.7-3.7-5.5-3.7-8.3 0-7.6-4 .9-5 4.6-.5 4.7-.6 5.2-4.5l.5-4-4.5-1c-3.9-.9-4.5-1.4-4.5-3.5 0-2.4.3-2.5 5.6-2.4 5.5.1 5.7 0 7.3-3.2 1.5-3.2 4.6-4.7 4.6-2.2 0 .6-1.1 4-2.5 7.4-9 22.4 1.5 50.6 23.1 62.1 10.5 5.6 20 7.7 35.4 7.7 15.6 0 22.3-1.4 34.5-7.3 9.9-4.7 17.2-10.4 23.2-18.2 2.5-3.2 5.2-5.9 5.9-5.9s2.1 1.5 3.3 3.2c3.1 5.1 13 14.3 19.5 18.2 16.6 10 41.1 13.1 59.1 7.5 7.5-2.3 17.2-8.5 20.9-13.4 10.4-13.6 13.2-35.6 7-54.1-2.7-8.2-5.5-11-16.7-16.3-11.8-5.7-17.7-10.4-20.5-16.4-18-38.1-20-41-45-64-9.7-8.9-20.4-18.8-23.8-21.9l-6.1-5.7-16.4 13.6c-35.3 29.5-42.3 38-53.4 64.7-5.9 14.5-11.4 21.5-21.9 28-6.4 4-11.4 9.7-14.7 16.8-3.2 7-3.4 7.8-3.4 18.8 0 10.5.2 12 2.8 17.4 3.4 7.3 8.7 13.9 13.8 17.3 4.1 2.7 5.1 5.3 2 5.3-4.9 0-16.2-12.7-20.3-22.8-1.9-4.8-2.3-7.5-2.2-17.2 0-12.8 1.7-18.8 7.8-27.8l3.2-4.8-6.2.4c-13.1.9-25.1-5.9-30.9-17.3-2.7-5.3-3-6.7-3-15.4.1-8.5.4-10.3 3-15.6 5.7-11.8 18.1-21.2 31.2-23.7l6-1.1-6.2-6.1c-8.5-8.4-12.7-17-13.3-27.5-1-17.4 8-28.8 25.4-32.3 5.1-1 5.4-1.2 5.9-4.7 2.2-13.8 5.8-21 13.7-27.4 7.6-6.1 20.2-8.3 30.2-5.3M732 341.5c5.5 2.8 5.2 10-.4 13.4-7 4.4-14.6 1.1-14.6-6.4 0-7.2 7.7-10.8 15-7m-260.5 2c4.1 4 2.7 11.3-2.6 13.5-8.8 3.7-17-7-10.4-13.5 3.4-3.5 9.6-3.5 13 0m127.6 29.1c.8 1 9.7 9.1 19.8 18.2 20 18.1 28.2 27.4 33.5 38.5 5.4 11.1 6.8 17.5 7.3 34l.5 14.7 3.9-3.4c12.1-11 31.5-4.8 37.9 12 3.1 8.4 2.6 23.4-1.2 31.4-3.9 8.3-8.9 13.5-17.1 17.5-20.6 10.1-51.6 4.3-69.3-13-12.5-12.2-14.4-19.5-15-56.5-.5-28.8-.9-34-2.4-34-.6 0-1 12.6-1 32.7 0 35.5-.6 40.5-5.3 48.5-8.3 14.2-31.6 26.7-49.8 26.8-22 .1-41.7-15-44.7-34.3-3.2-20.5 11.1-39.7 28.6-38.5 3.2.2 6.5.8 7.5 1.2 1.5.7 1.7.2 1.7-4.2 0-14.8 4.7-31.9 12-44.3 2.3-3.9 7.4-10.5 11.4-14.7 6.4-6.8 38.2-34.1 39.7-34.2.4 0 1.3.7 2 1.6m134.3 108c.9.8 1.6 1.9 1.6 2.4 0 2.4-8.3 4-12.4 2.4-1.9-.7-2.1-3.5-.4-5.2 1.8-1.8 9.4-1.5 11.2.4m2.5 15.9c2.2 2.2.6 4.5-3.2 4.5-4.7 0-9.7-1.9-9.7-3.6 0-3.3 9.7-4 12.9-.9m-5.1 16.5c2.4 1.5 3.2 2.7 3 4.3-.2 1.8-.9 2.2-4 2.1-4.5-.1-8.8-2.8-8.8-5.3 0-3.5 4.9-4 9.8-1.1m-6.8 16.5c3.6 1.9 7 6.2 6.3 8.1-.9 2.4-3.9 1.6-8.4-2.5-3.8-3.4-4.2-4-3-5.5 1.6-2 1.5-1.9 5.1-.1m-246 1c0 1.5-7.3 6.5-9.5 6.5s-1.9-2.4.7-5.3c2.4-2.7 8.8-3.6 8.8-1.2"/><path d="M590.2 274.6c-7.8 5.2-8.8 8.3-5.2 15.5 2.5 4.7 8.7 11.9 10.4 11.9.7 0 2.4-1.2 3.8-2.8 8.7-9.2 10.2-16.6 4.6-21.8-1.8-1.7-4.5-3.8-5.9-4.7-2.5-1.5-2.8-1.4-7.7 1.9"/><path d="M529.3 295.1c-6.5 2.5-14.1 10.5-16.5 17.5-1 2.7-2.1 7.7-2.4 11.2-.6 5.7-.9 6.3-3.3 6.8-13.5 2.8-17.4 4.6-22.5 10.5-4.8 5.6-5.9 9.6-5.4 18.8.8 12.5 7.3 22.5 21.1 32.2 7.5 5.2 13.9 8 23 9.9 5.8 1.2 6.7 1.9 4.4 3.8-1.7 1.5-13.9-1.4-22.5-5.3-5.4-2.4-7-2.7-12.1-2.2-10 1.1-16.9 4.3-23.6 11.1-7.4 7.5-10.6 13.9-11.3 22.7-.7 9.5 1.7 15.9 8.2 22.5 11 10.9 27.7 11.2 42.9.7 5.5-3.8 9.8-10.4 15.4-23.5 8.4-19.7 12.5-26 25.3-38.8 10.1-10.1 34.2-31.1 43.8-38.1 3-2.2 3.5-2.2 5.7-.9 4.7 3 48.2 44 53.1 50.1 7 8.8 10.1 14.2 17.2 29.9 7.4 16.4 10.5 20.3 20.7 25.5 13.8 7 24.8 6 34.4-3.4 11.6-11.3 12.3-30.7 1.7-44.8-7.6-9.9-17.2-15-30.2-16-7-.6-7.4-.5-18.2 4.6-11.6 5.4-14.2 6-14.2 3.6 0-.8 4.8-3.7 11.7-7.1 10.4-5.1 12.8-6.8 20.5-14.4 11.7-11.5 16-20.8 14.4-31.4-1.5-9.8-9.6-17-22.1-19.7-9.2-1.9-9.1-1.8-9.8-10.4-.4-4.3-1.5-9.6-2.5-11.8-5.8-13-22.2-16.5-38.8-8.2-13.5 6.6-32.3 27.7-36.9 41.3-2.8 8.4-5.3 9.1-7.3 2.2-3.8-13.2-9.4-19.8-19.8-23.5-4.5-1.6-6-2.7-6.6-4.5-.4-1.4-1.2-4.5-1.8-6.8-1.5-5.8-8.1-12.4-14.5-14.5-6.4-2.2-14.8-2.1-21.2.4m16.8 13.4c4.5 2.4 8.7 8.9 10 15.6l1.2 5.9h4.1c4.9 0 11.2 2.8 14.5 6.3 3.6 3.9 4 11.1.9 15.7-4.2 6.2-13 10.7-24.5 12.5-2.4.4-4.3 1-4.3 1.3-.1 3.7-3.4 15.2-5.5 19-3.8 6.9-8.4 9.7-16.1 9.7-4.7 0-6.9-.5-9.1-2.1-3.5-2.6-7.3-9.8-7.3-14.1 0-2.9-.3-3.3-2.8-3.3-4.2 0-11.4-4.1-13.9-7.9-5.4-8.1-.7-19.1 10-23.6 2-.8 6.5-1.8 10-2.2 3.4-.3 6.5-1.1 6.9-1.7s.8-2.9.8-5.1c.1-9.5 5.2-21.4 10.9-25.2 4-2.7 9.8-3 14.2-.8m110.2 1.9c7.3 3.1 10.7 10.4 10.7 22.7v7.9h6.5c11.2 0 20.7 5 23.4 12.3 1.6 4.1 1.4 6.5-1 11.3-2.3 4.9-7 8.2-13.9 10-3.7.9-4.7 1.6-5.3 4-2.2 7.2-5 11.3-9.1 13.4-2.3 1.1-5.7 2-7.4 2-3.8 0-9.8-2.3-12.5-4.8-3-2.7-6.4-10.2-7.7-16.9l-1.2-6.2-4.7-.7c-15.6-2.3-24.4-11.1-22-22.2 1.4-6.6 10.4-13.1 18.1-13.2 3.4 0 3.8-.3 4.7-3.8.6-2 1.1-4.2 1.1-4.8 0-2.3 6.2-9.6 9.3-10.9 4.1-1.8 7-1.8 11-.1m-141.8 99.1c7.6 2 9.3 3.6 7.9 7.3-2.1 5.5-14 23.5-18.8 28.4-6 6.1-11.4 8.7-18.2 8.8-17.2.1-21.1-22.9-6.2-36.6 5.5-5.1 7.2-6 14-7.8 7-1.9 14.1-1.9 21.3-.1m188.6 2.7c14.5 6.6 22.3 22.3 17.1 34.1-4.8 10.8-17.4 10.9-29 .2-6.6-6.1-23.6-30-22.8-32.1.3-.7 3.3-2.2 6.8-3.4 8.8-2.8 20.2-2.4 27.9 1.2"/><path d="M532.1 314.8c-4.2 4.4-6.7 11.5-7.7 22-.7 8.1-.2 7.7-10.7 8.6-11.1.9-18.7 6.8-18.7 14.4 0 4.6 5.2 9.8 10.6 10.7 8.6 1.4 8.1.9 8.6 7.6.4 5.6.8 6.5 4.1 9.5 4.1 3.8 8.4 4.4 14.1 2 5.5-2.3 9.5-10.1 11.2-21.9.3-2.6 1.1-5 1.6-5.4.6-.3 4.1-1.2 7.8-1.9 25.7-4.9 30.4-24.2 6.6-27-5-.6-5.7-1-6.2-3.3-1.7-8.5-3.7-13.1-7-16-5.1-4.5-9.6-4.3-14.3.7m10.3 12.4c.8 1.3 1.7 4 2 6 .3 2.1.8 5.4 1.1 7.2l.6 3.5 4.9-.6c7.3-.9 10 .1 10 3.6 0 2.5-.7 3.3-4.4 5-8.8 4.3-18.7 3.7-21.9-1.3-2-3.1-2.9-8.8-2.1-14.5 1.2-9.4 6.4-14.1 9.8-8.9m-14 28.2c4.6 1.9 6.6 5.2 6.6 10.6 0 8.9-7.3 18.5-11.5 15-1.4-1.2-1.6-2.5-1.1-7.1.6-6.6.2-7.2-6.6-8.9-8.2-2.1-9.9-6.5-3.7-9.7 3.2-1.7 12.2-1.6 16.3.1"/><path d="M537 333.1c-1.8 6.5-.8 13.8 2.1 16.2 1.9 1.5 3.4 1.8 7.6 1.4 2.8-.3 6.4-1.2 8-2.1 2.8-1.5 2.7-1.5-4-1.6-7.7 0-7.9-.2-9.7-10.5-1.3-7.8-2.6-8.8-4-3.4m-23.9 25.8c-1.1.7-.3 1.2 3 2.1 7.3 1.9 7.7 2 9 3.6.7.9 1.1 4 1.1 7.7l-.2 6.2 2.5-4c1.6-2.6 2.5-5.5 2.5-8.2 0-5.8-3.2-8.3-10.9-8.3-3.1 0-6.2.4-7 .9m131.5-42.8c-2.5 2.2-4 4.7-5.2 8.7-2.4 8.5-2.5 8.6-8.5 9.2-6.5.7-10.9 2.9-13.5 6.7-2.3 3.5-2.2 9.1.1 12.6 2.3 3.6 10.7 7.5 17.8 8.3 6.6.8 6.7 1 8.6 10.4 2.9 14.2 12.7 21.4 22.2 16.4 3.2-1.6 6.8-8.1 6.9-12 0-2.7 1.6-4 6-4.9 8.7-1.8 15-7.6 15-13.7 0-1.4-1.2-4.1-2.7-5.9-4-4.7-9.5-6.9-18-6.9-9.4 0-10.2-.8-10.1-10.3 0-10-1.5-14.9-5.7-18.6-4.7-4-8.3-4.1-12.9 0m8.8 11.4c3.2 3.3 2.9 19.1-.6 23.2-2.2 2.8-7.2 4.6-12.4 4.5-14.3-.1-18.6-10.7-4.6-11.4 6.1-.3 6.4-.6 8.3-8.1 1.3-5.2 4.3-9.7 6.4-9.7.7 0 2 .7 2.9 1.5m23.4 26.6c6.6 2.3 4.4 7.6-4.7 10.9-6.3 2.4-7.1 3.4-7.1 10.1 0 4.4-2.2 5.7-5.6 3.5-3-2-4.7-7.7-4.2-13.7.6-6 2.7-8.5 8.7-10.4 5.7-1.7 8.9-1.8 12.9-.4"/><path d="M649.6 331c-.3.8-1.6 4.6-2.8 8.5l-2.3 7-6.3.6c-3.4.3-6.5.9-6.8 1.2-1.2 1.2 4.4 3.1 9.4 3.1 4.4 0 5.7-.4 7.9-2.7 2.2-2.2 2.8-3.7 3.1-9.1.4-6.3-1-11.8-2.2-8.6m14.4 27.8c-4.8 2.3-6.4 6-5 11.1 1.4 5.4 3 6.1 3 1.4 0-5.4 2-7.7 9.1-10.3 4.4-1.6 5.8-2.5 4.8-3.1-2.3-1.4-8.2-1-11.9.9m-170 54.5c-11.7 3.3-20 13.2-20 23.7 0 12 10.7 16.9 21.4 9.9 5.3-3.5 9.7-9 18.1-22.4l5.6-9-3.3-1.4c-4.6-1.9-16.4-2.3-21.8-.8m21.5 2.7c.5.9-13.5 15-19.9 20.1-3 2.4-5.1 1.7-3.6-1.1 1.2-2.3 20.6-20 21.9-20 .5 0 1.3.4 1.6 1m162-1.7c-2.2.7-3.9 1.6-3.8 2 .5 1.5 12.7 19.3 15.6 22.7 7.9 9.3 15.9 13.2 22.1 10.6 12.6-5.2 6.1-26.6-10.3-33.9-5.6-2.5-17.9-3.2-23.6-1.4m44.6-68.9c-1.6 1.9-1 5.6 1.1 7 3.8 2.3 10.4-2.6 8.2-6.2-1.4-2.2-7.7-2.8-9.3-.8M461 346.5c-1.7 2.1-.8 4.7 2.2 6.5 2.1 1.1 3.2 1.2 4.5.4 2.2-1.4 2.9-5 1.3-7-1.6-1.8-6.4-1.8-8 .1m123 40.2c-29.3 24.5-37.9 35.8-43.6 57.3-1.9 7.3-2.8 23.5-1.6 28.5.6 2.2 2 7.6 3.1 12 2.9 10.6 2.2 16.6-2.4 21.2-2.8 2.8-4 3.3-8 3.3-3.8 0-5.2-.5-7.6-3-1.9-1.9-2.9-3.8-2.7-5.2.4-2.8 2.6-3.5 3.5-1.1 2 5.7 8.2 7.2 12.2 2.9 3.4-3.6 3.7-9.2 1.1-17.8-3.6-12-9.4-16.1-18.9-13.2-6.4 1.9-13.3 8.1-16.8 15.2-10.8 22.1 10.2 49.2 38.3 49.2 12.8 0 30.2-7.2 39.9-16.6 11.1-10.6 12.8-18.9 12.3-61.1-.3-27.4-.2-28.3 1.8-30.3 2.4-2.4 4.7-1.9 6.2 1.5.6 1.3 1.3 12.7 1.7 26.2.9 39 1.8 45.3 7.9 55.6 7.3 12.5 24.5 22.4 42.9 24.7 24.8 3.1 43-8.1 46.6-28.5 2.2-12.3-1.6-24-9.6-30.1-8.5-6.5-18.3-5.6-25.2 2.2-8.1 9.2-8.3 22.5-.5 25.4 3.2 1.3 7.1-.3 8.6-3.5s3.3-2.7 3.3 1c0 3.8-4.1 6.8-9.4 6.8-4.9 0-8.5-2.2-10.7-6.5-1.5-3-1.6-4.6-.5-16.8 1.5-16.1.3-33.9-3-44.6-2.5-8.2-7.1-16.8-13.2-24.4-3.5-4.4-22.4-22.3-40.7-38.6l-2.5-2.2zm19.9 17.8c8.6 7.3 10 13.8 11.1 50.5.6 21.9 1.2 31.1 2.4 35.5 3.7 13.6 10.5 22.3 21.4 27.3 4.6 2.1 7.6 2.7 15.3 3 13.3.6 19.7-1.4 26.1-7.8 4.5-4.4 4.8-5 4.8-10 0-6.2-2.2-10.4-6.3-12.1-4-1.7-8 .5-8.7 4.6-.3 1.7-.9 2.9-1.3 2.7-.4-.1-1.1-.2-1.7-.2-1.5 0-1.2-5.3.5-7.7.9-1.3 3.3-2.8 5.4-3.4 8.2-2.4 16.1 4.9 16.1 14.8 0 7.1-1.8 11.1-7.1 15.7-6.7 5.6-15.5 8-28.3 7.4-8.9-.4-11.2-.9-17-3.6-7.9-3.7-15.3-10.9-19-18.4-4.5-9.3-5.6-17.2-6.6-48.3-1-34.1-1.7-37.7-8-44.9-4.1-4.6-7.2-4.7-11.4-.2-6.2 6.5-6.8 10.2-7.6 49.1-.4 19.2-1.2 36.4-1.7 38-6.1 18.3-22.8 28.6-43.5 27.2-13.7-.9-25-8.2-28-17.9-3.7-12.2 7.6-25.3 17.7-20.5 4.2 2 7.1 7.3 6.1 11.2-1 4-4.1 3-4.1-1.4 0-3.4-3.2-7.1-6.2-7.1-2.9 0-7.1 3-8.7 6.4-5.8 12.2 5.8 24.3 24.6 25.4 18.3 1.1 33.8-9.2 38.3-25.3.9-3.5 1.5-14.6 1.9-38 .4-26.6.8-34.1 2.2-38.5 4.2-14 13.6-19.9 21.3-13.5m122.9 78.2c.7.3 1.6.2 1.9-.1.4-.3-.2-.6-1.3-.5-1.1 0-1.4.3-.6.6"/></g><path fill="#d4d4d4" d="m582.4 275.2-1.9 2.3 2.3-1.9c2.1-1.8 2.7-2.6 1.9-2.6-.2 0-1.2 1-2.3 2.2m21.6 2.3c1.3 1.4 2.6 2.5 2.8 2.5.3 0-.5-1.1-1.8-2.5s-2.6-2.5-2.8-2.5c-.3 0 .5 1.1 1.8 2.5m-66.7 1.2c1.5.2 3.9.2 5.5 0 1.5-.2.2-.4-2.8-.4s-4.3.2-2.7.4m197.7.7c0 .2.8 1 1.8 1.7 1.5 1.3 1.6 1.2.3-.4s-2.1-2.1-2.1-1.3m-287.1 4.3-2.4 2.8 2.8-2.4c2.5-2.3 3.2-3.1 2.4-3.1-.2 0-1.4 1.2-2.8 2.7m159.3.3c0 1.4.2 1.9.5 1.2.2-.6.2-1.8 0-2.5-.3-.6-.5-.1-.5 1.3m-117.7 1c1 1.1 2 2 2.3 2s-.3-.9-1.3-2-2-2-2.3-2 .3.9 1.3 2m211.4-.3c-1.3 1.6-1.2 1.7.4.4s2.1-2.1 1.3-2.1c-.2 0-1 .8-1.7 1.7m38.1-1.3c0 .2.8 1 1.8 1.7 1.5 1.3 1.6 1.2.3-.4s-2.1-2.1-2.1-1.3m-165 4.8c4.1 4.5 5 5.3 5 4.5 0-.2-2.1-2.3-4.7-4.7l-4.8-4.5zm-68.6 0-1.9 2.3 2.3-1.9c2.1-1.8 2.7-2.6 1.9-2.6-.2 0-1.2 1-2.3 2.2m180.6 1.3c1.9 1.9 3.6 3.5 3.9 3.5s-1-1.6-2.9-3.5-3.6-3.5-3.9-3.5 1 1.6 2.9 3.5m-115 .9c0 .2.8 1 1.8 1.7 1.5 1.3 1.6 1.2.3-.4s-2.1-2.1-2.1-1.3m145.8 1.3c.6.2 1.8.2 2.5 0 .6-.3.1-.5-1.3-.5s-1.9.2-1.2.5m-113.9 3c-1.3 1.6-1.2 1.7.4.4.9-.7 1.7-1.5 1.7-1.7 0-.8-.8-.3-2.1 1.3m7 3-2.4 2.8 2.8-2.4c2.5-2.3 3.2-3.1 2.4-3.1-.2 0-1.4 1.2-2.8 2.7m-48.9-1.3c0 .2.8 1 1.8 1.7 1.5 1.3 1.6 1.2.3-.4s-2.1-2.1-2.1-1.3m150.9 1.3c-1.3 1.6-1.2 1.7.4.4.9-.7 1.7-1.5 1.7-1.7 0-.8-.8-.3-2.1 1.3M496.2 300c0 1.4.2 1.9.5 1.2.2-.6.2-1.8 0-2.5-.3-.6-.5-.1-.5 1.3m23.2 1.2-2.9 3.3 3.3-2.9c3-2.8 3.7-3.6 2.9-3.6-.2 0-1.6 1.5-3.3 3.2m73.3-.1c1.2 1.2 2.4 2.1 2.7 1.8.2-.2-.8-1.3-2.2-2.3l-2.7-1.9zm-4.2.9c1 1.1 2 2 2.3 2s-.3-.9-1.3-2-2-2-2.3-2 .3.9 1.3 2m19 3.2-5 5.3 5.3-5c4.8-4.6 5.7-5.5 4.9-5.5-.1 0-2.5 2.4-5.2 5.2m64-3.2c1 1.1 2 2 2.3 2s-.3-.9-1.3-2-2-2-2.3-2 .3.9 1.3 2m-46.6 1.7c-1.3 1.6-1.2 1.7.4.4.9-.7 1.7-1.5 1.7-1.7 0-.8-.8-.3-2.1 1.3m-25.5 4.5-2.9 3.3 3.3-2.9c3-2.8 3.7-3.6 2.9-3.6-.2 0-1.6 1.5-3.3 3.2m26.5-.5c-1.3 1.6-1.2 1.7.4.4.9-.7 1.7-1.5 1.7-1.7 0-.8-.8-.3-2.1 1.3m85.9-1c.7.3 1.6.2 1.9-.1.4-.3-.2-.6-1.3-.5-1.1 0-1.4.3-.6.6m-229.9 2c-1.3 1.6-1.2 1.7.4.4s2.1-2.1 1.3-2.1c-.2 0-1 .8-1.7 1.7m236.2-.1c0 1.1.3 1.4.6.6.3-.7.2-1.6-.1-1.9-.3-.4-.6.2-.5 1.3m-266 2c0 1.1.3 1.4.6.6.3-.7.2-1.6-.1-1.9-.3-.4-.6.2-.5 1.3m76.8 1.1-2.4 2.8 2.8-2.4c1.5-1.4 2.7-2.6 2.7-2.8 0-.8-.8-.1-3.1 2.4m9.9-1c.7.3 1.6.2 1.9-.1.4-.3-.2-.6-1.3-.5-1.1 0-1.4.3-.6.6m-99.7 1.9c0 1.1.3 1.4.6.6.3-.7.2-1.6-.1-1.9-.3-.4-.6.2-.5 1.3m201.8 1.1-2.4 2.8 2.8-2.4c2.5-2.3 3.2-3.1 2.4-3.1-.2 0-1.4 1.2-2.8 2.7m-151.5.5-1.9 2.3 2.3-1.9c1.2-1.1 2.2-2.1 2.2-2.3 0-.8-.8-.2-2.6 1.9m42 0-1.9 2.3 2.3-1.9c2.1-1.8 2.7-2.6 1.9-2.6-.2 0-1.2 1-2.3 2.2m15.1-.2c1 1.1 2 2 2.3 2s-.3-.9-1.3-2-2-2-2.3-2 .3.9 1.3 2m51.4 1.7c-1.3 1.6-1.2 1.7.4.4.9-.7 1.7-1.5 1.7-1.7 0-.8-.8-.3-2.1 1.3m45.5.5-1.9 2.3 2.3-1.9c2.1-1.8 2.7-2.6 1.9-2.6-.2 0-1.2 1-2.3 2.2m14.1-.2c1 1.1 2 2 2.3 2s-.3-.9-1.3-2-2-2-2.3-2 .3.9 1.3 2m20.6.6c0 1.1.3 1.4.6.6.3-.7.2-1.6-.1-1.9-.3-.4-.6.2-.5 1.3m28.7-.9c.6.2 1.8.2 2.5 0 .6-.3.1-.5-1.3-.5s-1.9.2-1.2.5M467.5 319c1 1.1 2 2 2.3 2s-.3-.9-1.3-2-2-2-2.3-2 .3.9 1.3 2m141.9.2-1.9 2.3 2.3-1.9c2.1-1.8 2.7-2.6 1.9-2.6-.2 0-1.2 1-2.3 2.2m4.5.5-2.4 2.8 2.8-2.4c2.5-2.3 3.2-3.1 2.4-3.1-.2 0-1.4 1.2-2.8 2.7m-136.1 0c.7.3 1.6.2 1.9-.1.4-.3-.2-.6-1.3-.5-1.1 0-1.4.3-.6.6m246.1 3c-1.3 1.6-1.2 1.7.4.4.9-.7 1.7-1.5 1.7-1.7 0-.8-.8-.3-2.1 1.3m11.5 1.5-2.9 3.3 3.3-2.9c3-2.8 3.7-3.6 2.9-3.6-.2 0-1.6 1.5-3.3 3.2m-53.3-.6c0 1.1.3 1.4.6.6.3-.7.2-1.6-.1-1.9-.3-.4-.6.2-.5 1.3m43.8 2.1-2.4 2.8 2.8-2.4c1.5-1.4 2.7-2.6 2.7-2.8 0-.8-.8-.1-3.1 2.4M461 324.4c0 .2.8 1 1.8 1.7 1.5 1.3 1.6 1.2.3-.4s-2.1-2.1-2.1-1.3m45.1 1.2c0 1.1.3 1.4.6.6.3-.7.2-1.6-.1-1.9-.3-.4-.6.2-.5 1.3m77.9.9c1.3 1.4 2.6 2.5 2.8 2.5.3 0-.5-1.1-1.8-2.5s-2.6-2.5-2.8-2.5c-.3 0 .5 1.1 1.8 2.5m-127-1.2c0 .2 1.5 1.6 3.3 3.3l3.2 2.9-2.9-3.3c-2.8-3-3.6-3.7-3.6-2.9m83 .1c0 .2.8 1 1.8 1.7 1.5 1.3 1.6 1.2.3-.4s-2.1-2.1-2.1-1.3m48 0c0 .2.8 1 1.8 1.7 1.5 1.3 1.6 1.2.3-.4s-2.1-2.1-2.1-1.3m19.9 1.3c-1.3 1.6-1.2 1.7.4.4s2.1-2.1 1.3-2.1c-.2 0-1 .8-1.7 1.7M451 328.5c1.3 1.4 2.6 2.5 2.8 2.5.3 0-.5-1.1-1.8-2.5s-2.6-2.5-2.8-2.5c-.3 0 .5 1.1 1.8 2.5m198.8-1.8c.7.3 1.6.2 1.9-.1.4-.3-.2-.6-1.3-.5-1.1 0-1.4.3-.6.6m-204.8.7c0 .2.8 1 1.8 1.7 1.5 1.3 1.6 1.2.3-.4s-2.1-2.1-2.1-1.3m291.5.7c-.4.6-.5 1.2-.2 1.5.2.3.7-.2 1-1.1.7-1.7.1-2-.8-.4m-73.3 2.4c0 1.6.2 2.2.5 1.2.2-.9.2-2.3 0-3-.3-.6-.5.1-.5 1.8m-182 4.1c-.7.8-.8 1.4-.3 1.4 1 0 2.5-1.9 2-2.5-.2-.1-1 .3-1.7 1.1m42.9 0c0 1.1.3 1.4.6.6.3-.7.2-1.6-.1-1.9-.3-.4-.6.2-.5 1.3m108.2-.9c.9.2 2.3.2 3 0 .6-.3-.1-.5-1.8-.5-1.6 0-2.2.2-1.2.5m23 3.8c0 2.7.2 3.8.4 2.2.2-1.5.2-3.7 0-5-.2-1.2-.4 0-.4 2.8m-179.5-1.8c.7.3 1.6.2 1.9-.1.4-.3-.2-.6-1.3-.5-1.1 0-1.4.3-.6.6m187.5 2.8c0 2.2.2 3 .4 1.7.2-1.2.2-3 0-4-.3-.9-.5.1-.4 2.3m-177.9.7-2.9 3.3 3.3-2.9c3-2.8 3.7-3.6 2.9-3.6-.2 0-1.6 1.5-3.3 3.2m46.9 1.3c0 2.2.2 3 .4 1.7.2-1.2.2-3 0-4-.3-.9-.5.1-.4 2.3m186.6 2.2c-1.3 1.6-1.2 1.7.4.4s2.1-2.1 1.3-2.1c-.2 0-1 .8-1.7 1.7m-261 1c-1.3 1.6-1.2 1.7.4.4.9-.7 1.7-1.5 1.7-1.7 0-.8-.8-.3-2.1 1.3m12.1-1.3c0 .2.8 1 1.8 1.7 1.5 1.3 1.6 1.2.3-.4s-2.1-2.1-2.1-1.3m255.8 1.3c.7.3 1.6.2 1.9-.1.4-.3-.2-.6-1.3-.5-1.1 0-1.4.3-.6.6m-209 1c1.2.2 3 .2 4 0 .9-.3-.1-.5-2.3-.4-2.2 0-3 .2-1.7.4m151.5 0c1.5.2 3.9.2 5.5 0 1.5-.2.2-.4-2.8-.4s-4.3.2-2.7.4M553 346.4c0 .2 1.1.6 2.5.8 1.3.3 2.2.1 1.9-.3-.5-.9-4.4-1.3-4.4-.5m167.1 2.2c0 1.1.3 1.4.6.6.3-.7.2-1.6-.1-1.9-.3-.4-.6.2-.5 1.3m-250 1c0 1.1.3 1.4.6.6.3-.7.2-1.6-.1-1.9-.3-.4-.6.2-.5 1.3m177.8.1c-1.3 1.6-1.2 1.7.4.4.9-.7 1.7-1.5 1.7-1.7 0-.8-.8-.3-2.1 1.3m42.1.8c1.3 1.4 2.6 2.5 2.8 2.5.3 0-.5-1.1-1.8-2.5s-2.6-2.5-2.8-2.5c-.3 0 .5 1.1 1.8 2.5m-38.6.7-1.9 2.3 2.3-1.9c1.2-1.1 2.2-2.1 2.2-2.3 0-.8-.8-.2-2.6 1.9m-80.5 1.5-2.4 2.8 2.8-2.4c2.5-2.3 3.2-3.1 2.4-3.1-.2 0-1.4 1.2-2.8 2.7m143.4 2.3c0 2.5.2 3.5.4 2.2.2-1.2.2-3.2 0-4.5-.2-1.2-.4-.2-.4 2.3m-140.9.2-2.9 3.3 3.3-2.9c1.7-1.7 3.2-3.1 3.2-3.3 0-.8-.8-.1-3.6 2.9m-114.9-.2c1 1.1 2 2 2.3 2s-.3-.9-1.3-2-2-2-2.3-2 .3.9 1.3 2m211.3-1.3c1.2.2 3 .2 4 0 .9-.3-.1-.5-2.3-.4-2.2 0-3 .2-1.7.4m48.2-.3c0 .2.8 1 1.8 1.7 1.5 1.3 1.6 1.2.3-.4s-2.1-2.1-2.1-1.3M478.3 358c0 2.5.2 3.5.4 2.2.2-1.2.2-3.2 0-4.5-.2-1.2-.4-.2-.4 2.3m123.2-2c1 1.1 2 2 2.3 2s-.3-.9-1.3-2-2-2-2.3-2 .3.9 1.3 2m55.9 2.2-1.9 2.3 2.3-1.9c1.2-1.1 2.2-2.1 2.2-2.3 0-.8-.8-.2-2.6 1.9m-68.5.5c-1.3 1.6-1.2 1.7.4.4s2.1-2.1 1.3-2.1c-.2 0-1 .8-1.7 1.7m13.6 3.3c2.7 2.7 5.1 5 5.4 5s-1.7-2.3-4.4-5c-2.7-2.8-5.1-5-5.4-5s1.7 2.2 4.4 5m-156-2c1 1.1 2 2 2.3 2s-.3-.9-1.3-2-2-2-2.3-2 .3.9 1.3 2m47.6-.4c0 1.1.3 1.4.6.6.3-.7.2-1.6-.1-1.9-.3-.4-.6.2-.5 1.3m33.9-.2c0 .2.8 1 1.8 1.7 1.5 1.3 1.6 1.2.3-.4s-2.1-2.1-2.1-1.3m131.9 1.3c-1.3 1.6-1.2 1.7.4.4.9-.7 1.7-1.5 1.7-1.7 0-.8-.8-.3-2.1 1.3m-76 2c-1.3 1.6-1.2 1.7.4.4s2.1-2.1 1.3-2.1c-.2 0-1 .8-1.7 1.7m6 0c-1.3 1.6-1.2 1.7.4.4s2.1-2.1 1.3-2.1c-.2 0-1 .8-1.7 1.7m-58.7 3.3c0 1.4.2 1.9.5 1.2.2-.6.2-1.8 0-2.5-.3-.6-.5-.1-.5 1.3m-86.8 1.2-1.9 2.3 2.3-1.9c2.1-1.8 2.7-2.6 1.9-2.6-.2 0-1.2 1-2.3 2.2m51.6-1.8c0 .2.8 1 1.8 1.7 1.5 1.3 1.6 1.2.3-.4s-2.1-2.1-2.1-1.3m139.8.3c.7.3 1.6.2 1.9-.1.4-.3-.2-.6-1.3-.5-1.1 0-1.4.3-.6.6m-51.9 2c-1.3 1.6-1.2 1.7.4.4s2.1-2.1 1.3-2.1c-.2 0-1 .8-1.7 1.7m-88.9 1.8c1.3 1.4 2.6 2.5 2.8 2.5.3 0-.5-1.1-1.8-2.5s-2.6-2.5-2.8-2.5c-.3 0 .5 1.1 1.8 2.5m81.9-.8c-1.3 1.6-1.2 1.7.4.4s2.1-2.1 1.3-2.1c-.2 0-1 .8-1.7 1.7m37.1-1.4c0 .2 1.5 1.6 3.3 3.3l3.2 2.9-2.9-3.3c-2.8-3-3.6-3.7-3.6-2.9m125.5 3.7c1 1.1 2 2 2.3 2s-.3-.9-1.3-2-2-2-2.3-2 .3.9 1.3 2m-230.7.7c.6.2 1.8.2 2.5 0 .6-.3.1-.5-1.3-.5s-1.9.2-1.2.5m69.1 1c-1.3 1.6-1.2 1.7.4.4s2.1-2.1 1.3-2.1c-.2 0-1 .8-1.7 1.7m-7 1c-1.3 1.6-1.2 1.7.4.4s2.1-2.1 1.3-2.1c-.2 0-1 .8-1.7 1.7m47.1 2.8c1.9 1.9 3.6 3.5 3.9 3.5s-1-1.6-2.9-3.5-3.6-3.5-3.9-3.5 1 1.6 2.9 3.5m111-3.1c0 .2.8 1 1.8 1.7 1.5 1.3 1.6 1.2.3-.4s-2.1-2.1-2.1-1.3m-273.1 2.3c-1.3 1.6-1.2 1.7.4.4s2.1-2.1 1.3-2.1c-.2 0-1 .8-1.7 1.7m15.1-1.3c0 .2.8 1 1.8 1.7 1.5 1.3 1.6 1.2.3-.4s-2.1-2.1-2.1-1.3m119.9 1.3c-1.3 1.6-1.2 1.7.4.4s2.1-2.1 1.3-2.1c-.2 0-1 .8-1.7 1.7m-65.8.9c0 1.1.3 1.4.6.6.3-.7.2-1.6-.1-1.9-.3-.4-.6.2-.5 1.3m46.8 1.1c-1.3 1.6-1.2 1.7.4.4.9-.7 1.7-1.5 1.7-1.7 0-.8-.8-.3-2.1 1.3m27.1.8c1.3 1.4 2.6 2.5 2.8 2.5.3 0-.5-1.1-1.8-2.5s-2.6-2.5-2.8-2.5c-.3 0 .5 1.1 1.8 2.5m-69.6.7-1.9 2.3 2.3-1.9c1.2-1.1 2.2-2.1 2.2-2.3 0-.8-.8-.2-2.6 1.9m35.5-.5c-1.3 1.6-1.2 1.7.4.4.9-.7 1.7-1.5 1.7-1.7 0-.8-.8-.3-2.1 1.3m132.1 2.8c-2.4 2.5-4.2 4.5-3.9 4.5s2.5-2 4.9-4.5 4.2-4.5 3.9-4.5-2.5 2-4.9 4.5m-105.1-1.8c-1.3 1.6-1.2 1.7.4.4s2.1-2.1 1.3-2.1c-.2 0-1 .8-1.7 1.7m36.1.8c1.3 1.4 2.6 2.5 2.8 2.5.3 0-.5-1.1-1.8-2.5s-2.6-2.5-2.8-2.5c-.3 0 .5 1.1 1.8 2.5m71.5 3.7-6 6.3 6.3-6c5.8-5.5 6.7-6.5 5.9-6.5-.1 0-2.9 2.8-6.2 6.2M442.2 381c0 1.4.2 1.9.5 1.2.2-.6.2-1.8 0-2.5-.3-.6-.5-.1-.5 1.3m142.7-.3c-1.3 1.6-1.2 1.7.4.4s2.1-2.1 1.3-2.1c-.2 0-1 .8-1.7 1.7m-60.1 1c.7.3 1.6.2 1.9-.1.4-.3-.2-.6-1.3-.5-1.1 0-1.4.3-.6.6m40.1 2-2.4 2.8 2.8-2.4c1.5-1.4 2.7-2.6 2.7-2.8 0-.8-.8-.1-3.1 2.4m159.1-1.8c0 .6.4 1.3 1 1.6s.7-.1.4-.9c-.7-1.8-1.4-2.1-1.4-.7m-248.9 1.7c0 1.1.3 1.4.6.6.3-.7.2-1.6-.1-1.9-.3-.4-.6.2-.5 1.3m14.4.4c1 1.1 2 2 2.3 2s-.3-.9-1.3-2-2-2-2.3-2 .3.9 1.3 2m121 0c1 1.1 2 2 2.3 2s-.3-.9-1.3-2-2-2-2.3-2 .3.9 1.3 2m-123 3c2.1 2.2 4.1 4 4.4 4s-1.3-1.8-3.4-4-4.1-4-4.4-4 1.3 1.8 3.4 4m98.4-2.3c-1.3 1.6-1.2 1.7.4.4s2.1-2.1 1.3-2.1c-.2 0-1 .8-1.7 1.7m-29.5 1.5-1.9 2.3 2.3-1.9c1.2-1.1 2.2-2.1 2.2-2.3 0-.8-.8-.2-2.6 1.9m22.5-.5c-1.3 1.6-1.2 1.7.4.4.9-.7 1.7-1.5 1.7-1.7 0-.8-.8-.3-2.1 1.3m48.1-1.4c0 .2 1.5 1.6 3.3 3.3l3.2 2.9-2.9-3.3c-2.8-3-3.6-3.7-3.6-2.9m22 1.1c0 .2.8 1 1.8 1.7 1.5 1.3 1.6 1.2.3-.4s-2.1-2.1-2.1-1.3M517.5 388c1 1.1 2 2 2.3 2s-.3-.9-1.3-2-2-2-2.3-2 .3.9 1.3 2m129.5.5c1.3 1.4 2.6 2.5 2.8 2.5.3 0-.5-1.1-1.8-2.5s-2.6-2.5-2.8-2.5c-.3 0 .5 1.1 1.8 2.5m-36 1c1.3 1.4 2.6 2.5 2.8 2.5.3 0-.5-1.1-1.8-2.5s-2.6-2.5-2.8-2.5c-.3 0 .5 1.1 1.8 2.5m-37.1.2c-1.3 1.6-1.2 1.7.4.4s2.1-2.1 1.3-2.1c-.2 0-1 .8-1.7 1.7m142.1-1.3c0 .2.8 1 1.8 1.7 1.5 1.3 1.6 1.2.3-.4s-2.1-2.1-2.1-1.3m-164 7.3-6.5 6.8 6.8-6.5c3.7-3.5 6.7-6.6 6.7-6.7 0-.8-1 .2-7 6.4m91.5-.7c3.3 3.3 6.2 6 6.4 6 .3 0-2.1-2.7-5.4-6s-6.2-6-6.4-6c-.3 0 2.1 2.7 5.4 6M445 390.4c0 .2.8 1 1.8 1.7 1.5 1.3 1.6 1.2.3-.4s-2.1-2.1-2.1-1.3m175 2.1c1.3 1.4 2.6 2.5 2.8 2.5.3 0-.5-1.1-1.8-2.5s-2.6-2.5-2.8-2.5c-.3 0 .5 1.1 1.8 2.5m-179-1.2c0 .2 1.5 1.6 3.3 3.3l3.2 2.9-2.9-3.3c-2.8-3-3.6-3.7-3.6-2.9m257.8.4c.7.3 1.6.2 1.9-.1.4-.3-.2-.6-1.3-.5-1.1 0-1.4.3-.6.6m-124.4 2.5-1.9 2.3 2.3-1.9c1.2-1.1 2.2-2.1 2.2-2.3 0-.8-.8-.2-2.6 1.9m-83.6.5c.7.3 1.6.2 1.9-.1.4-.3-.2-.6-1.3-.5-1.1 0-1.4.3-.6.6m75.1 2-2.4 2.8 2.8-2.4c1.5-1.4 2.7-2.6 2.7-2.8 0-.8-.8-.1-3.1 2.4m55.1 1.8c1.3 1.4 2.6 2.5 2.8 2.5.3 0-.5-1.1-1.8-2.5s-2.6-2.5-2.8-2.5c-.3 0 .5 1.1 1.8 2.5m116.5-.5c1 1.1 2 2 2.3 2s-.3-.9-1.3-2-2-2-2.3-2 .3.9 1.3 2m-194.6 1.7c-1.3 1.6-1.2 1.7.4.4.9-.7 1.7-1.5 1.7-1.7 0-.8-.8-.3-2.1 1.3m22.6 2.5-4 4.3 4.3-4c2.3-2.1 4.2-4 4.2-4.2 0-.8-.9 0-4.5 3.9m-110.7-2.5c1 .4.6 1.4-1.5 3.7l-2.8 3.1 3.3-2.9c3.6-3.3 4-4.6 1.5-4.5-1.2 0-1.4.2-.5.6m179.2 5.8c3.5 3.6 6.7 6.5 6.9 6.5.3 0-2.4-2.9-5.9-6.5s-6.7-6.5-6.9-6.5c-.3 0 2.4 2.9 5.9 6.5m-177.1-.8-2.4 2.8 2.8-2.4c2.5-2.3 3.2-3.1 2.4-3.1-.2 0-1.4 1.2-2.8 2.7m8.6 2.5-4 4.3 4.3-4c3.9-3.6 4.7-4.5 3.9-4.5-.2 0-2.1 1.9-4.2 4.2m123.4-1.5c-1.3 1.6-1.2 1.7.4.4s2.1-2.1 1.3-2.1c-.2 0-1 .8-1.7 1.7m58.1-1.3c0 .2.8 1 1.8 1.7 1.5 1.3 1.6 1.2.3-.4s-2.1-2.1-2.1-1.3m-15 4.1c1.9 1.9 3.6 3.5 3.9 3.5s-1-1.6-2.9-3.5-3.6-3.5-3.9-3.5 1 1.6 2.9 3.5m-30 0c1.3 1.4 2.6 2.5 2.8 2.5.3 0-.5-1.1-1.8-2.5s-2.6-2.5-2.8-2.5c-.3 0 .5 1.1 1.8 2.5m-133.6.7-1.9 2.3 2.3-1.9c2.1-1.8 2.7-2.6 1.9-2.6-.2 0-1.2 1-2.3 2.2m89.5.5-2.4 2.8 2.8-2.4c1.5-1.4 2.7-2.6 2.7-2.8 0-.8-.8-.1-3.1 2.4m-5 0c-1.3 1.6-1.2 1.7.4.4.9-.7 1.7-1.5 1.7-1.7 0-.8-.8-.3-2.1 1.3m171.1-1.3c0 .2.8 1 1.8 1.7 1.5 1.3 1.6 1.2.3-.4s-2.1-2.1-2.1-1.3m-73 1c0 .2.8 1 1.8 1.7 1.5 1.3 1.6 1.2.3-.4s-2.1-2.1-2.1-1.3m17.3 5.1c-.3.9-.3 1.8-.1 2.1.3.3.8-.4 1.1-1.6.6-2.3-.1-2.7-1-.5m-158.4 3.2c-1.3 1.6-1.2 1.7.4.4s2.1-2.1 1.3-2.1c-.2 0-1 .8-1.7 1.7m4.2.6c-1.3 2.1-1.2 2.1.5.5 1-1 1.6-2 1.3-2.2-.3-.3-1.1.5-1.8 1.7m198.4.7c1 1.1 2 2 2.3 2s-.3-.9-1.3-2-2-2-2.3-2 .3.9 1.3 2M497 429.7l-5.5 5.8 5.8-5.5c3.1-3 5.7-5.6 5.7-5.7 0-.8-1 .1-6 5.4m249.1-4.1c0 1.1.3 1.4.6.6.3-.7.2-1.6-.1-1.9-.3-.4-.6.2-.5 1.3m-244.6 4.6-5 5.3 5.3-5c4.8-4.6 5.7-5.5 4.9-5.5-.1 0-2.5 2.4-5.2 5.2m82.7-1.2c0 1.4.2 1.9.5 1.2.2-.6.2-1.8 0-2.5-.3-.6-.5-.1-.5 1.3m166.1 2.5c0 2.7.2 3.8.4 2.2.2-1.5.2-3.7 0-5-.2-1.2-.4 0-.4 2.8m-140.2-.9c0 1.1.3 1.4.6.6.3-.7.2-1.6-.1-1.9-.3-.4-.6.2-.5 1.3m-17.7 13.9c0 6 .1 8.4.3 5.2s.2-8.1 0-11-.3-.3-.3 5.8m21.9-3c0 3.8.2 5.3.4 3.2.2-2 .2-5.2 0-7-.2-1.7-.4-.1-.4 3.8m131.8-3.9c0 1.1.3 1.4.6.6.3-.7.2-1.6-.1-1.9-.3-.4-.6.2-.5 1.3m-58.1.8c0 .2.8 1 1.8 1.7 1.5 1.3 1.6 1.2.3-.4s-2.1-2.1-2.1-1.3m-107.6 25.1c0 12.1.2 16.9.3 10.7.2-6.2.2-16.1 0-22-.1-5.9-.3-.8-.3 11.3m-77.5-17.8c-1.3 1.6-1.2 1.7.4.4.9-.7 1.7-1.5 1.7-1.7 0-.8-.8-.3-2.1 1.3m191.1-1.3c0 .2.8 1 1.8 1.7 1.5 1.3 1.6 1.2.3-.4s-2.1-2.1-2.1-1.3m-218 2c0 .2.8 1 1.8 1.7 1.5 1.3 1.6 1.2.3-.4s-2.1-2.1-2.1-1.3m-1.5 3.6c1 1.1 2 2 2.3 2s-.3-.9-1.3-2-2-2-2.3-2 .3.9 1.3 2m242.4.7c-1.3 1.6-1.2 1.7.4.4s2.1-2.1 1.3-2.1c-.2 0-1 .8-1.7 1.7m-232.6 0c.9.2 2.3.2 3 0 .6-.3-.1-.5-1.8-.5-1.6 0-2.2.2-1.2.5m170.8.9c0 1.1.3 1.4.6.6.3-.7.2-1.6-.1-1.9-.3-.4-.6.2-.5 1.3m23.9.9c1.3 1.4 2.6 2.5 2.8 2.5.3 0-.5-1.1-1.8-2.5s-2.6-2.5-2.8-2.5c-.3 0 .5 1.1 1.8 2.5m-140.9 1.1c0 1.1.3 1.4.6.6.3-.7.2-1.6-.1-1.9-.3-.4-.6.2-.5 1.3m-72.6 1.4c1 1.1 2 2 2.3 2s-.3-.9-1.3-2-2-2-2.3-2 .3.9 1.3 2m48.9 1.2-2.9 3.3 3.3-2.9c1.7-1.7 3.2-3.1 3.2-3.3 0-.8-.8-.1-3.6 2.9m88 8.3c0 6.6.1 9.2.3 5.7.2-3.4.2-8.8 0-12-.2-3.1-.3-.3-.3 6.3M460 454.3c0 .2 1.5 1.6 3.3 3.3l3.2 2.9-2.9-3.3c-2.8-3-3.6-3.7-3.6-2.9m246.8.4c.7.3 1.6.2 1.9-.1.4-.3-.2-.6-1.3-.5-1.1 0-1.4.3-.6.6m-173 8.3c-.2 3.9 0 7 .5 7 .4 0 .7-3.2.7-7 0-3.9-.2-7-.4-7s-.6 3.2-.8 7m194.1-4.3c-1.3 1.6-1.2 1.7.4.4.9-.7 1.7-1.5 1.7-1.7 0-.8-.8-.3-2.1 1.3M457 462.5c1.9 1.9 3.6 3.5 3.9 3.5s-1-1.6-2.9-3.5-3.6-3.5-3.9-3.5 1 1.6 2.9 3.5m199.2.5c0 1.9.2 2.7.5 1.7.2-.9.2-2.5 0-3.5-.3-.9-.5-.1-.5 1.8m82.7-.3c-1.3 1.6-1.2 1.7.4.4.9-.7 1.7-1.5 1.7-1.7 0-.8-.8-.3-2.1 1.3M611.3 469c0 3 .2 4.3.4 2.7.2-1.5.2-3.9 0-5.5-.2-1.5-.4-.2-.4 2.8m93-4.3c.9.2 2.5.2 3.5 0 .9-.3.1-.5-1.8-.5s-2.7.2-1.7.5m-210.9 3.5-1.9 2.3 2.3-1.9c2.1-1.8 2.7-2.6 1.9-2.6-.2 0-1.2 1-2.3 2.2m4 1-1.9 2.3 2.3-1.9c2.1-1.8 2.7-2.6 1.9-2.6-.2 0-1.2 1-2.3 2.2m-47.5 1.5-2.4 2.8 2.8-2.4c2.5-2.3 3.2-3.1 2.4-3.1-.2 0-1.4 1.2-2.8 2.7m256.1-2.3c0 .2.8 1 1.8 1.7 1.5 1.3 1.6 1.2.3-.4s-2.1-2.1-2.1-1.3m-4 1c0 .2.8 1 1.8 1.7 1.5 1.3 1.6 1.2.3-.4s-2.1-2.1-2.1-1.3m40 1c0 .2.8 1 1.8 1.7 1.5 1.3 1.6 1.2.3-.4s-2.1-2.1-2.1-1.3m-237.1 5.3-3.4 3.8 3.8-3.4c2-1.9 3.7-3.6 3.7-3.8 0-.8-.8 0-4.1 3.4m27.6-1.7c1 1.1 2 2 2.3 2s-.3-.9-1.3-2-2-2-2.3-2 .3.9 1.3 2m-55.9-.1c-.4.5.3.7 1.4.4 2.3-.6 2.6-1.3.6-1.3-.8 0-1.7.4-2 .9m218.4 2.6c1.3 1.4 2.6 2.5 2.8 2.5.3 0-.5-1.1-1.8-2.5s-2.6-2.5-2.8-2.5c-.3 0 .5 1.1 1.8 2.5m-187.6 1.7-1.9 2.3 2.3-1.9c2.1-1.8 2.7-2.6 1.9-2.6-.2 0-1.2 1-2.3 2.2m158 0-1.9 2.3 2.3-1.9c1.2-1.1 2.2-2.1 2.2-2.3 0-.8-.8-.2-2.6 1.9m27.1.8c1 1.1 2 2 2.3 2s-.3-.9-1.3-2-2-2-2.3-2 .3.9 1.3 2m53.6-.4c0 1.1.3 1.4.6.6.3-.7.2-1.6-.1-1.9-.3-.4-.6.2-.5 1.3m-131 1c0 1.1.3 1.4.6.6.3-.7.2-1.6-.1-1.9-.3-.4-.6.2-.5 1.3m-15.9 1.9c0 1.6.2 2.2.5 1.2.2-.9.2-2.3 0-3-.3-.6-.5.1-.5 1.8m57 1c0 1.6.2 2.2.5 1.2.2-.9.2-2.3 0-3-.3-.6-.5.1-.5 1.8m77.4 1.2c-.6 1.4-.5 1.5.5.6.7-.7 1-1.5.7-1.8s-.9.2-1.2 1.2m-280.6 1c1.2 1.8 1.2 2.4-.1 4s-1.3 1.7.4.4c2.1-1.7 2.2-3.5 0-5.2-1.5-1.3-1.5-1.2-.3.8m70.3 0c.9.2 2.3.2 3 0 .6-.3-.1-.5-1.8-.5-1.6 0-2.2.2-1.2.5m219.1 1.5-1.9 2.3 2.3-1.9c1.2-1.1 2.2-2.1 2.2-2.3 0-.8-.8-.2-2.6 1.9m-212.4.2c0 .2.8 1 1.8 1.7 1.5 1.3 1.6 1.2.3-.4s-2.1-2.1-2.1-1.3m144.8.3c.6.2 1.8.2 2.5 0 .6-.3.1-.5-1.3-.5s-1.9.2-1.2.5m-71.7 2.9c0 1.1.3 1.4.6.6.3-.7.2-1.6-.1-1.9-.3-.4-.6.2-.5 1.3m64.8.1c-1.3 1.6-1.2 1.7.4.4.9-.7 1.7-1.5 1.7-1.7 0-.8-.8-.3-2.1 1.3M543.2 494c0 1.9.2 2.7.5 1.7.2-.9.2-2.5 0-3.5-.3-.9-.5-.1-.5 1.8m49-1c0 1.4.2 1.9.5 1.2.2-.6.2-1.8 0-2.5-.3-.6-.5-.1-.5 1.3m153.3 0c1 1.1 2 2 2.3 2s-.3-.9-1.3-2-2-2-2.3-2 .3.9 1.3 2m-211.3 1.5c0 1.6.2 2.2.5 1.2.2-.9.2-2.3 0-3-.3-.6-.5.1-.5 1.8m193.6.2c.6.2 1.8.2 2.5 0 .6-.3.1-.5-1.3-.5s-1.9.2-1.2.5m7.1 1.5c.7 1 1.1 2.5.7 3.3-.3.9-.2 1.3.4 1 1.5-1 1.2-3.1-.7-4.6-1.6-1.3-1.7-1.2-.4.3m-139.8 1.4c0 1.1.3 1.4.6.6.3-.7.2-1.6-.1-1.9-.3-.4-.6.2-.5 1.3m105 0c0 1.1.3 1.4.6.6.3-.7.2-1.6-.1-1.9-.3-.4-.6.2-.5 1.3m16.2 3.4c0 3 .2 4.3.4 2.7.2-1.5.2-3.9 0-5.5-.2-1.5-.4-.2-.4 2.8M459 497.9c0 .6.4 1.3 1 1.6s.7-.1.4-.9c-.7-1.8-1.4-2.1-1.4-.7m27.1.7c0 1.1.3 1.4.6.6.3-.7.2-1.6-.1-1.9-.3-.4-.6.2-.5 1.3m243.7-.9c.7.3 1.6.2 1.9-.1.4-.3-.2-.6-1.3-.5-1.1 0-1.4.3-.6.6m-44.6 4.3c0 1.9.2 2.7.5 1.7.2-.9.2-2.5 0-3.5-.3-.9-.5-.1-.5 1.8m-215 1c0 1.4.2 1.9.5 1.2.2-.6.2-1.8 0-2.5-.3-.6-.5-.1-.5 1.3m28.9.6c0 1.1.3 1.4.6.6.3-.7.2-1.6-.1-1.9-.3-.4-.6.2-.5 1.3m25.9-1.2c0 .2.8 1 1.8 1.7 1.5 1.3 1.6 1.2.3-.4s-2.1-2.1-2.1-1.3m10.9 1.3c-1.3 1.6-1.2 1.7.4.4.9-.7 1.7-1.5 1.7-1.7 0-.8-.8-.3-2.1 1.3m124.1-1.3c0 .2.8 1 1.8 1.7 1.5 1.3 1.6 1.2.3-.4s-2.1-2.1-2.1-1.3m40.1 3.2c0 1.1.3 1.4.6.6.3-.7.2-1.6-.1-1.9-.3-.4-.6.2-.5 1.3m-169.3.1c.7.3 1.6.2 1.9-.1.4-.3-.2-.6-1.3-.5-1.1 0-1.4.3-.6.6m181.3 3.9c0 1.1.3 1.4.6.6.3-.7.2-1.6-.1-1.9-.3-.4-.6.2-.5 1.3m-86.1-.2c0 .2.8 1 1.8 1.7 1.5 1.3 1.6 1.2.3-.4s-2.1-2.1-2.1-1.3M518.5 512c1 1.1 2 2 2.3 2s-.3-.9-1.3-2-2-2-2.3-2 .3.9 1.3 2m53.9.2-1.9 2.3 2.3-1.9c1.2-1.1 2.2-2.1 2.2-2.3 0-.8-.8-.2-2.6 1.9m174-1.1c-.3.6-.2 1.5.3 2s.9.1.9-1.1c0-2.3-.2-2.4-1.2-.9M625 513.5c1.3 1.4 2.6 2.5 2.8 2.5.3 0-.5-1.1-1.8-2.5s-2.6-2.5-2.8-2.5c-.3 0 .5 1.1 1.8 2.5m54.9.2-2.4 2.8 2.8-2.4c1.5-1.4 2.7-2.6 2.7-2.8 0-.8-.8-.1-3.1 2.4m-163.9.8c1.3 1.4 2.6 2.5 2.8 2.5.3 0-.5-1.1-1.8-2.5s-2.6-2.5-2.8-2.5c-.3 0 .5 1.1 1.8 2.5m225-2.1c0 .2.8 1 1.8 1.7 1.5 1.3 1.6 1.2.3-.4s-2.1-2.1-2.1-1.3M470.5 515c-.3.6.1.7.9.4 1.8-.7 2.1-1.4.7-1.4-.6 0-1.3.4-1.6 1m254.5-.6c0 .2.7.7 1.6 1 .8.3 1.2.2.9-.4-.6-1-2.5-1.4-2.5-.6m4 1.6c0 .5.5 1 1.1 1 .5 0 .7-.5.4-1-.3-.6-.8-1-1.1-1-.2 0-.4.4-.4 1m-278.9 2.6c0 1.1.3 1.4.6.6.3-.7.2-1.6-.1-1.9-.3-.4-.6.2-.5 1.3m165.9.9c1.3 1.4 2.6 2.5 2.8 2.5.3 0-.5-1.1-1.8-2.5s-2.6-2.5-2.8-2.5c-.3 0 .5 1.1 1.8 2.5m-2.5 2.5c2.1 2.2 4.1 4 4.4 4s-1.3-1.8-3.4-4-4.1-4-4.4-4 1.3 1.8 3.4 4m-16.6-.3c-1.3 1.6-1.2 1.7.4.4s2.1-2.1 1.3-2.1c-.2 0-1 .8-1.7 1.7m-89.9-.4c0 .2 1.5 1.6 3.3 3.3l3.2 2.9-2.9-3.3c-2.8-3-3.6-3.7-3.6-2.9m69.9 1.4c-1.3 1.6-1.2 1.7.4.4s2.1-2.1 1.3-2.1c-.2 0-1 .8-1.7 1.7m77.4-1c1.5.2 3.7.2 5 0 1.2-.2 0-.4-2.8-.4-2.7 0-3.8.2-2.2.4M504.5 524c1 1.1 2 2 2.3 2s-.3-.9-1.3-2-2-2-2.3-2 .3.9 1.3 2m-55 2c1 1.1 2 2 2.3 2s-.3-.9-1.3-2-2-2-2.3-2 .3.9 1.3 2m240.4.7c-1.3 1.6-1.2 1.7.4.4s2.1-2.1 1.3-2.1c-.2 0-1 .8-1.7 1.7m2.5 2.5-2.9 3.3 3.3-2.9c1.7-1.7 3.2-3.1 3.2-3.3 0-.8-.8-.1-3.6 2.9m-183.4-.8c0 .2.8 1 1.8 1.7 1.5 1.3 1.6 1.2.3-.4s-2.1-2.1-2.1-1.3m101 3.8c2.4 2.7 4.5 4.8 4.7 4.8.8 0 0-.9-4.4-5l-4.8-4.5zm136.4-2-1.9 2.3 2.3-1.9c1.2-1.1 2.2-2.1 2.2-2.3 0-.8-.8-.2-2.6 1.9m-270.6-.5c.7.3 1.6.2 1.9-.1.4-.3-.2-.6-1.3-.5-1.1 0-1.4.3-.6.6m126.2-.3c0 .2.8 1 1.8 1.7 1.5 1.3 1.6 1.2.3-.4s-2.1-2.1-2.1-1.3m-118 1c0 .2.8 1 1.8 1.7 1.5 1.3 1.6 1.2.3-.4s-2.1-2.1-2.1-1.3m234 .2c0 .6 1.5 2.3 3.3 4l3.2 2.9-3-3.5c-1.6-1.9-3.1-3.7-3.2-3.9-.2-.2-.3 0-.3.5m-223 .8c0 .2.8 1 1.8 1.7 1.5 1.3 1.6 1.2.3-.4s-2.1-2.1-2.1-1.3m96.4 2.8-2.9 3.3 3.3-2.9c1.7-1.7 3.2-3.1 3.2-3.3 0-.8-.8-.1-3.6 2.9m-132.2 2.3c0 1.6.2 2.2.5 1.2.2-.9.2-2.3 0-3-.3-.6-.5.1-.5 1.8m195.1.2c.9.2 2.3.2 3 0 .6-.3-.1-.5-1.8-.5-1.6 0-2.2.2-1.2.5m11.5 0c.7.3 1.6.2 1.9-.1.4-.3-.2-.6-1.3-.5-1.1 0-1.4.3-.6.6m-55.8.7c0 .2.8 1 1.8 1.7 1.5 1.3 1.6 1.2.3-.4s-2.1-2.1-2.1-1.3m-75.2 2.3c.7.3 1.6.2 1.9-.1.4-.3-.2-.6-1.3-.5-1.1 0-1.4.3-.6.6m10 0c.7.3 1.6.2 1.9-.1.4-.3-.2-.6-1.3-.5-1.1 0-1.4.3-.6.6m114.5 1c.9.2 2.5.2 3.5 0 .9-.3.1-.5-1.8-.5s-2.7.2-1.7.5m36.6 1c-1.3 1.6-1.2 1.7.4.4.9-.7 1.7-1.5 1.7-1.7 0-.8-.8-.3-2.1 1.3m-204.6 1.8c0 .8.4 1.2.9.9s.6-1 .3-1.5c-.9-1.3-1.2-1.1-1.2.6m-32.8 1.5c1 1.1 2 2 2.3 2s-.3-.9-1.3-2-2-2-2.3-2 .3.9 1.3 2m8.3 3.7c.7.3 1.6.2 1.9-.1.4-.3-.2-.6-1.3-.5-1.1 0-1.4.3-.6.6m18.1 1c-1.3 1.6-1.2 1.7.4.4.9-.7 1.7-1.5 1.7-1.7 0-.8-.8-.3-2.1 1.3m40.9 2c.6.2 1.8.2 2.5 0 .6-.3.1-.5-1.3-.5s-1.9.2-1.2.5m18 0c.6.2 1.8.2 2.5 0 .6-.3.1-.5-1.3-.5s-1.9.2-1.2.5m125 0c.7.3 1.6.2 1.9-.1.4-.3-.2-.6-1.3-.5-1.1 0-1.4.3-.6.6m44.2-.3c0 .2.8 1 1.8 1.7 1.5 1.3 1.6 1.2.3-.4s-2.1-2.1-2.1-1.3m19.3 1.3c.9.2 2.3.2 3 0 .6-.3-.1-.5-1.8-.5-1.6 0-2.2.2-1.2.5m-200.5 3c2.3.2 6.1.2 8.5 0 2.3-.2.4-.4-4.3-.4s-6.6.2-4.2.4m125.5 0c2 .2 5.4.2 7.5 0 2-.2.3-.4-3.8-.4s-5.8.2-3.7.4m63.5 0c.7.3 1.6.2 1.9-.1.4-.3-.2-.6-1.3-.5-1.1 0-1.4.3-.6.6"/><path fill="#aaa" d="M606.5 275c1 1.1 2 2 2.3 2s-.3-.9-1.3-2-2-2-2.3-2 .3.9 1.3 2m-137.2-.3c1.5.2 3.9.2 5.5 0 1.5-.2.2-.4-2.8-.4s-4.3.2-2.7.4m247 0c1.5.2 3.7.2 5 0 1.2-.2 0-.4-2.8-.4-2.7 0-3.8.2-2.2.4m-131.9 3.5-1.9 2.3 2.3-1.9c2.1-1.8 2.7-2.6 1.9-2.6-.2 0-1.2 1-2.3 2.2m-114.6-.5c1.2.2 3 .2 4 0 .9-.3-.1-.5-2.3-.4-2.2 0-3 .2-1.7.4m247 0c1.2.2 3 .2 4 0 .9-.3-.1-.5-2.3-.4-2.2 0-3 .2-1.7.4M492.5 283c1 1.1 2 2 2.3 2s-.3-.9-1.3-2-2-2-2.3-2 .3.9 1.3 2m86.7.5c0 1.6.2 2.2.5 1.2.2-.9.2-2.3 0-3-.3-.6-.5.1-.5 1.8m75.6-1.8c1.2.2 3.2.2 4.5 0 1.2-.2.2-.4-2.3-.4s-3.5.2-2.2.4m-204.4 4.5-1.9 2.3 2.3-1.9c2.1-1.8 2.7-2.6 1.9-2.6-.2 0-1.2 1-2.3 2.2m58.5-.5c-1.3 1.6-1.2 1.7.4.4.9-.7 1.7-1.5 1.7-1.7 0-.8-.8-.3-2.1 1.3m59.1 1.7c0 .2.8 1 1.8 1.7 1.5 1.3 1.6 1.2.3-.4s-2.1-2.1-2.1-1.3m-60.1 3.3-2.4 2.8 2.8-2.4c2.5-2.3 3.2-3.1 2.4-3.1-.2 0-1.4 1.2-2.8 2.7m-38.6-1c.9.2 2.5.2 3.5 0 .9-.3.1-.5-1.8-.5s-2.7.2-1.7.5m67.5 0c.6.2 1.8.2 2.5 0 .6-.3.1-.5-1.3-.5s-1.9.2-1.2.5m6 0c.6.2 1.8.2 2.5 0 .6-.3.1-.5-1.3-.5s-1.9.2-1.2.5m138.2-.4c0 .2 1.5 1.6 3.3 3.3l3.2 2.9-2.9-3.3c-2.8-3-3.6-3.7-3.6-2.9m-222.1 5.4-2.4 2.8 2.8-2.4c2.5-2.3 3.2-3.1 2.4-3.1-.2 0-1.4 1.2-2.8 2.7m79.9-2c1.2.2 3.2.2 4.5 0 1.2-.2.2-.4-2.3-.4s-3.5.2-2.2.4m112 0c.7.3 1.6.2 1.9-.1.4-.3-.2-.6-1.3-.5-1.1 0-1.4.3-.6.6m7 0c.7.3 1.6.2 1.9-.1.4-.3-.2-.6-1.3-.5-1.1 0-1.4.3-.6.6m-83.8.7c0 .2.8 1 1.8 1.7 1.5 1.3 1.6 1.2.3-.4s-2.1-2.1-2.1-1.3m-74 1.6c-.9.6-1 1-.3 1 .6 0 1.5-.5 1.8-1 .8-1.2.4-1.2-1.5 0m152.8.7c1.2.2 3.2.2 4.5 0 1.2-.2.2-.4-2.3-.4s-3.5.2-2.2.4m-64.8.7c0 .2.8 1 1.8 1.7 1.5 1.3 1.6 1.2.3-.4s-2.1-2.1-2.1-1.3m10.9 3.3-3.4 3.8 3.8-3.4c2-1.9 3.7-3.6 3.7-3.8 0-.8-.8 0-4.1 3.4m-82.5-.5-1.9 2.3 2.3-1.9c2.1-1.8 2.7-2.6 1.9-2.6-.2 0-1.2 1-2.3 2.2m84.1 3-5 5.3 5.3-5c4.8-4.6 5.7-5.5 4.9-5.5-.1 0-2.5 2.4-5.2 5.2m13.4-3.5c-1.3 1.6-1.2 1.7.4.4.9-.7 1.7-1.5 1.7-1.7 0-.8-.8-.3-2.1 1.3m111.1-1.3c0 .2.8 1 1.8 1.7 1.5 1.3 1.6 1.2.3-.4s-2.1-2.1-2.1-1.3M559.5 300c1 1.1 2 2 2.3 2s-.3-.9-1.3-2-2-2-2.3-2 .3.9 1.3 2m113.5-1.6c0 .2.8 1 1.8 1.7 1.5 1.3 1.6 1.2.3-.4s-2.1-2.1-2.1-1.3m-68.1 4.3-2.4 2.8 2.8-2.4c1.5-1.4 2.7-2.6 2.7-2.8 0-.8-.8-.1-3.1 2.4m142.4 2.3c0 2.5.2 3.5.4 2.2.2-1.2.2-3.2 0-4.5-.2-1.2-.4-.2-.4 2.3m-308 2c0 2.5.2 3.5.4 2.2.2-1.2.2-3.2 0-4.5-.2-1.2-.4-.2-.4 2.3m33.7-3.6c0 .2.8 1 1.8 1.7 1.5 1.3 1.6 1.2.3-.4s-2.1-2.1-2.1-1.3m246 0c0 .2.8 1 1.8 1.7 1.5 1.3 1.6 1.2.3-.4s-2.1-2.1-2.1-1.3m25.2 2.1c0 1.6.2 2.2.5 1.2.2-.9.2-2.3 0-3-.3-.6-.5.1-.5 1.8m-302 1.5c0 1.4.2 1.9.5 1.2.2-.6.2-1.8 0-2.5-.3-.6-.5-.1-.5 1.3m175.3 4.2-6 6.3 6.3-6c5.8-5.5 6.7-6.5 5.9-6.5-.1 0-2.9 2.8-6.2 6.2m115.7-2.7c0 1.6.2 2.2.5 1.2.2-.9.2-2.3 0-3-.3-.6-.5.1-.5 1.8m-113.2 4c-2.4 2.5-4.2 4.5-3.9 4.5s2.5-2 4.9-4.5 4.2-4.5 3.9-4.5-2.5 2-4.9 4.5m-155.9-1.9c0 1.1.3 1.4.6.6.3-.7.2-1.6-.1-1.9-.3-.4-.6.2-.5 1.3m186.7-.9c.7.3 1.6.2 1.9-.1.4-.3-.2-.6-1.3-.5-1.1 0-1.4.3-.6.6m-50.4 2.5-1.9 2.3 2.3-1.9c2.1-1.8 2.7-2.6 1.9-2.6-.2 0-1.2 1-2.3 2.2m-4.5.5c-1.3 1.6-1.2 1.7.4.4s2.1-2.1 1.3-2.1c-.2 0-1 .8-1.7 1.7m102.1-1.3c0 .2.8 1 1.8 1.7 1.5 1.3 1.6 1.2.3-.4s-2.1-2.1-2.1-1.3m17.9 1.3c-1.3 1.6-1.2 1.7.4.4s2.1-2.1 1.3-2.1c-.2 0-1 .8-1.7 1.7m-56.9-.3c0 .2.8 1 1.8 1.7 1.5 1.3 1.6 1.2.3-.4s-2.1-2.1-2.1-1.3m38 2.1c1.3 1.4 2.6 2.5 2.8 2.5.3 0-.5-1.1-1.8-2.5s-2.6-2.5-2.8-2.5c-.3 0 .5 1.1 1.8 2.5m-205.1 2.2c-1.3 1.6-1.2 1.7.4.4.9-.7 1.7-1.5 1.7-1.7 0-.8-.8-.3-2.1 1.3m100.1-.3c0 .2.8 1 1.8 1.7 1.5 1.3 1.6 1.2.3-.4s-2.1-2.1-2.1-1.3m14.9 6.3c-1.3 1.6-1.2 1.7.4.4.9-.7 1.7-1.5 1.7-1.7 0-.8-.8-.3-2.1 1.3m-21.9-.3c0 .2.8 1 1.8 1.7 1.5 1.3 1.6 1.2.3-.4s-2.1-2.1-2.1-1.3m24.9 1.3c-1.3 1.6-1.2 1.7.4.4.9-.7 1.7-1.5 1.7-1.7 0-.8-.8-.3-2.1 1.3m121.1 4.8c-1.1 1.3-1.1 1.8 0 2.8 1 .9 1.1.9.6-.1-.4-.7-.2-1.9.4-2.7.7-.8 1-1.5.7-1.5-.2 0-1 .7-1.7 1.5M631 330l-3.5.7 3.2.2c1.7 0 3.5-.4 3.8-.9.3-.6.5-.9.3-.9-.2.1-1.9.5-3.8.9m76.8-.3c.6.2 1.8.2 2.5 0 .6-.3.1-.5-1.3-.5s-1.9.2-1.2.5m-2.8 1.2c0 1 1.9 2.5 2.5 2 .1-.2-.3-1-1.1-1.7s-1.4-.8-1.4-.3m-257.6 4.3-2.9 3.3 3.3-2.9c3-2.8 3.7-3.6 2.9-3.6-.2 0-1.6 1.5-3.3 3.2m181.4-1.5c.7.3 1.6.2 1.9-.1.4-.3-.2-.6-1.3-.5-1.1 0-1.4.3-.6.6m-54.3 2.3c1 1.1 2 2 2.3 2s-.3-.9-1.3-2-2-2-2.3-2 .3.9 1.3 2m41.4.7-2.4 2.8 2.8-2.4c1.5-1.4 2.7-2.6 2.7-2.8 0-.8-.8-.1-3.1 2.4m90.6-.7c1 1.1 2 2 2.3 2s-.3-.9-1.3-2-2-2-2.3-2 .3.9 1.3 2m-223.6.7c-1.3 1.6-1.2 1.7.4.4s2.1-2.1 1.3-2.1c-.2 0-1 .8-1.7 1.7m169.3 1.3c0 1.9.2 2.7.5 1.7.2-.9.2-2.5 0-3.5-.3-.9-.5-.1-.5 1.8m-203.3-.3c-1.3 1.6-1.2 1.7.4.4.9-.7 1.7-1.5 1.7-1.7 0-.8-.8-.3-2.1 1.3m169.5.5-1.9 2.3 2.3-1.9c2.1-1.8 2.7-2.6 1.9-2.6-.2 0-1.2 1-2.3 2.2m123.6-1.8c0 .2.8 1 1.8 1.7 1.5 1.3 1.6 1.2.3-.4s-2.1-2.1-2.1-1.3m-65.2 5.3c.7.3 1.6.2 1.9-.1.4-.3-.2-.6-1.3-.5-1.1 0-1.4.3-.6.6M575.2 345c0 1.4.2 1.9.5 1.2.2-.6.2-1.8 0-2.5-.3-.6-.5-.1-.5 1.3m154.8-.6c0 .2.8 1 1.8 1.7 1.5 1.3 1.6 1.2.3-.4s-2.1-2.1-2.1-1.3m20.2 2.6c0 1.9.2 2.7.5 1.7.2-.9.2-2.5 0-3.5-.3-.9-.5-.1-.5 1.8m-3 0c0 1.4.2 1.9.5 1.2.2-.6.2-1.8 0-2.5-.3-.6-.5-.1-.5 1.3m-12 1c0 1.4.2 1.9.5 1.2.2-.6.2-1.8 0-2.5-.3-.6-.5-.1-.5 1.3m-279 1c0 1.4.2 1.9.5 1.2.2-.6.2-1.8 0-2.5-.3-.6-.5-.1-.5 1.3m17 0c0 1.4.2 1.9.5 1.2.2-.6.2-1.8 0-2.5-.3-.6-.5-.1-.5 1.3m22.2.2-1.9 2.3 2.3-1.9c1.2-1.1 2.2-2.1 2.2-2.3 0-.8-.8-.2-2.6 1.9m63.5.5c-1.3 1.6-1.2 1.7.4.4.9-.7 1.7-1.5 1.7-1.7 0-.8-.8-.3-2.1 1.3m-61 1c-1.3 1.6-1.2 1.7.4.4.9-.7 1.7-1.5 1.7-1.7 0-.8-.8-.3-2.1 1.3m45.4 1c.9.2 2.3.2 3 0 .6-.3-.1-.5-1.8-.5-1.6 0-2.2.2-1.2.5m-72.9 3.5-1.9 2.3 2.3-1.9c1.2-1.1 2.2-2.1 2.2-2.3 0-.8-.8-.2-2.6 1.9m126.4-1.5c.7.3 1.6.2 1.9-.1.4-.3-.2-.6-1.3-.5-1.1 0-1.4.3-.6.6m-51 1c.7.3 1.6.2 1.9-.1.4-.3-.2-.6-1.3-.5-1.1 0-1.4.3-.6.6m-97.8 1.7c0 .2.8 1 1.8 1.7 1.5 1.3 1.6 1.2.3-.4s-2.1-2.1-2.1-1.3m167 0c0 .2.8 1 1.8 1.7 1.5 1.3 1.6 1.2.3-.4s-2.1-2.1-2.1-1.3m-98.2 1.3c.7.3 1.6.2 1.9-.1.4-.3-.2-.6-1.3-.5-1.1 0-1.4.3-.6.6m5 0c.7.3 1.6.2 1.9-.1.4-.3-.2-.6-1.3-.5-1.1 0-1.4.3-.6.6m86.7 5.3c2.7 2.7 5.1 5 5.4 5s-1.7-2.3-4.4-5c-2.7-2.8-5.1-5-5.4-5s1.7 2.2 4.4 5m135.9-2.8-1.9 2.3 2.3-1.9c1.2-1.1 2.2-2.1 2.2-2.3 0-.8-.8-.2-2.6 1.9M523 363.4c0 .2.8 1 1.8 1.7 1.5 1.3 1.6 1.2.3-.4s-2.1-2.1-2.1-1.3m63.9 1.3c-1.3 1.6-1.2 1.7.4.4.9-.7 1.7-1.5 1.7-1.7 0-.8-.8-.3-2.1 1.3m77 0c-1.3 1.6-1.2 1.7.4.4s2.1-2.1 1.3-2.1c-.2 0-1 .8-1.7 1.7m67.6-.6c-.4.6-.5 1.2-.2 1.5.2.3.7-.2 1-1.1.7-1.7.1-2-.8-.4m-150.6 1.6c-1.3 1.6-1.2 1.7.4.4.9-.7 1.7-1.5 1.7-1.7 0-.8-.8-.3-2.1 1.3m29.1 2.5c4.1 4.5 5 5.3 5 4.5 0-.2-2.1-2.3-4.7-4.7l-4.8-4.5zm80.4-2-1.9 2.3 2.3-1.9c1.2-1.1 2.2-2.1 2.2-2.3 0-.8-.8-.2-2.6 1.9m47.6-1.3c0 .6.4 1.3 1 1.6s.7-.1.4-.9c-.7-1.8-1.4-2.1-1.4-.7m-291.1 4.8-2.4 2.8 2.8-2.4c2.5-2.3 3.2-3.1 2.4-3.1-.2 0-1.4 1.2-2.8 2.7m134 0c-1.3 1.6-1.2 1.7.4.4.9-.7 1.7-1.5 1.7-1.7 0-.8-.8-.3-2.1 1.3m-117.6 3c.9.2 2.3.2 3 0 .6-.3-.1-.5-1.8-.5-1.6 0-2.2.2-1.2.5m139.7 4.8c3 3 5.7 5.5 5.9 5.5.3 0-1.9-2.5-4.9-5.5s-5.7-5.5-5.9-5.5c-.3 0 1.9 2.5 4.9 5.5m-28.1-2.8c-1.3 1.6-1.2 1.7.4.4s2.1-2.1 1.3-2.1c-.2 0-1 .8-1.7 1.7m45.1-1.4c0 .2 1.5 1.6 3.3 3.3l3.2 2.9-2.9-3.3c-2.8-3-3.6-3.7-3.6-2.9m-156.2 2.4c.7.3 1.6.2 1.9-.1.4-.3-.2-.6-1.3-.5-1.1 0-1.4.3-.6.6m46.4 2.3c0 1.9.2 2.7.5 1.7.2-.9.2-2.5 0-3.5-.3-.9-.5-.1-.5 1.8m57.7-1.3c-1.3 1.6-1.2 1.7.4.4.9-.7 1.7-1.5 1.7-1.7 0-.8-.8-.3-2.1 1.3m27 0c-1.3 1.6-1.2 1.7.4.4.9-.7 1.7-1.5 1.7-1.7 0-.8-.8-.3-2.1 1.3m-126.9-.3c0 .2.8 1 1.8 1.7 1.5 1.3 1.6 1.2.3-.4s-2.1-2.1-2.1-1.3m45.1 2.2c0 1.1.3 1.4.6.6.3-.7.2-1.6-.1-1.9-.3-.4-.6.2-.5 1.3m74.8.1c-1.3 1.6-1.2 1.7.4.4s2.1-2.1 1.3-2.1c-.2 0-1 .8-1.7 1.7m15.6 3.3c2.7 2.7 5.1 5 5.4 5s-1.7-2.3-4.4-5c-2.7-2.8-5.1-5-5.4-5s1.7 2.2 4.4 5m-34.6-2.3c-1.3 1.6-1.2 1.7.4.4s2.1-2.1 1.3-2.1c-.2 0-1 .8-1.7 1.7m-114.8.9c0 1.1.3 1.4.6.6.3-.7.2-1.6-.1-1.9-.3-.4-.6.2-.5 1.3m169.9.9c1.3 1.4 2.6 2.5 2.8 2.5.3 0-.5-1.1-1.8-2.5s-2.6-2.5-2.8-2.5c-.3 0 .5 1.1 1.8 2.5m-167-.6c0 .6.4 1.3 1 1.6s.7-.1.4-.9c-.7-1.8-1.4-2.1-1.4-.7m104.4 1.3-1.9 2.3 2.3-1.9c1.2-1.1 2.2-2.1 2.2-2.3 0-.8-.8-.2-2.6 1.9m164.4-1.5c.6.2 1.8.2 2.5 0 .6-.3.1-.5-1.3-.5s-1.9.2-1.2.5m-143.9 3c-1.3 1.6-1.2 1.7.4.4.9-.7 1.7-1.5 1.7-1.7 0-.8-.8-.3-2.1 1.3m52.1 2.8c1.9 1.9 3.6 3.5 3.9 3.5s-1-1.6-2.9-3.5-3.6-3.5-3.9-3.5 1 1.6 2.9 3.5m-97.6.7-1.9 2.3 2.3-1.9c1.2-1.1 2.2-2.1 2.2-2.3 0-.8-.8-.2-2.6 1.9m24 0-1.9 2.3 2.3-1.9c1.2-1.1 2.2-2.1 2.2-2.3 0-.8-.8-.2-2.6 1.9m22.5-.5c-1.3 1.6-1.2 1.7.4.4s2.1-2.1 1.3-2.1c-.2 0-1 .8-1.7 1.7m85.5.5-1.9 2.3 2.3-1.9c1.2-1.1 2.2-2.1 2.2-2.3 0-.8-.8-.2-2.6 1.9m-176.4-.8c0 .2.8 1 1.8 1.7 1.5 1.3 1.6 1.2.3-.4s-2.1-2.1-2.1-1.3m123 2.1c1.3 1.4 2.6 2.5 2.8 2.5.3 0-.5-1.1-1.8-2.5s-2.6-2.5-2.8-2.5c-.3 0 .5 1.1 1.8 2.5m-77.1 1.2-2.4 2.8 2.8-2.4c1.5-1.4 2.7-2.6 2.7-2.8 0-.8-.8-.1-3.1 2.4m132.5-.5-1.9 2.3 2.3-1.9c1.2-1.1 2.2-2.1 2.2-2.3 0-.8-.8-.2-2.6 1.9m72 0-1.9 2.3 2.3-1.9c1.2-1.1 2.2-2.1 2.2-2.3 0-.8-.8-.2-2.6 1.9m-192.9 4-5 5.3 5.3-5c4.8-4.6 5.7-5.5 4.9-5.5-.1 0-2.5 2.4-5.2 5.2m83.5-3.9c0 .1 3.5 3.6 7.8 7.7l7.7 7.5-7.5-7.8c-6.9-7.1-8-8.2-8-7.4m59.7.4c-1.5 1.5-.5 2.3 2.6 2.2 3-.2 3-.2.4-.6-1.5-.2-2.5-.9-2.2-1.4.7-1 .1-1.2-.8-.2m-225.3 2.5-1.9 2.3 2.3-1.9c1.2-1.1 2.2-2.1 2.2-2.3 0-.8-.8-.2-2.6 1.9m191.4-1.5c.6.2 1.8.2 2.5 0 .6-.3.1-.5-1.3-.5s-1.9.2-1.2.5m-133.5 1c.9.2 2.3.2 3 0 .6-.3-.1-.5-1.8-.5-1.6 0-2.2.2-1.2.5m45.1 1.5-1.9 2.3 2.3-1.9c1.2-1.1 2.2-2.1 2.2-2.3 0-.8-.8-.2-2.6 1.9m45.6.3c1.3 1.4 2.6 2.5 2.8 2.5.3 0-.5-1.1-1.8-2.5s-2.6-2.5-2.8-2.5c-.3 0 .5 1.1 1.8 2.5m-122.2 1.2c.6.2 1.8.2 2.5 0 .6-.3.1-.5-1.3-.5s-1.9.2-1.2.5m31.5 0c.9.2 2.3.2 3 0 .6-.3-.1-.5-1.8-.5-1.6 0-2.2.2-1.2.5m167.5 0c.6.2 1.8.2 2.5 0 .6-.3.1-.5-1.3-.5s-1.9.2-1.2.5m-121.9 2c-1.3 1.6-1.2 1.7.4.4.9-.7 1.7-1.5 1.7-1.7 0-.8-.8-.3-2.1 1.3m54.1.8c1.3 1.4 2.6 2.5 2.8 2.5.3 0-.5-1.1-1.8-2.5s-2.6-2.5-2.8-2.5c-.3 0 .5 1.1 1.8 2.5m110 3c1.3 1.4 2.6 2.5 2.8 2.5.3 0-.5-1.1-1.8-2.5s-2.6-2.5-2.8-2.5c-.3 0 .5 1.1 1.8 2.5m-175.5 2.7-4 4.3 4.3-4c2.3-2.1 4.2-4 4.2-4.2 0-.8-.9 0-4.5 3.9m66.5-.7c1.3 1.4 2.6 2.5 2.8 2.5.3 0-.5-1.1-1.8-2.5s-2.6-2.5-2.8-2.5c-.3 0 .5 1.1 1.8 2.5m113-2.1c0 .2.8 1 1.8 1.7 1.5 1.3 1.6 1.2.3-.4s-2.1-2.1-2.1-1.3m-88.5 2.6c1 1.1 2 2 2.3 2s-.3-.9-1.3-2-2-2-2.3-2 .3.9 1.3 2m74.5 1.5c1.9 1.9 3.6 3.5 3.9 3.5s-1-1.6-2.9-3.5-3.6-3.5-3.9-3.5 1 1.6 2.9 3.5m-163.6.7-1.9 2.3 2.3-1.9c1.2-1.1 2.2-2.1 2.2-2.3 0-.8-.8-.2-2.6 1.9m160.6.2c0 .2.8 1 1.8 1.7 1.5 1.3 1.6 1.2.3-.4s-2.1-2.1-2.1-1.3m-131.1 3.3-2.4 2.8 2.8-2.4c1.5-1.4 2.7-2.6 2.7-2.8 0-.8-.8-.1-3.1 2.4m-89.1 0c1.2.2 3.2.2 4.5 0 1.2-.2.2-.4-2.3-.4s-3.5.2-2.2.4m181 1c.7.3 1.6.2 1.9-.1.4-.3-.2-.6-1.3-.5-1.1 0-1.4.3-.6.6m8 0c.7.3 1.6.2 1.9-.1.4-.3-.2-.6-1.3-.5-1.1 0-1.4.3-.6.6m-225.9 3c-1.3 1.6-1.2 1.7.4.4s2.1-2.1 1.3-2.1c-.2 0-1 .8-1.7 1.7m36.9-1c1.2.2 3 .2 4 0 .9-.3-.1-.5-2.3-.4-2.2 0-3 .2-1.7.4m135.7 2.3c1 1.1 2 2 2.3 2s-.3-.9-1.3-2-2-2-2.3-2 .3.9 1.3 2m2.5-1.6c0 .2.8 1 1.8 1.7 1.5 1.3 1.6 1.2.3-.4s-2.1-2.1-2.1-1.3m45.3.3c1.5.2 3.7.2 5 0 1.2-.2 0-.4-2.8-.4-2.7 0-3.8.2-2.2.4m-206.9 5.5-2.9 3.3 3.3-2.9c1.7-1.7 3.2-3.1 3.2-3.3 0-.8-.8-.1-3.6 2.9m2 2-1.9 2.3 2.3-1.9c1.2-1.1 2.2-2.1 2.2-2.3 0-.8-.8-.2-2.6 1.9m25 2-2.9 3.3 3.3-2.9c1.7-1.7 3.2-3.1 3.2-3.3 0-.8-.8-.1-3.6 2.9m204.6-.7c1.3 1.4 2.6 2.5 2.8 2.5.3 0-.5-1.1-1.8-2.5s-2.6-2.5-2.8-2.5c-.3 0 .5 1.1 1.8 2.5m-201.1 1.2-2.4 2.8 2.8-2.4c2.5-2.3 3.2-3.1 2.4-3.1-.2 0-1.4 1.2-2.8 2.7m205.1-1.3c0 .2.8 1 1.8 1.7 1.5 1.3 1.6 1.2.3-.4s-2.1-2.1-2.1-1.3m-132.9 4.2c0 1.1.3 1.4.6.6.3-.7.2-1.6-.1-1.9-.3-.4-.6.2-.5 1.3m3 0c0 1.1.3 1.4.6.6.3-.7.2-1.6-.1-1.9-.3-.4-.6.2-.5 1.3m29.1 1.4c0 1.4.2 1.9.5 1.2.2-.6.2-1.8 0-2.5-.3-.6-.5-.1-.5 1.3m-3.1.6c0 1.1.3 1.4.6.6.3-.7.2-1.6-.1-1.9-.3-.4-.6.2-.5 1.3m-167.8 5.9c0 3.3.2 4.5.4 2.7s.2-4.5 0-6-.4 0-.4 3.3m11.8-2.9c0 1.1.3 1.4.6.6.3-.7.2-1.6-.1-1.9-.3-.4-.6.2-.5 1.3m280.2 2.9c0 2.7.2 3.8.4 2.2.2-1.5.2-3.7 0-5-.2-1.2-.4 0-.4 2.8m-289 0c0 2.2.2 3 .4 1.7.2-1.2.2-3 0-4-.3-.9-.5.1-.4 2.3m12 1c0 2.7.2 3.8.4 2.2.2-1.5.2-3.7 0-5-.2-1.2-.4 0-.4 2.8m38.1.7-1.9 2.3 2.3-1.9c1.2-1.1 2.2-2.1 2.2-2.3 0-.8-.8-.2-2.6 1.9m225.9 3.3c0 2.2.2 3 .4 1.7.2-1.2.2-3 0-4-.3-.9-.5.1-.4 2.3m-267.2-.9c0 1.1.3 1.4.6.6.3-.7.2-1.6-.1-1.9-.3-.4-.6.2-.5 1.3m141.2 6.4c0 4.7.2 6.6.4 4.2.2-2.3.2-6.1 0-8.5-.2-2.3-.4-.4-.4 4.3m122.9-5.5c0 1.6.2 2.2.5 1.2.2-.9.2-2.3 0-3-.3-.6-.5.1-.5 1.8m18.9-.9c0 1.1.3 1.4.6.6.3-.7.2-1.6-.1-1.9-.3-.4-.6.2-.5 1.3m-264 2c0 1.1.3 1.4.6.6.3-.7.2-1.6-.1-1.9-.3-.4-.6.2-.5 1.3m27.3 3.6-2.9 3.3 3.3-2.9c3-2.8 3.7-3.6 2.9-3.6-.2 0-1.6 1.5-3.3 3.2m4 0-1.9 2.3 2.3-1.9c2.1-1.8 2.7-2.6 1.9-2.6-.2 0-1.2 1-2.3 2.2m184.6 1.3c1.9 1.9 3.6 3.5 3.9 3.5s-1-1.6-2.9-3.5-3.6-3.5-3.9-3.5 1 1.6 2.9 3.5m2.5-1.5c1 1.1 2 2 2.3 2s-.3-.9-1.3-2-2-2-2.3-2 .3.9 1.3 2m-191.6 4.7c-1.3 1.6-1.2 1.7.4.4.9-.7 1.7-1.5 1.7-1.7 0-.8-.8-.3-2.1 1.3m111.5 7.3c0 5.2.1 7.4.3 4.7.2-2.6.2-6.8 0-9.5-.2-2.6-.3-.4-.3 4.8m103-6.8-1.9 2.3 2.3-1.9c1.2-1.1 2.2-2.1 2.2-2.3 0-.8-.8-.2-2.6 1.9M614.3 456c0 4.7.2 6.6.4 4.2.2-2.3.2-6.1 0-8.5-.2-2.3-.4-.4-.4 4.3m-101.4-3.3-2.4 2.8 2.8-2.4c1.5-1.4 2.7-2.6 2.7-2.8 0-.8-.8-.1-3.1 2.4m162.1.7c0 .2.8 1 1.8 1.7 1.5 1.3 1.6 1.2.3-.4s-2.1-2.1-2.1-1.3m49.9 3.3-2.4 2.8 2.8-2.4c1.5-1.4 2.7-2.6 2.7-2.8 0-.8-.8-.1-3.1 2.4m4.5-.5-1.9 2.3 2.3-1.9c1.2-1.1 2.2-2.1 2.2-2.3 0-.8-.8-.2-2.6 1.9m-70.2 1.3c0 1.6.2 2.2.5 1.2.2-.9.2-2.3 0-3-.3-.6-.5.1-.5 1.8m-3 .5c0 1.4.2 1.9.5 1.2.2-.6.2-1.8 0-2.5-.3-.6-.5-.1-.5 1.3m80.7 1.7c-1.3 1.6-1.2 1.7.4.4s2.1-2.1 1.3-2.1c-.2 0-1 .8-1.7 1.7m-12 1c-1.3 1.6-1.2 1.7.4.4.9-.7 1.7-1.5 1.7-1.7 0-.8-.8-.3-2.1 1.3M453.5 464c1 1.1 2 2 2.3 2s-.3-.9-1.3-2-2-2-2.3-2 .3.9 1.3 2m279 0c-2.1 2.4-.9 4.5 2.1 3.7 1.6-.4 1.5-.5-.3-.6-2.7-.1-2.9-.8-.6-3.3.9-1 1.4-1.8 1.1-1.8s-1.3.9-2.3 2m-247.7-.3c1.2.2 3 .2 4 0 .9-.3-.1-.5-2.3-.4-2.2 0-3 .2-1.7.4m225 4c.7.3 1.6.2 1.9-.1.4-.3-.2-.6-1.3-.5-1.1 0-1.4.3-.6.6M599.3 474c0 3 .2 4.3.4 2.7.2-1.5.2-3.9 0-5.5-.2-1.5-.4-.2-.4 2.8m78-4.3c.9.2 2.3.2 3 0 .6-.3-.1-.5-1.8-.5-1.6 0-2.2.2-1.2.5m.5 3c.7.3 1.6.2 1.9-.1.4-.3-.2-.6-1.3-.5-1.1 0-1.4.3-.6.6m-75.6 5.8c0 1.6.2 2.2.5 1.2.2-.9.2-2.3 0-3-.3-.6-.5.1-.5 1.8M465.5 482c.3.5 1.2.7 2 .3 2.1-.7 1.9-1.3-.6-1.3-1.1 0-1.8.4-1.4 1m3.3 3.7c.6.2 1.8.2 2.5 0 .6-.3.1-.5-1.3-.5s-1.9.2-1.2.5m111.3.9c0 1.1.3 1.4.6.6.3-.7.2-1.6-.1-1.9-.3-.4-.6.2-.5 1.3m3 0c0 1.1.3 1.4.6.6.3-.7.2-1.6-.1-1.9-.3-.4-.6.2-.5 1.3m-68.2 2.1c-1.3 1.6-1.2 1.7.4.4.9-.7 1.7-1.5 1.7-1.7 0-.8-.8-.3-2.1 1.3m233.1 1.8c1.3 1.4 2.6 2.5 2.8 2.5.3 0-.5-1.1-1.8-2.5s-2.6-2.5-2.8-2.5c-.3 0 .5 1.1 1.8 2.5m-298.6.7-1.9 2.3 2.3-1.9c1.2-1.1 2.2-2.1 2.2-2.3 0-.8-.8-.2-2.6 1.9m233.6-1.8c0 .2.8 1 1.8 1.7 1.5 1.3 1.6 1.2.3-.4s-2.1-2.1-2.1-1.3m-12.1 2.3c-1.3 1.6-1.2 1.7.4.4.9-.7 1.7-1.5 1.7-1.7 0-.8-.8-.3-2.1 1.3M483.2 494c0 1.4.2 1.9.5 1.2.2-.6.2-1.8 0-2.5-.3-.6-.5-.1-.5 1.3m174.9-.4c0 1.1.3 1.4.6.6.3-.7.2-1.6-.1-1.9-.3-.4-.6.2-.5 1.3M486.2 495c0 1.4.2 1.9.5 1.2.2-.6.2-1.8 0-2.5-.3-.6-.5-.1-.5 1.3m108.9-.4c0 1.1.3 1.4.6.6.3-.7.2-1.6-.1-1.9-.3-.4-.6.2-.5 1.3m74 1c0 1.1.3 1.4.6.6.3-.7.2-1.6-.1-1.9-.3-.4-.6.2-.5 1.3m54.3.5c-.3.6-.2 1.5.3 2s.9.1.9-1.1c0-2.3-.2-2.4-1.2-.9m-65.3 1.5c0 1.1.3 1.4.6.6.3-.7.2-1.6-.1-1.9-.3-.4-.6.2-.5 1.3m-212 1c0 1.1.3 1.4.6.6.3-.7.2-1.6-.1-1.9-.3-.4-.6.2-.5 1.3m85.9-.6c-.9.6-1 1-.3 1 .6 0 1.5-.5 1.8-1 .8-1.2.4-1.2-1.5 0m220.2 2c0 1.9.2 2.7.5 1.7.2-.9.2-2.5 0-3.5-.3-.9-.5-.1-.5 1.8m-242 .5c0 1.6.2 2.2.5 1.2.2-.9.2-2.3 0-3-.3-.6-.5.1-.5 1.8m238.9-.9c0 1.1.3 1.4.6.6.3-.7.2-1.6-.1-1.9-.3-.4-.6.2-.5 1.3M486.2 503c0 1.9.2 2.7.5 1.7.2-.9.2-2.5 0-3.5-.3-.9-.5-.1-.5 1.8m-3 1c0 1.4.2 1.9.5 1.2.2-.6.2-1.8 0-2.5-.3-.6-.5-.1-.5 1.3m86.7 5.7-3.4 3.8 3.8-3.4c3.4-3.3 4.2-4.1 3.4-4.1-.2 0-1.9 1.7-3.8 3.7m153.9 2c.6.2 1.8.2 2.5 0 .6-.3.1-.5-1.3-.5s-1.9.2-1.2.5M466 514c-.9.6-1 1-.3 1 .6 0 1.5-.5 1.8-1 .8-1.2.4-1.2-1.5 0m216.9 1.7c-1.3 1.6-1.2 1.7.4.4.9-.7 1.7-1.5 1.7-1.7 0-.8-.8-.3-2.1 1.3m-102 4-2.4 2.8 2.8-2.4c1.5-1.4 2.7-2.6 2.7-2.8 0-.8-.8-.1-3.1 2.4m2 2-3.4 3.8 3.8-3.4c3.4-3.3 4.2-4.1 3.4-4.1-.2 0-1.9 1.7-3.8 3.7m148.6-2.7c-1.6.7-1.7.9-.3.9.9.1 2-.4 2.3-.9.7-1.1.7-1.1-2 0m-191.2 1.7c1.5.2 3.7.2 5 0 1.2-.2 0-.4-2.8-.4-2.7 0-3.8.2-2.2.4m205.9 1.3c0 1.4.2 1.9.5 1.2.2-.6.2-1.8 0-2.5-.3-.6-.5-.1-.5 1.3m-96.4-.3c.7.3 1.6.2 1.9-.1.4-.3-.2-.6-1.3-.5-1.1 0-1.4.3-.6.6m12 0c.7.3 1.6.2 1.9-.1.4-.3-.2-.6-1.3-.5-1.1 0-1.4.3-.6.6m-124 2c.6.2 1.8.2 2.5 0 .6-.3.1-.5-1.3-.5s-1.9.2-1.2.5m7 0c.6.2 1.8.2 2.5 0 .6-.3.1-.5-1.3-.5s-1.9.2-1.2.5m104 1c.7.3 1.6.2 1.9-.1.4-.3-.2-.6-1.3-.5-1.1 0-1.4.3-.6.6M498.5 530c2.1 2.2 4.1 4 4.4 4s-1.3-1.8-3.4-4-4.1-4-4.4-4 1.3 1.8 3.4 4m-5-1c1 1.1 2 2 2.3 2s-.3-.9-1.3-2-2-2-2.3-2 .3.9 1.3 2m95.5 2.5c-2.4 2.5-4.2 4.5-3.9 4.5s2.5-2 4.9-4.5 4.2-4.5 3.9-4.5-2.5 2-4.9 4.5m5.9-1.8c-1.3 1.6-1.2 1.7.4.4s2.1-2.1 1.3-2.1c-.2 0-1 .8-1.7 1.7m-125.3 2.2c-2.7 2.8-2.8 5.1-.3 5.1.7 0 .6-.4-.3-1-1.2-.7-1.1-1.3 1-3.5 1.3-1.4 3-2.3 3.8-2 .7.2 1 0 .7-.5-1-1.6-1.9-1.2-4.9 1.9m257.9 1.1c1 1.1 2 2 2.3 2s-.3-.9-1.3-2-2-2-2.3-2 .3.9 1.3 2M607 534.5c1.3 1.4 2.6 2.5 2.8 2.5.3 0-.5-1.1-1.8-2.5s-2.6-2.5-2.8-2.5c-.3 0 .5 1.1 1.8 2.5m117.4-.6c2.1 2.3 2.6 2.6 2.6 1.1 0-.5-1-1.5-2.2-2.1-2.3-1.2-2.3-1.2-.4 1m-242.8 0c-.4.6-.1 1.1.5 1.1.7 0 3 1.7 5.1 3.7s3.8 3.5 3.8 3.2-2-2.4-4.4-4.8c-2.7-2.6-4.6-3.9-5-3.2m6.4 1.6c1.3 1.4 2.6 2.5 2.8 2.5.3 0-.5-1.1-1.8-2.5s-2.6-2.5-2.8-2.5c-.3 0 .5 1.1 1.8 2.5m10-2.1c0 .2.8 1 1.8 1.7 1.5 1.3 1.6 1.2.3-.4s-2.1-2.1-2.1-1.3m88.4 4.8-1.9 2.3 2.3-1.9c1.2-1.1 2.2-2.1 2.2-2.3 0-.8-.8-.2-2.6 1.9m82.4-1.5c.7.3 1.6.2 1.9-.1.4-.3-.2-.6-1.3-.5-1.1 0-1.4.3-.6.6m30.6 2.5-1.9 2.3 2.3-1.9c1.2-1.1 2.2-2.1 2.2-2.3 0-.8-.8-.2-2.6 1.9m2.5 1.5-3.4 3.8 3.8-3.4c3.4-3.3 4.2-4.1 3.4-4.1-.2 0-1.9 1.7-3.8 3.7M728 538c-.9.6-1 1-.3 1 .6 0 1.5-.5 1.8-1 .8-1.2.4-1.2-1.5 0m-189.2 1.7c1.2.2 3 .2 4 0 .9-.3-.1-.5-2.3-.4-2.2 0-3 .2-1.7.4m176.2 8.7c0 .2.8 1 1.8 1.7 1.5 1.3 1.6 1.2.3-.4s-2.1-2.1-2.1-1.3M474.5 552c1 1.1 2 2 2.3 2s-.3-.9-1.3-2-2-2-2.3-2 .3.9 1.3 2"/><path fill="gray" d="m582.4 276.2-1.9 2.3 2.3-1.9c2.1-1.8 2.7-2.6 1.9-2.6-.2 0-1.2 1-2.3 2.2m-48.6-.5c.7.3 1.6.2 1.9-.1.4-.3-.2-.6-1.3-.5-1.1 0-1.4.3-.6.6m11 0c.7.3 1.6.2 1.9-.1.4-.3-.2-.6-1.3-.5-1.1 0-1.4.3-.6.6m110 3c1.8.2 4.5.2 6 0s0-.4-3.3-.4-4.5.2-2.7.4m-44.5 5.8c0 2.2.2 3 .4 1.7.2-1.2.2-3 0-4-.3-.9-.5.1-.4 2.3m40.5-2.8c.7.3 1.6.2 1.9-.1.4-.3-.2-.6-1.3-.5-1.1 0-1.4.3-.6.6m11 0c.7.3 1.6.2 1.9-.1.4-.3-.2-.6-1.3-.5-1.1 0-1.4.3-.6.6m-79.7 1.9c0 1.1.3 1.4.6.6.3-.7.2-1.6-.1-1.9-.3-.4-.6.2-.5 1.3m-76.2 5.1c-1.3 1.6-1.2 1.7.4.4.9-.7 1.7-1.5 1.7-1.7 0-.8-.8-.3-2.1 1.3m147.9 4c.6.2 1.8.2 2.5 0 .6-.3.1-.5-1.3-.5s-1.9.2-1.2.5m-135.4 8.5-1.9 2.3 2.3-1.9c2.1-1.8 2.7-2.6 1.9-2.6-.2 0-1.2 1-2.3 2.2m88.5 3.5c-1.3 1.6-1.2 1.7.4.4.9-.7 1.7-1.5 1.7-1.7 0-.8-.8-.3-2.1 1.3m108.9 1c.7.3 1.6.2 1.9-.1.4-.3-.2-.6-1.3-.5-1.1 0-1.4.3-.6.6m-177 2c.7.3 1.6.2 1.9-.1.4-.3-.2-.6-1.3-.5-1.1 0-1.4.3-.6.6m-96.7 2.9c0 1.1.3 1.4.6.6.3-.7.2-1.6-.1-1.9-.3-.4-.6.2-.5 1.3m25 0c0 1.1.3 1.4.6.6.3-.7.2-1.6-.1-1.9-.3-.4-.6.2-.5 1.3m182.7 2.1c.6.2 1.8.2 2.5 0 .6-.3.1-.5-1.3-.5s-1.9.2-1.2.5m-159.9 2c-1.3 1.6-1.2 1.7.4.4.9-.7 1.7-1.5 1.7-1.7 0-.8-.8-.3-2.1 1.3m167.1-.3c0 .2.8 1 1.8 1.7 1.5 1.3 1.6 1.2.3-.4s-2.1-2.1-2.1-1.3m24.1 2.2c0 1.1.3 1.4.6.6.3-.7.2-1.6-.1-1.9-.3-.4-.6.2-.5 1.3m-203.8 6.1c.9.2 2.3.2 3 0 .6-.3-.1-.5-1.8-.5-1.6 0-2.2.2-1.2.5m201.9 1.3c0 1.4.2 1.9.5 1.2.2-.6.2-1.8 0-2.5-.3-.6-.5-.1-.5 1.3m-141.7 5c-.3.6.1.7.9.4 1.8-.7 2.1-1.4.7-1.4-.6 0-1.3.4-1.6 1m128.6.6c0 1.1.3 1.4.6.6.3-.7.2-1.6-.1-1.9-.3-.4-.6.2-.5 1.3m-104.3 1.1c.7.3 1.6.2 1.9-.1.4-.3-.2-.6-1.3-.5-1.1 0-1.4.3-.6.6m-84 2c.7.3 1.6.2 1.9-.1.4-.3-.2-.6-1.3-.5-1.1 0-1.4.3-.6.6m43.3 1.9c0 1.1.3 1.4.6.6.3-.7.2-1.6-.1-1.9-.3-.4-.6.2-.5 1.3m14 3c0 1.1.3 1.4.6.6.3-.7.2-1.6-.1-1.9-.3-.4-.6.2-.5 1.3m131.3 1.4c.1 2.3.5 2.5 5.1 2.6l5 .1-4.7-.4c-3.9-.3-4.7-.8-5.1-2.6-.3-1.8-.4-1.8-.3.3m-181.5-.3c-1.3 1.6-1.2 1.7.4.4.9-.7 1.7-1.5 1.7-1.7 0-.8-.8-.3-2.1 1.3m-20.1 3c.7.3 1.6.2 1.9-.1.4-.3-.2-.6-1.3-.5-1.1 0-1.4.3-.6.6m51.5 0c.9.2 2.3.2 3 0 .6-.3-.1-.5-1.8-.5-1.6 0-2.2.2-1.2.5m18.8.9c0 1.1.3 1.4.6.6.3-.7.2-1.6-.1-1.9-.3-.4-.6.2-.5 1.3m18.7 1.1c.6.2 1.8.2 2.5 0 .6-.3.1-.5-1.3-.5s-1.9.2-1.2.5m24.3.9c0 1.1.3 1.4.6.6.3-.7.2-1.6-.1-1.9-.3-.4-.6.2-.5 1.3m110.9 3.8c0 .2.8 1 1.8 1.7 1.5 1.3 1.6 1.2.3-.4s-2.1-2.1-2.1-1.3m-154 2c0 .2.8 1 1.8 1.7 1.5 1.3 1.6 1.2.3-.4s-2.1-2.1-2.1-1.3m176.3 4.1c0 2.2.2 3 .4 1.7.2-1.2.2-3 0-4-.3-.9-.5.1-.4 2.3m-246.5.2c.7.3 1.6.2 1.9-.1.4-.3-.2-.6-1.3-.5-1.1 0-1.4.3-.6.6m53.5 0c.9.2 2.5.2 3.5 0 .9-.3.1-.5-1.8-.5s-2.7.2-1.7.5m151 2c.9.2 2.3.2 3 0 .6-.3-.1-.5-1.8-.5-1.6 0-2.2.2-1.2.5m24.9 1.8c0 1.6.2 2.2.5 1.2.2-.9.2-2.3 0-3-.3-.6-.5.1-.5 1.8m-203 1c0 1.6.2 2.2.5 1.2.2-.9.2-2.3 0-3-.3-.6-.5.1-.5 1.8m-45.2-1.1c0 .2.8 1 1.8 1.7 1.5 1.3 1.6 1.2.3-.4s-2.1-2.1-2.1-1.3m157 3.1c1.3 1.4 2.6 2.5 2.8 2.5.3 0-.5-1.1-1.8-2.5s-2.6-2.5-2.8-2.5c-.3 0 .5 1.1 1.8 2.5m-148.4.8c.3 1 .9 1.5 1.2 1.2s0-1.1-.7-1.8c-1-.9-1.1-.8-.5.6m79.6 3.2c0 1.6.2 2.2.5 1.2.2-.9.2-2.3 0-3-.3-.6-.5.1-.5 1.8m121 1.5c0 1.9.2 2.7.5 1.7.2-.9.2-2.5 0-3.5-.3-.9-.5-.1-.5 1.8m-210.8 1.2-1.9 2.3 2.3-1.9c1.2-1.1 2.2-2.1 2.2-2.3 0-.8-.8-.2-2.6 1.9m169.6.2c0 .2.8 1 1.8 1.7 1.5 1.3 1.6 1.2.3-.4s-2.1-2.1-2.1-1.3m5.5 8.6c1 1.1 2 2 2.3 2s-.3-.9-1.3-2-2-2-2.3-2 .3.9 1.3 2m6.5 2.4c0 .2.8 1 1.8 1.7 1.5 1.3 1.6 1.2.3-.4s-2.1-2.1-2.1-1.3m71.4 2.8-2.9 3.3 3.3-2.9c1.7-1.7 3.2-3.1 3.2-3.3 0-.8-.8-.1-3.6 2.9m19.8-.2c0 1.4.2 1.9.5 1.2.2-.6.2-1.8 0-2.5-.3-.6-.5-.1-.5 1.3m-87.2 4.4c0 .2.8 1 1.8 1.7 1.5 1.3 1.6 1.2.3-.4s-2.1-2.1-2.1-1.3m13 9.1c3 3 5.7 5.5 5.9 5.5.3 0-1.9-2.5-4.9-5.5s-5.7-5.5-5.9-5.5c-.3 0 1.9 2.5 4.9 5.5m-91.5-.3-4 4.3 4.3-4c3.9-3.6 4.7-4.5 3.9-4.5-.2 0-2.1 1.9-4.2 4.2m177.3-3.5c.7.3 1.6.2 1.9-.1.4-.3-.2-.6-1.3-.5-1.1 0-1.4.3-.6.6m-70 2c.7.3 1.6.2 1.9-.1.4-.3-.2-.6-1.3-.5-1.1 0-1.4.3-.6.6m31 1c.7.3 1.6.2 1.9-.1.4-.3-.2-.6-1.3-.5-1.1 0-1.4.3-.6.6m7 0c.7.3 1.6.2 1.9-.1.4-.3-.2-.6-1.3-.5-1.1 0-1.4.3-.6.6m-240 2c.6.2 1.8.2 2.5 0 .6-.3.1-.5-1.3-.5s-1.9.2-1.2.5m36 1c.7.3 1.6.2 1.9-.1.4-.3-.2-.6-1.3-.5-1.1 0-1.4.3-.6.6m128.2-.3c0 .2.8 1 1.8 1.7 1.5 1.3 1.6 1.2.3-.4s-2.1-2.1-2.1-1.3m115 0c0 .2.8 1 1.8 1.7 1.5 1.3 1.6 1.2.3-.4s-2.1-2.1-2.1-1.3m-171.1 4.3c-1.3 1.6-1.2 1.7.4.4s2.1-2.1 1.3-2.1c-.2 0-1 .8-1.7 1.7m63.1-1.3c0 .2.8 1 1.8 1.7 1.5 1.3 1.6 1.2.3-.4s-2.1-2.1-2.1-1.3m-70.1 8.3c-1.3 1.6-1.2 1.7.4.4.9-.7 1.7-1.5 1.7-1.7 0-.8-.8-.3-2.1 1.3m127.9 1c.6.2 1.8.2 2.5 0 .6-.3.1-.5-1.3-.5s-1.9.2-1.2.5m-172.9 9c-1.3 1.6-1.2 1.7.4.4s2.1-2.1 1.3-2.1c-.2 0-1 .8-1.7 1.7m198.1-.3c0 .2.8 1 1.8 1.7 1.5 1.3 1.6 1.2.3-.4s-2.1-2.1-2.1-1.3m38.1 6.2c0 1.1.3 1.4.6.6.3-.7.2-1.6-.1-1.9-.3-.4-.6.2-.5 1.3m-248.2 2.1c-1.3 1.6-1.2 1.7.4.4s2.1-2.1 1.3-2.1c-.2 0-1 .8-1.7 1.7m80.3 3.3c0 1.9.2 2.7.5 1.7.2-.9.2-2.5 0-3.5-.3-.9-.5-.1-.5 1.8m-81.3.7-2.4 2.8 2.8-2.4c1.5-1.4 2.7-2.6 2.7-2.8 0-.8-.8-.1-3.1 2.4m113.2-.1c0 1.1.3 1.4.6.6.3-.7.2-1.6-.1-1.9-.3-.4-.6.2-.5 1.3m124.1 2.4c0 1.9.2 2.7.5 1.7.2-.9.2-2.5 0-3.5-.3-.9-.5-.1-.5 1.8m-283 1c0 1.4.2 1.9.5 1.2.2-.6.2-1.8 0-2.5-.3-.6-.5-.1-.5 1.3m140.9.6c0 1.1.3 1.4.6.6.3-.7.2-1.6-.1-1.9-.3-.4-.6.2-.5 1.3m16.2 5.9c0 3.3.2 4.5.4 2.7s.2-4.5 0-6-.4 0-.4 3.3m-27.9 20c0 13.7.2 19.5.3 12.8.2-6.7.2-17.9 0-25-.1-7-.3-1.6-.3 12.2m16-8c0 9.3.2 13.3.3 8.8.2-4.5.2-12.2 0-17-.1-4.8-.3-1.2-.3 8.2m149.7-13.9c0 1.1.3 1.4.6.6.3-.7.2-1.6-.1-1.9-.3-.4-.6.2-.5 1.3m-33.2 12.1c-1.3 1.6-1.2 1.7.4.4s2.1-2.1 1.3-2.1c-.2 0-1 .8-1.7 1.7m-120.5 21.8c0 11.5.2 16.1.3 10.2.2-5.9.2-15.4 0-21-.1-5.6-.3-.8-.3 10.8m-58.1-10c0 3.8.2 5.3.4 3.2.2-2 .2-5.2 0-7-.2-1.7-.4-.1-.4 3.8m122 1c0 2.2.2 3 .4 1.7.2-1.2.2-3 0-4-.3-.9-.5.1-.4 2.3M455 461.4c0 .2.8 1 1.8 1.7 1.5 1.3 1.6 1.2.3-.4s-2.1-2.1-2.1-1.3m282.9 1.3c-1.3 1.6-1.2 1.7.4.4s2.1-2.1 1.3-2.1c-.2 0-1 .8-1.7 1.7m-123.6 6.8c0 3.3.2 4.5.4 2.7s.2-4.5 0-6-.4 0-.4 3.3m-130-2.8c.9.2 2.5.2 3.5 0 .9-.3.1-.5-1.8-.5s-2.7.2-1.7.5m222.5 1c.7.3 1.6.2 1.9-.1.4-.3-.2-.6-1.3-.5-1.1 0-1.4.3-.6.6M593.3 481c0 3.6.2 5 .4 3.2.2-1.7.2-4.7 0-6.5-.2-1.7-.4-.3-.4 3.3m71.6-3.3c-1.3 1.6-1.2 1.7.4.4s2.1-2.1 1.3-2.1c-.2 0-1 .8-1.7 1.7m84.3.8c0 1.6.2 2.2.5 1.2.2-.9.2-2.3 0-3-.3-.6-.5.1-.5 1.8m-137.1 1.1c0 1.1.3 1.4.6.6.3-.7.2-1.6-.1-1.9-.3-.4-.6.2-.5 1.3m-9.9 3.4c0 1.4.2 1.9.5 1.2.2-.6.2-1.8 0-2.5-.3-.6-.5-.1-.5 1.3m124.1 2.7c.9.2 2.3.2 3 0 .6-.3-.1-.5-1.8-.5-1.6 0-2.2.2-1.2.5m16.6 1c-1.3 1.6-1.2 1.7.4.4s2.1-2.1 1.3-2.1c-.2 0-1 .8-1.7 1.7m-142.8 2.9c0 1.1.3 1.4.6.6.3-.7.2-1.6-.1-1.9-.3-.4-.6.2-.5 1.3m75.7.1c.7.3 1.6.2 1.9-.1.4-.3-.2-.6-1.3-.5-1.1 0-1.4.3-.6.6M540.2 494c0 1.9.2 2.7.5 1.7.2-.9.2-2.5 0-3.5-.3-.9-.5-.1-.5 1.8m115 2c0 1.4.2 1.9.5 1.2.2-.6.2-1.8 0-2.5-.3-.6-.5-.1-.5 1.3m-181.9 3c0 2.5.2 3.5.4 2.2.2-1.2.2-3.2 0-4.5-.2-1.2-.4-.2-.4 2.3m229.8-2.4c0 1.1.3 1.4.6.6.3-.7.2-1.6-.1-1.9-.3-.4-.6.2-.5 1.3M483.2 499c0 1.9.2 2.7.5 1.7.2-.9.2-2.5 0-3.5-.3-.9-.5-.1-.5 1.8m230.1 2c0 3 .2 4.3.4 2.7.2-1.5.2-3.9 0-5.5-.2-1.5-.4-.2-.4 2.8m-247.5-3.3c.7.3 1.6.2 1.9-.1.4-.3-.2-.6-1.3-.5-1.1 0-1.4.3-.6.6m265 1c.7.3 1.6.2 1.9-.1.4-.3-.2-.6-1.3-.5-1.1 0-1.4.3-.6.6m0 2c.6.2 1.8.2 2.5 0 .6-.3.1-.5-1.3-.5s-1.9.2-1.2.5m-42.7 3.9c0 1.1.3 1.4.6.6.3-.7.2-1.6-.1-1.9-.3-.4-.6.2-.5 1.3m-157.8 4.1c.9.2 2.3.2 3 0 .6-.3-.1-.5-1.8-.5-1.6 0-2.2.2-1.2.5m184.8 1.9c0 1.1.3 1.4.6.6.3-.7.2-1.6-.1-1.9-.3-.4-.6.2-.5 1.3m-143.7 1.6-1.9 2.3 2.3-1.9c1.2-1.1 2.2-2.1 2.2-2.3 0-.8-.8-.2-2.6 1.9m53.6.3c1.3 1.4 2.6 2.5 2.8 2.5.3 0-.5-1.1-1.8-2.5s-2.6-2.5-2.8-2.5c-.3 0 .5 1.1 1.8 2.5m55.4 1.7-1.9 2.3 2.3-1.9c2.1-1.8 2.7-2.6 1.9-2.6-.2 0-1.2 1-2.3 2.2m41.1-1.1c-.4.6-.5 1.2-.2 1.5.2.3.7-.2 1-1.1.7-1.7.1-2-.8-.4m27.7 8.9c0 1.4.2 1.9.5 1.2.2-.6.2-1.8 0-2.5-.3-.6-.5-.1-.5 1.3m-207.4 1.7c.7.3 1.6.2 1.9-.1.4-.3-.2-.6-1.3-.5-1.1 0-1.4.3-.6.6m118 1c.7.3 1.6.2 1.9-.1.4-.3-.2-.6-1.3-.5-1.1 0-1.4.3-.6.6m-52.8 5.6c0 .2 1.5 1.6 3.3 3.3l3.2 2.9-2.9-3.3c-2.8-3-3.6-3.7-3.6-2.9m-16.1 3.4-2.4 2.8 2.8-2.4c1.5-1.4 2.7-2.6 2.7-2.8 0-.8-.8-.1-3.1 2.4m-53.1 3c1.8.2 4.5.2 6 0s0-.4-3.3-.4-4.5.2-2.7.4m173.4 6.8c0 1.6.2 2.2.5 1.2.2-.9.2-2.3 0-3-.3-.6-.5.1-.5 1.8M470 547.4c0 .2.7.7 1.6 1 .8.3 1.2.2.9-.4-.6-1-2.5-1.4-2.5-.6m51.8 4.3c.7.3 1.6.2 1.9-.1.4-.3-.2-.6-1.3-.5-1.1 0-1.4.3-.6.6m138.5 1c.9.2 2.5.2 3.5 0 .9-.3.1-.5-1.8-.5s-2.7.2-1.7.5m-136.5 2c.7.3 1.6.2 1.9-.1.4-.3-.2-.6-1.3-.5-1.1 0-1.4.3-.6.6m23 0c.7.3 1.6.2 1.9-.1.4-.3-.2-.6-1.3-.5-1.1 0-1.4.3-.6.6"/><g stroke-width="0"><path d="M589.5 271.4c-7.6 5-9 7-8.9 12.6 0 3.3.9 6.1 2.7 9.1 3.6 5.9 10.1 12.9 12 12.9 2 0 11.6-10.6 13.4-14.7 1.7-4.3 1.7-11.3-.2-14-1.5-2.2-11.7-9.3-13.2-9.2-.4 0-3 1.5-5.8 3.3m10.7 1.5c6.1 3.8 7.8 6.6 7.8 12.2 0 5.1-2.6 9.4-9.5 15.9l-3.7 3.5-4.4-5c-7.4-8.5-10.2-16.5-7.1-20.6 1.3-1.6 10.8-8.8 11.8-8.9.3 0 2.6 1.3 5.1 2.9"/><path d="M461.2 276.9c-10.1 3.5-17.1 11.2-19.8 22.1-2.7 10.8.1 23.3 6.7 29.6 3.5 3.4 3.6 4.1.5 6.5-3.3 2.6-5.6 7.9-5.6 12.9 0 4.8 1.1 7.3 5.3 11.8l3.1 3.2-3.7 3.1c-5.6 4.6-8 10.1-7.5 16.6.7 8.2 7.3 15.3 14.3 15.3 1.7 0 3.5.3 3.8.7.4.3-1.4 2.8-3.9 5.5-14 15-15 40.2-2.1 56.8l4.4 5.6-4.4 4c-3.5 3.3-4.3 4.7-4.3 7.5 0 1.9.7 4.5 1.6 5.8 1.5 2.1 1.5 2.4-.9 4.9-5.9 6.4-6.3 11.4-1.1 17.2 3.4 3.7 3.5 4 2 6.2-3.7 5.2-.3 14.7 5.8 16.2 2.3.6 2.4.9 1.9 6.5-.5 5.7-.4 6.2 2.5 9 2.4 2.5 3.9 3.1 7.3 3.1 3.6 0 4.8.6 7.5 3.5 5 5.5 10.6 4.8 14.9-1.8 1-1.5 1.4-3.1 1-3.5s-1-.1-1.2.6c-.9 2.4-4.7 6-7.1 6.7-1.9.5-3.1-.1-6.2-3.4-3.3-3.5-4.3-4-6.8-3.5-7 1.4-12.5-5.3-10.3-12.7 1.3-4.2.9-5.9-1.5-5.9-2.6 0-6.2-3.1-7.3-6.2-.9-2.6-.8-3.9 1-7.5l2.1-4.4-3.6-3.4c-5.1-4.7-5-9 .3-14.8l3.9-4.2-1.9-2.4c-3-3.6-2.5-8.7 1.2-12.1 1.6-1.6 3.9-3.2 5-3.5 2.6-.9 2.4-1.6-1.1-5-14.8-14.2-16.1-40-2.9-56.6 1.7-2.1 6.2-6.2 10-9.1 7.9-5.8 9.9-8.8 9.9-14.7 0-6.1-3.5-9.6-9.5-9.6-3.9 0-5.1.5-7.1 2.8-2.6 3.1-3.1 5.6-1.2 7.5 1.5 1.5 4.5 1.6 5.3.1.4-.6.1-1-.6-.8-3 .4-3.9-.2-3.9-2.5 0-4.6 8-7.4 12.1-4.3 4.9 3.8 4.8 10.5-.4 15.4-6.4 6.1-12.2 7-19.3 2.8-9.7-5.7-10.6-16.6-2-25.1 2.2-2.2 5-4.6 6.1-5.2 1.8-1 1.7-1.3-2.7-5.2-8.2-7.2-8.6-14.9-1.3-22 1.9-1.9 3.5-3.8 3.5-4.3s-1.5-2.7-3.4-5c-5.1-6.4-6.9-10.6-7.4-17.8-.7-10.1 1.8-17 8.7-24 6.3-6.3 12.4-8.9 20.7-8.9 12.8 0 23.7 8.4 25.8 19.9 2.1 11.3-11.1 25.5-21.6 23.4-6.3-1.3-10.5-8.3-7.8-13.4 1.4-2.6 3.2-2.4 5.8.6 2.8 3.2 5.5 3.2 8.1-.1 3.2-4.1 2.8-8.9-1.2-12.9-3.9-3.9-7.2-5-12.1-4.1-8.7 1.7-14.6 9.7-14.6 20 .1 13 8.3 21.9 22.3 24 2.7.4 4.7.3 4.7-.2s-2.3-1.2-5.1-1.5c-17.3-2.1-26.7-22.2-16.3-34.7 6.9-8.2 18.5-7.9 22 .6 1.3 3 1.3 3.8-.1 6.4-1.7 3.2-5.2 4.1-6.1 1.5-1.1-2.8-4.3-3.8-6.9-2.1-3.1 2-3.9 4.9-2.5 9 1.6 4.9 5.2 7.8 10.3 8.3 8.7 1 16.4-4 20.6-13.4 4.5-9.8 5.7-11.8 10.3-16.8 11.7-12.8 31.2-17.4 48.7-11.4 11.2 3.9 17.3 9.5 33 30.7l5.5 7.3 9.5-9.9c11-11.4 17.9-16.8 27.1-21.1 10.2-4.7 18.1-6.4 28.5-5.9 10.9.5 17.6 3.2 24.7 10.3 4.6 4.7 5.8 6.6 10.2 16.7 2.9 6.9 7 9.8 13.4 9.8 7.4 0 13.2-4.4 13.2-10.2 0-3.3-1.4-4.3-6.5-4.3-3.6 0-4-.3-4.3-2.6-.4-3.2 3.7-6.9 7.7-6.9 3.6 0 8.7 3.3 11.2 7.2 2.9 4.7 2.3 13.2-1.4 18.7-3.4 5.1-11.8 10.1-16.9 10.1-2.1 0-3.8.5-3.8 1.1 0 .8 1.5.9 4.7.4 12.2-1.8 20.6-10.9 20.7-22.5 0-9.9-5.4-16-14.5-16-3.7 0-5.2.5-7.3 2.6-4.9 4.9-3 9.4 4 9.4 3 0 4.4.5 4.8 1.7.9 2.4-2.3 6.4-6.8 8.7-3.2 1.6-4.4 1.7-7.6.7-2.1-.6-5-2.5-6.4-4.2-8.4-9.9-4.3-25.6 8.4-32.2 4.9-2.6 6.3-2.8 12.5-2.5 7.9.5 11.9 2.3 17 7.3 6.2 6.2 8 10.9 8 20.5 0 7.5-.3 9.1-2.7 13.2-1.6 2.5-4.6 6.2-6.8 8.1-2.2 1.8-4 3.6-4 3.9s1.8 1 4 1.7c7.6 2.3 13 8.8 13 15.6 0 6.5-4.1 11.9-11.8 15.3l-4.4 2 4.3 2.3c9.7 5.3 11.5 14.4 4.3 20.6-4.4 3.9-9.2 5-14.6 3.4-8.2-2.5-11.3-9.7-6.3-14.6 2.7-2.8 3.7-3 6.8-1.4 4 2.2 5.1 5.9 1.7 5.9-1.1 0-2 .4-2 1 0 1.4 3.3 1.3 4.8-.2 1.8-1.8 1.5-3.6-1.3-6.3-5.2-5.3-13.9-1.6-13.9 5.9 0 5 2.7 8.3 9.9 11.8 17.5 8.5 25.9 28.6 20.9 49.8-1.8 7.7-4.8 13.2-10.3 18.7-2.3 2.2-4.1 4.3-4.1 4.6 0 .2 1.9.7 4.2 1s5.3 1.4 6.7 2.5c5.2 3.8 5.7 12 1.1 16.6-1.9 2-1.9 2 2 5.6 3.1 2.8 4 4.4 4 6.9 0 4.1-2.2 8.3-5.4 10.5l-2.5 1.6 2.4 3.6c4.6 6.8 2.4 14.7-4.6 16.9-2.3.8-2.4 1.4-.3 4.3.9 1.3 1.6 3.9 1.7 5.9.1 4.7-4 8.6-8.8 8.1-1.8-.1-4.9.6-6.8 1.7-5.8 3.1-10.6-.1-13.1-9-.3-1.1-.4 0-.1 2.5.3 3.3 1.1 5.1 3 6.7 3.1 2.7 9.1 3.1 12.1.8 1-.8 3.8-1.5 6.2-1.5 7.6 0 11.5-6.9 8.1-14.4-1-2.2-.8-2.8 3-6.4 3.4-3.3 4.1-4.5 4.1-7.8 0-2.2-.9-5.4-2.1-7.3l-2-3.4 3-3.1c5.2-5.4 5.1-13.5-.4-18.6l-2.4-2.3 1.9-2.5c1.3-1.6 2-4 2-7 0-3.8-.5-5-3.9-8.3-2.1-2.2-4.8-3.9-6-3.9-3 0-2.7-1.2 1.9-7.2 5.5-7.3 8-15.7 8-27.3 0-14.8-4.9-27.2-13.7-34.4l-3.5-2.9 5.5-2.6c5.8-2.8 8-5.3 8.9-10 .9-4.4-.9-9.1-5-13.1l-3.7-3.7 2.5-1.6c13-8.6 13-24.1.1-30.9-2.5-1.3-4.7-2.5-4.9-2.8-.3-.2 1.4-2.5 3.7-5 5.8-6.3 7.4-10.5 7.5-19.5.1-9.5-2.7-16.2-9.3-22.3-11.3-10.6-28.2-10.1-38.4 1.2-2 2.2-4.1 5.9-4.8 8.3s-1.4 4.5-1.6 4.7c-.1.2-2.3-1.9-4.9-4.8-7.9-8.8-17.7-13.1-29.9-13.1-19.8 0-38.5 9.8-56 29.1-3.3 3.7-6.3 6.6-6.7 6.5-.3 0-4.4-5.1-9.1-11.1-9.5-12.4-16.5-19.3-22.5-22.4-13.2-6.7-31.9-6.8-45.7-.1-5.2 2.5-13.4 9.6-15.4 13.4-1.8 3.3-2.9 3.3-3.7-.2-3.4-14.6-21.1-22.8-37.2-17.3"/><path d="M530.3 291.9c-13.2 4.5-20.4 13.9-22.1 28.7l-.7 6.8-7.2 1.7c-8.6 2.1-11.7 3.7-16.1 8-4.9 4.9-7.4 10.5-8 18-.9 12.6 4.4 24 15.8 34l6.1 5.4-7.3 1.2c-14.4 2.5-26.8 11.5-32.6 24-3.6 7.9-3.8 20.3-.4 27.8 6 13.1 22.4 21.3 35.4 17.7 2-.5 3.9-.8 4.2-.5.3.4-1.1 2.4-3 4.6-6.2 6.8-10.4 18.9-10.4 29.7 0 14.2 6.9 28.6 17.4 36.1 6.4 4.7 6.2 3.3-.5-2.8-11-10.2-14.9-19-14.9-33.4 0-15.1 5.5-26.6 16.5-34.6 15.1-10.9 17.4-13.8 25.6-32.9 7.4-17.3 13.1-25.9 24.8-37.4 8.9-8.9 39.4-34.9 43.3-37.1 1.5-.8 4.3 1.4 15.5 11.8 23.2 21.4 40.8 39.4 45.1 46.3 2.3 3.6 7.1 13.1 10.8 21.2 4.5 9.9 7.9 15.9 10.3 18.4 2.1 2.1 8.4 5.9 14.9 9.1 12.7 6.2 14.9 8.4 18.3 19.3 4.4 13.6 3.3 31.9-2.5 44.6-10.7 23.3-44 32.1-76.1 20-11.9-4.6-22-12-29.1-21.7l-3.5-4.8-9.7 9.8c-8.2 8.3-11.1 10.5-18.2 14-13 6.3-19.1 7.5-36 7.5-16 0-22.7-1.3-33.8-6.5-23.9-11.4-36.1-43.5-25.2-66.2 1.1-2.2 2-4.6 2-5.1-.1-1.5-4 3.6-4 5.2 0 .9-1.7 1.1-5.7 1-4.6-.2-5.8 0-5.8 1.2 0 .8.9 1.6 2 1.7 1.1.2 1.4 0 .8-.3-.7-.3-1.3-1-1.3-1.5 0-1.2 4.1-1.1 6 .1 1.2.7 1 1.1-1 1.9l-2.5 1h2.9c2.4.1 2.8.4 2.2 2.3-.3 1.3-.6 3.6-.6 5.1 0 2-.6 3-2 3.4-1.1.3-1.7.9-1.4 1.4s-.7.9-2.1.9c-1.7 0-2.4-.4-1.9-1.2s.2-.9-1-.5c-1 .4-2 .7-2.2.7s-.4.5-.4 1.1c0 .8 1.7 1 4.9.7 4.8-.5 4.9-.4 5.5 2.5 1.1 5.5.7 9.7-.9 9.7-.8 0-1.5.7-1.5 1.5s-.9 1.9-1.9 2.5c-3.1 1.6-3.8 1.1-1.2-1 2.8-2.4 1.5-2.7-1.7-.4-2.4 1.6-3 4.4-.9 4.4.7 0 2.9-1.1 5-2.5 3.6-2.5 5.7-2.6 5.7-.2 0 2.5 5.9 13.4 9.9 18.5 5.3 6.7 15.4 13.3 25.6 16.9 7.7 2.7 8.8 2.8 26.5 2.8 17.4 0 19-.2 26.5-2.7 11.6-4 19.9-9.2 29.2-18.5l8.1-8.1 4.2 5.1c8.8 10.9 21.7 18.7 37.4 22.7 9.8 2.5 28 2.7 37.4.5 14.4-3.4 25.4-11.8 30.9-23.5 4.1-8.6 5.3-15 5.3-27.3 0-14.6-2.9-25.6-8.3-31.4-2.2-2.5-2-2.7 4.8-3.8 20.7-3.5 31.6-28.7 21.6-50-3.6-7.7-10.8-15.3-18-18.9-5.5-2.9-15.7-5.6-20.8-5.6-1.8 0-3.3-.2-3.3-.4s3.4-3.7 7.6-7.7c10.1-9.8 14.6-18.6 14.6-28.5.1-15.1-7.7-23.9-24.1-27.3-7.4-1.6-8.1-2.3-8.1-9.1 0-10.7-4-18-12.4-22.6-4.5-2.6-6.1-2.9-14.2-2.9-8.7 0-9.4.2-18 4.4-7.2 3.6-10.5 6.1-17.5 13-10.6 10.7-16.4 18.4-19.4 25.8-1.3 3.2-2.7 5.9-3.2 6-.4.2-1.6-2.3-2.5-5.5-2.8-9.6-10.1-16.7-20.1-19.6-3.8-1.1-4.1-1.5-5.3-6.5-3.6-16.2-21.2-25.1-38.1-19.2m22.2 2.5c6.6 3 12 9.1 13.9 15.7.9 2.9 1.6 5.8 1.6 6.4s2.4 1.9 5.3 2.8c10.8 3.5 15.6 8.4 19.7 20.4 1.4 4.2 2.9 7.6 3.4 7.7.5 0 1.7-2.2 2.6-5 3.8-11 9.4-18.8 22.9-31.6 11.8-11.3 19.1-15 30.7-15.6 7.2-.4 8.9-.1 13.7 2.1 8.9 4 13.7 12.6 13.7 24.3 0 6.2.3 6.5 9.8 8.4 14.7 3 23.2 13.4 21.9 27-.8 8.7-5 16.2-14.3 25.6-6.9 6.9-9.7 8.9-20.3 14.3-6.7 3.4-12 6.5-11.7 6.8s5.5-1.8 11.6-4.7c11.1-5.2 11.1-5.2 19.3-4.8 15.1.8 28.4 9.4 35 22.7 4 8.2 4.9 19.8 2.2 28-3.7 11.2-15.8 20.4-27.1 20.5-5.3.1-7.3-.5-15.5-4.6-5.2-2.5-10.6-5.9-12.1-7.5-1.5-1.5-6-10-10.1-18.8-9.4-20.7-12.8-25.6-26.2-39.1-14.4-14.4-43.1-40.8-44.8-41.2-1.5-.3-36.6 28.8-46.7 38.8-12 11.8-16.8 19.5-27.1 43.5-7.7 17.9-18.8 26.3-36.2 27.3-7.2.4-8.3.2-14.2-2.7-7-3.5-11.3-8-14.6-15.7-3-6.7-2.3-18.7 1.4-26 6.2-12.3 19.5-21.2 32.6-22.2 5.9-.4 7.6-.1 13.7 2.6 7.4 3.2 17.3 5.7 19.5 5 .7-.2-1.8-1.2-5.6-2.2-18.3-4.6-35.6-18.8-41.2-33.8-3.9-10.5-.9-24.3 6.7-31.2 3.6-3.2 13.2-7.6 16.8-7.6 5.2-.1 5.9-.9 6.6-7.9 1.8-17.9 14.4-30.1 31.1-30.1 5.2 0 8.3.6 12 2.4"/><path d="M533.4 309.8c-6.6 4.2-10.1 11.9-11.3 24.5l-.6 7.2-7 .8c-8.5.9-16.6 4.6-19.7 9-3.3 4.6-3.2 12.5.2 16.3 3 3.2 9.5 6.3 13.1 6.4 2.4 0 2.7.4 3.2 5 .8 6.7 3.3 10.6 8.2 13 5.1 2.5 8.8 2.5 14.2.1 5.4-2.5 8.8-7.7 10.9-16.6 2.7-11.4 2.6-11.2 9.1-12.5 9.3-1.8 15.9-4.9 19.8-9.1 4.2-4.7 5.1-7.9 3.6-13-1.6-5.2-6.8-8.7-14.6-9.7-5.7-.7-6-.8-6.8-4.2-3.1-12.3-7.6-17.9-14.9-18.7-3.1-.3-5.1.1-7.4 1.5m14.6 4.1c3.4 3.5 4.6 6.4 6.5 15.3.4 2.4 1.1 2.8 3.8 2.8 5.5 0 11 2.1 14.4 5.5 4.4 4.4 4.6 9.8.6 14.6-3.4 4-12.8 8.5-19.6 9.4-7.5 1-8.3 1.7-9.1 7.5-1 7.8-4.2 15.2-8 18.9-2.7 2.7-4.5 3.5-8.4 3.9-9 .8-15.2-4.8-15.2-13.9v-4.6l-5.7-1.2c-13.4-2.7-17.7-12.9-9.2-21.7 3.7-3.9 9.7-6.1 18.4-7l6.2-.6.6-7.3c.8-9.2 3.9-17.5 8.1-22 2.9-3.1 3.9-3.5 8.1-3.5 4.3 0 5.2.4 8.5 3.9"/><path d="M536.4 328.1c-1.5 1.7-2 4-2.2 10.8-.4 8.2-.2 9 2.1 11.7 2.3 2.6 3.1 2.9 8.4 2.8 7.9 0 15.6-3.4 15.1-6.6-.3-2.1-.8-2.3-7.1-2.3-7.8 0-8.1-.3-9-8.4-.6-5.1-2.8-10.1-4.6-10.1-.4 0-1.6.9-2.7 2.1m4.6 2.4c.5 1.3 1.2 4.8 1.6 7.7.9 7.4 1.7 8 8.8 7.6 4.9-.2 6.1 0 6.4 1.3.4 2-3.7 3.9-9.9 4.6-6.5.8-9.6-.2-11.4-3.7-1.9-3.7-1.9-12-.1-16.5 1.8-4.1 3.3-4.5 4.6-1m-28.8 26c-5 2.2-3.9 4.6 3.3 7 8.9 3 8.7 2.8 8 10-.6 5-.4 6.3.8 6.8 2.3.8 5.7-2.1 7.8-6.7 3.1-6.9 2.2-13.7-2.4-16.5-3.2-2.1-13.6-2.4-17.5-.6m16.6 2.2c3.3 2 4.4 5.6 3.3 10.5-1.1 4.7-4.1 9.3-6.2 9.3-1.1 0-1.3-1.5-1.1-6.7.4-7.5 0-8-7.5-9.3-4.8-.8-7-2.7-5.1-4.3 2.8-2.3 12.6-2 16.6.5m117.7-47.3c-5.5 2.4-8.9 7.6-10.9 16.7-.5 2.3-1.2 2.7-5.5 3.1-10.2 1-17.1 7.2-17.1 15.5 0 5.3 1.8 9.1 5.7 12 3.3 2.4 11.2 5.3 14.6 5.3 5.5 0 6.4.9 7.7 7.3 2.4 12.4 6.9 18.6 15.1 20.8 8.5 2.3 17-2.9 18.5-11.3 1-5 2.2-6.8 4.7-6.8 3.4 0 12.1-4.5 14.4-7.4 5.5-6.9 2.9-16.3-5.7-21-3.8-2.1-7.1-2.9-13.3-3.4l-8.2-.7-.6-9.7c-.8-12.1-3.5-17.6-9.9-20.2-4.8-1.9-5.6-1.9-9.5-.2m11.3 3.1c4.2 3.5 6.4 9.6 6.9 19.6l.6 8.6 8 .6c13.3 1.1 21.7 7 21.7 15.3 0 5.1-5.7 10.9-12.8 13.1-7.4 2.2-7.8 2.6-8.6 7.5-.5 2.9-1.8 5.2-4.5 8-3.4 3.3-4.4 3.8-8.6 3.8-9.1 0-15.3-6.6-17.9-19.3-.8-3.6-1.7-7-2-7.5s-3-1.2-6.1-1.6c-7.6-.9-12.9-3.2-16.5-7.2-5.2-6-5.2-10.8.1-16.8 3.1-3.6 7.2-5.5 13.1-6 4.6-.4 5.8-1.2 5.8-3.9 0-3.6 4.5-12.2 7.6-14.5 4-3 9.5-2.9 13.2.3"/><path d="M646.7 331.2c-.8 1.8-1.8 4.9-2.2 6.8-1.3 6.4-2.1 7-8 7-5.4 0-9 1.9-8.2 4.4.7 2.3 7.2 4.6 12.9 4.6 4.9 0 6.2-.4 8.8-2.8 3.2-2.9 5.5-11 4.5-15.8-.3-1.3-.7-3.5-1-4.9-.8-3.8-4.9-3.4-6.8.7m6.3 6.5c0 7.5-1.8 11.6-6 13.8-3.7 1.9-7.9 1.9-13-.1-6.8-2.7-4.9-5.4 4-5.4 5.6 0 6.4-.8 8.1-7.5 2.7-11.6 6.9-12.1 6.9-.8m9.4 18.7c-4.4 2-6.4 5.3-6.4 10.6 0 5.4 3 11 6 11 1.7 0 2-.7 2-4.3 0-5.6 1.9-8.1 7.2-9.6 5.9-1.7 8-3.4 7.6-6.3-.3-2.1-.8-2.3-6.8-2.5-3.9-.2-7.8.3-9.6 1.1m14.5.5c2.3 1.5-.2 3.7-6.2 5.7-6.4 2-7.7 3.6-7.7 9 0 5.1-1.3 6.3-3.4 3.2-4.1-6.4-2.4-14.7 3.7-17.3 3.6-1.6 11.5-1.9 13.6-.6M495 410.3c-13.8 3.1-23.7 14.1-23.9 26.5-.3 16.5 16.2 21.5 30.3 9.2 3.9-3.5 14.9-19.5 18.7-27.4 2-4 2.1-4.8.9-5.6-4.9-3.2-18-4.5-26-2.7m19.8 2.2c2.9.9 5.2 2.1 5.2 2.7 0 2.8-13 21.9-19 27.9-9 9.1-15.6 10.8-22.8 6.1-5.1-3.4-7-13-3.9-20.5 1.9-4.4 8.1-11.3 12.1-13.4 8.4-4.4 19.3-5.5 28.4-2.8"/><path d="M502.9 426c-5.7 5.6-9.9 10-9.3 9.8 1.8-.5 20.9-18.7 20.2-19.3-.3-.3-5.2 4-10.9 9.5m175.8-15c-5.9 1.5-9.9 3.9-9 5.3 4.9 7.9 16.7 24 20.4 27.8 11.8 12.1 26.7 11.9 30-.4 3-11.4-4.5-24.3-17.7-30.4-6.1-2.8-17.4-3.9-23.7-2.3m20.7 2.6c5.8 2 14.7 10 17.5 15.7 4.1 8.5 2.1 18.1-4.5 21.2-4.3 2-6 1.9-11.9-.9-6.1-2.8-12-9-20.6-21.5-3.5-5.2-6.8-10-7.4-10.7-1.2-1.7-.6-2.3 4.2-3.9 5.2-1.9 16.9-1.8 22.7.1m21.1-70.1c-1.4 1.3-2.5 3.6-2.5 5 0 3.1 4.1 7.5 7 7.5s7.7-2.7 9-4.9c1.6-3 1.2-5-1.5-7.6-3.3-3.4-8.7-3.4-12 0m10.6 1.4c3.3 3.4 3 5.5-1.2 7.6-4.3 2.3-7.6 1.9-9.5-1-2.7-4.2.7-9.2 6.4-9.4.8-.1 2.7 1.2 4.3 2.8m-271.6-.4c-3.1 3-3.2 5.6-.1 9.1 4.6 5.4 13.6 2.6 13.6-4.3 0-3.4-4.2-7.3-8-7.3-1.9 0-4 .9-5.5 2.5m11.3 2.8c2.5 5.1-2.8 9.4-8.4 6.8-4.6-2.1-4.4-8.2.3-9.9 3.7-1.2 6.5-.1 8.1 3.1M586 381.2c-29.8 25.2-35 30.8-42 45.1-5.6 11.3-8 21.7-8.1 34.4 0 5.7-.4 10.3-.9 10.3-.4 0-2.1-.7-3.6-1.5-9.6-5-24.4 2.2-31.2 15-2.4 4.5-2.7 6.1-2.7 15 0 11.9 1.9 16.8 9.8 25.2 9.1 9.6 19 13.7 33.2 13.6 10.7 0 17.9-1.9 29-7.6 9.2-4.8 18-13 21.2-19.8 3.7-7.8 4.3-14.9 4.3-48 0-21.8.3-32 1.1-32.5 2.9-1.8 3.4 2 4 31.4.8 32.9 1.7 39.2 7.1 49.4 6.3 11.8 22.2 22.7 38.3 26.3 10.5 2.4 26.8 1.7 34.7-1.4 8-3.1 15.7-10.4 19.4-18.3 2.7-5.8 2.9-7.2 2.9-17.3-.1-12.3-1.1-15.7-6.5-21.9-4.8-5.4-10.3-7.9-17.5-8-6.8 0-11 1.8-15.2 6.4-1.4 1.7-3 3-3.5 3-.4 0-.8-5.3-.8-11.8-.1-27.7-6.1-42.3-25.5-61.7-16.1-16.1-35.1-33.5-36.7-33.4-.7 0-5.6 3.6-10.8 8.1m30.3 11.3c10.5 9.6 21.4 20 24 23.2 6.4 7.7 13.1 21.4 15.3 31 1.8 8 2.4 28.5 1.4 47.1l-.5 8.3 3.3 3c2.4 2.1 4.2 2.9 7.1 2.9 4.3 0 9.1-3.1 9.1-5.8-.1-1.3-.6-1-2.1 1-1.1 1.4-3.3 2.9-4.9 3.3-3.3.7-8.4-1.5-10-4.4-1.5-2.9-1.2-11.6.5-15.8 5.5-13.1 16.8-17.6 28.6-11.5 7.2 3.7 11.3 9.8 13 19.2 2.2 12.4-1.2 23.8-9.7 32.6-22.6 23.2-76.4 8.2-86.4-24.2-2.5-8.2-4-27.2-4-51.1 0-10-.4-19.3-1-20.7-1.1-2.9-4.4-3.5-5.4-1-.3.9-.6 15.1-.6 31.7 0 32.7-.7 40.5-4.6 48.4-5.1 10.6-20.9 21.9-36 25.7-21.9 5.6-42.9-3.4-52.2-22.4-2.3-4.7-2.7-6.7-2.6-13.5.2-14.6 8.1-25.6 21.2-29.6 5.5-1.6 11.1 0 14.6 4.2 3.1 3.6 6.6 14.5 6.6 20.4 0 5.1-3.3 10.4-7.2 11.7-3.4 1.2-7.9-.8-9.3-4-.9-2-2.5-3.1-2.5-1.6 0 1.2 2.4 5 3.9 6.1 3.9 3 12.7.6 14.9-4.2 2-4.3 1.4-13.5-1.4-22.6-2.3-7.6-2.5-9.6-2.1-20.4.4-9.9 1-13.6 3.5-21.2 6.3-18.5 15-29.6 40.1-50.5 8.5-7 15.6-12.8 15.8-12.8s9 7.9 19.6 17.5"/><path d="M591.6 405.1c-3.6 2.9-7.2 9.4-8.5 15.7-.6 3.1-1.1 16.9-1.1 33.5 0 15.5-.5 31.1-1.1 34.7-2.1 13.4-9 22.8-20.9 28.4-12.1 5.7-29.1 4.7-38.8-2.4-7.2-5.2-10.2-14.3-6.7-21 2-3.9 6.2-7 9.5-7 3.9 0 8 4.1 8.1 8.2 0 2.6.2 2.9.8 1.4 2-5-2.4-10.7-8.3-10.9-9.6-.3-16 10.7-12.1 20.8 4.7 12.3 22.6 19.1 39.8 15.1 16-3.8 25.7-12.9 29.1-27.6 1.2-5 1.6-13 1.6-35.6 0-16.5.5-31.6 1.1-35 1.4-7.6 5.4-14.9 9.5-17.5 3-1.8 3.6-1.9 6.1-.6 3.6 1.9 5.5 4.1 8.2 9.4 2.9 5.9 3.9 14.5 4.5 41.8.4 13.2 1.1 26.8 1.6 30.3 2.2 13.2 7.3 22.4 16.3 29.2 7.8 5.9 13.5 7.5 26.7 7.5 12.3-.1 15.7-1 23.2-6.2 11.3-7.8 9.7-28.3-2.3-29.3-4.6-.4-6 0-8.4 2.5-2.5 2.4-3.4 6.5-1.5 6.5.6 0 1-.9 1-2 0-1 1-2.8 2.2-4 7.1-6.6 18.1 4.4 14.9 15-2.5 8.4-10.6 14.1-22.8 16-18.8 2.9-36-5.6-43.4-21.4-4-8.6-5.9-19.4-6-34.4 0-21.5-1.5-44.4-3.2-49-4.2-12-12.5-17.3-19.1-12.1m131.7 75.5c-2.1.9-1.4 3.3 1.1 4 4.3 1.1 8.1.1 8.1-2.1 0-1.6-.7-2-4-2.2-2.2-.1-4.6 0-5.2.3m7.5 1.6c-.3.7-1.7 1.3-3.3 1.3s-3-.6-3.2-1.3c-.3-.8.7-1.2 3.2-1.2s3.5.4 3.3 1.2m-6.8 14.7c0 1.1 5.5 3.1 8.7 3.1 1.8 0 2.4-.5 2.1-1.7-.2-1-1.1-1.8-2.1-1.9-1.2-.1-1.3-.1-.2.3 2.1.6 1.9 2.3-.4 2.3-2.8 0-5.2-1.1-4.5-2.1.3-.5-.4-.9-1.5-.9-1.2 0-2.1.4-2.1.9m-1.4 16c-1 1.6.2 3.1 4 4.7 4.2 1.8 6.4 1.8 6.4.1 0-3.3-8.9-7.3-10.4-4.8m6.6 1.7c2 1 2.7 1.9 2 2.6-1.2 1.2-7.5-1.8-6.7-3.2.8-1.3 1.1-1.3 4.7.6m-9.2 16.3c0 1.1 6.7 7.1 8 7.1 2.1 0 .8-4-1.9-5.9-3-2.2-6.1-2.8-6.1-1.2m6 2.6c1.3 1.4 1.9 2.5 1.4 2.5-1.4 0-5.4-3-5.4-4.1 0-1.6 1.6-1 4 1.6m-256-.5c-3.6 2.7-1.7 3.6 2.4 1 2-1.2 3.6-2.4 3.6-2.6 0-1.1-3.8-.1-6 1.6m9.6 4.9c-.9 1.6-1.6 3.6-1.6 4.3.1.7 1-.4 2.1-2.5 1.1-2.2 1.8-4.1 1.5-4.4-.2-.3-1.2.9-2 2.6"/></g><path fill="#555" d="M537.8 275.7c1.2.2 3.2.2 4.5 0 1.2-.2.2-.4-2.3-.4s-3.5.2-2.2.4m1 2c1.2.2 3 .2 4 0 .9-.3-.1-.5-2.3-.4-2.2 0-3 .2-1.7.4m10 1c.7.3 1.6.2 1.9-.1.4-.3-.2-.6-1.3-.5-1.1 0-1.4.3-.6.6m99 1c.7.3 1.6.2 1.9-.1.4-.3-.2-.6-1.3-.5-1.1 0-1.4.3-.6.6m51.1 3-2.4 2.8 2.8-2.4c1.5-1.4 2.7-2.6 2.7-2.8 0-.8-.8-.1-3.1 2.4m39.1.8c1.3 1.4 2.6 2.5 2.8 2.5.3 0-.5-1.1-1.8-2.5s-2.6-2.5-2.8-2.5c-.3 0 .5 1.1 1.8 2.5m-248 1c1.3 1.4 2.6 2.5 2.8 2.5.3 0-.5-1.1-1.8-2.5s-2.6-2.5-2.8-2.5c-.3 0 .5 1.1 1.8 2.5m210.4-.3-1.9 2.3 2.3-1.9c2.1-1.8 2.7-2.6 1.9-2.6-.2 0-1.2 1-2.3 2.2m34.6-.8c0 .2.8 1 1.8 1.7 1.5 1.3 1.6 1.2.3-.4s-2.1-2.1-2.1-1.3m-164 2.9c0 .2 1.5 1.6 3.3 3.3l3.2 2.9-2.9-3.3c-2.8-3-3.6-3.7-3.6-2.9m1 4.2c1.3 1.4 2.6 2.5 2.8 2.5.3 0-.5-1.1-1.8-2.5s-2.6-2.5-2.8-2.5c-.3 0 .5 1.1 1.8 2.5m113.5-.5c1 1.1 2 2 2.3 2s-.3-.9-1.3-2-2-2-2.3-2 .3.9 1.3 2m-205 4c1 1.1 2 2 2.3 2s-.3-.9-1.3-2-2-2-2.3-2 .3.9 1.3 2m235.8-1.3c.9.2 2.5.2 3.5 0 .9-.3.1-.5-1.8-.5s-2.7.2-1.7.5M478 294.4c0 .2.8 1 1.8 1.7 1.5 1.3 1.6 1.2.3-.4s-2.1-2.1-2.1-1.3m238.3.3c.9.2 2.5.2 3.5 0 .9-.3.1-.5-1.8-.5s-2.7.2-1.7.5m-68.5 1c.7.3 1.6.2 1.9-.1.4-.3-.2-.6-1.3-.5-1.1 0-1.4.3-.6.6m42.9.4c.7.7 1.5 1 1.8.7s-.2-.9-1.2-1.2c-1.4-.6-1.5-.5-.6.5m3.6 3.9c0 2.5.2 3.5.4 2.2.2-1.2.2-3.2 0-4.5-.2-1.2-.4-.2-.4 2.3m-197.1 0c0 1.4.2 1.9.5 1.2.2-.6.2-1.8 0-2.5-.3-.6-.5-.1-.5 1.3m111.7-.3c-1.3 1.6-1.2 1.7.4.4.9-.7 1.7-1.5 1.7-1.7 0-.8-.8-.3-2.1 1.3m-18.9-.3c0 .2.8 1 1.8 1.7 1.5 1.3 1.6 1.2.3-.4s-2.1-2.1-2.1-1.3m20.4 1.8-1.9 2.3 2.3-1.9c2.1-1.8 2.7-2.6 1.9-2.6-.2 0-1.2 1-2.3 2.2m-170.3.4c0 1.1.3 1.4.6.6.3-.7.2-1.6-.1-1.9-.3-.4-.6.2-.5 1.3m44 0c0 1.1.3 1.4.6.6.3-.7.2-1.6-.1-1.9-.3-.4-.6.2-.5 1.3m104.9-.2c0 .2.8 1 1.8 1.7 1.5 1.3 1.6 1.2.3-.4s-2.1-2.1-2.1-1.3m13.9 4.3-3.4 3.8 3.8-3.4c3.4-3.3 4.2-4.1 3.4-4.1-.2 0-1.9 1.7-3.8 3.7m108.9 0c.6.2 1.8.2 2.5 0 .6-.3.1-.5-1.3-.5s-1.9.2-1.2.5m-108.4 2.5-1.9 2.3 2.3-1.9c2.1-1.8 2.7-2.6 1.9-2.6-.2 0-1.2 1-2.3 2.2M453.3 311c0 2.5.2 3.5.4 2.2.2-1.2.2-3.2 0-4.5-.2-1.2-.4-.2-.4 2.3m2-.5c0 2.2.2 3 .4 1.7.2-1.2.2-3 0-4-.3-.9-.5.1-.4 2.3m290.8.1c0 1.1.3 1.4.6.6.3-.7.2-1.6-.1-1.9-.3-.4-.6.2-.5 1.3M548.5 312c1 1.1 2 2 2.3 2s-.3-.9-1.3-2-2-2-2.3-2 .3.9 1.3 2m183.6.6c0 1.1.3 1.4.6.6.3-.7.2-1.6-.1-1.9-.3-.4-.6.2-.5 1.3m-201.2 1.1c-1.3 1.6-1.2 1.7.4.4.9-.7 1.7-1.5 1.7-1.7 0-.8-.8-.3-2.1 1.3m62.8.4c.7.7 1.5 1 1.8.7s-.2-.9-1.2-1.2c-1.4-.6-1.5-.5-.6.5m47.2.6c-1.3 1.6-1.2 1.7.4.4.9-.7 1.7-1.5 1.7-1.7 0-.8-.8-.3-2.1 1.3m-71.9.2c0 .6.4 1.3 1 1.6s.7-.1.4-.9c-.7-1.8-1.4-2.1-1.4-.7m26.9 1.8c-1.3 1.6-1.2 1.7.4.4.9-.7 1.7-1.5 1.7-1.7 0-.8-.8-.3-2.1 1.3m83.3 1.8c0 1.6.2 2.2.5 1.2.2-.9.2-2.3 0-3-.3-.6-.5.1-.5 1.8m27.6-1.8c.6.2 1.8.2 2.5 0 .6-.3.1-.5-1.3-.5s-1.9.2-1.2.5m-95.9 2c-1.3 1.6-1.2 1.7.4.4s2.1-2.1 1.3-2.1c-.2 0-1 .8-1.7 1.7m70.4 2.8c0 2.2.2 3 .4 1.7.2-1.2.2-3 0-4-.3-.9-.5.1-.4 2.3m-69.4-.8c-1.3 1.6-1.2 1.7.4.4.9-.7 1.7-1.5 1.7-1.7 0-.8-.8-.3-2.1 1.3m-134.1 0c.7.3 1.6.2 1.9-.1.4-.3-.2-.6-1.3-.5-1.1 0-1.4.3-.6.6m29.1 3.5c-.3 2.2-.1 3.4.4 2.9s.7-2.1.5-3.7c-.3-2.7-.4-2.6-.9.8m2.4.3c0 2.2.2 3 .4 1.7.2-1.2.2-3 0-4-.3-.9-.5.1-.4 2.3m215.1-1.3-1.9 2.3 2.3-1.9c2.1-1.8 2.7-2.6 1.9-2.6-.2 0-1.2 1-2.3 2.2m13.5-.5c-1.3 1.6-1.2 1.7.4.4.9-.7 1.7-1.5 1.7-1.7 0-.8-.8-.3-2.1 1.3M586 324.5c1.3 1.4 2.6 2.5 2.8 2.5.3 0-.5-1.1-1.8-2.5s-2.6-2.5-2.8-2.5c-.3 0 .5 1.1 1.8 2.5m79.1.1c0 1.1.3 1.4.6.6.3-.7.2-1.6-.1-1.9-.3-.4-.6.2-.5 1.3m60.3.6-1.9 2.3 2.3-1.9c2.1-1.8 2.7-2.6 1.9-2.6-.2 0-1.2 1-2.3 2.2m12 1-2.9 3.3 3.3-2.9c3-2.8 3.7-3.6 2.9-3.6-.2 0-1.6 1.5-3.3 3.2m-275.9-.2c1 1.1 2 2 2.3 2s-.3-.9-1.3-2-2-2-2.3-2 .3.9 1.3 2m272.4.7c-1.3 1.6-1.2 1.7.4.4s2.1-2.1 1.3-2.1c-.2 0-1 .8-1.7 1.7m-274.9-.3c0 .2.8 1 1.8 1.7 1.5 1.3 1.6 1.2.3-.4s-2.1-2.1-2.1-1.3m-8.5 2.6c1 1.1 2 2 2.3 2s-.3-.9-1.3-2-2-2-2.3-2 .3.9 1.3 2m-2 1c1 1.1 2 2 2.3 2s-.3-.9-1.3-2-2-2-2.3-2 .3.9 1.3 2m215.8 5.5c0 3.8.2 5.3.4 3.2.2-2 .2-5.2 0-7-.2-1.7-.4-.1-.4 3.8m-106.5-4.8c.6.2 1.8.2 2.5 0 .6-.3.1-.5-1.3-.5s-1.9.2-1.2.5m-83 2c.7.3 1.6.2 1.9-.1.4-.3-.2-.6-1.3-.5-1.1 0-1.4.3-.6.6m83 0c1.2.2 3 .2 4 0 .9-.3-.1-.5-2.3-.4-2.2 0-3 .2-1.7.4m74 0c.7.3 1.6.2 1.9-.1.4-.3-.2-.6-1.3-.5-1.1 0-1.4.3-.6.6m22.4 1.3c0 1.4.2 1.9.5 1.2.2-.6.2-1.8 0-2.5-.3-.6-.5-.1-.5 1.3m11.9-.4c0 1.1.3 1.4.6.6.3-.7.2-1.6-.1-1.9-.3-.4-.6.2-.5 1.3m-142.8 3.9c0 2.7.2 3.8.4 2.2.2-1.5.2-3.7 0-5-.2-1.2-.4 0-.4 2.8m-48.5-2.8c.7.3 1.6.2 1.9-.1.4-.3-.2-.6-1.3-.5-1.1 0-1.4.3-.6.6m58.5 5.3c0 3 .2 4.3.4 2.7.2-1.5.2-3.9 0-5.5-.2-1.5-.4-.2-.4 2.8m-12.4-1.2c-.3 2-.2 2.9.4 2.3.5-.5.7-1.9.5-3.2-.3-2-.5-1.9-.9.9m21.2-.2c0 1.1.3 1.4.6.6.3-.7.2-1.6-.1-1.9-.3-.4-.6.2-.5 1.3m2 2c0 1.1.3 1.4.6.6.3-.7.2-1.6-.1-1.9-.3-.4-.6.2-.5 1.3m110 1c0 1.1.3 1.4.6.6.3-.7.2-1.6-.1-1.9-.3-.4-.6.2-.5 1.3m71.7 1.1c.7.3 1.6.2 1.9-.1.4-.3-.2-.6-1.3-.5-1.1 0-1.4.3-.6.6m-209 1c1.2.2 3 .2 4 0 .9-.3-.1-.5-2.3-.4-2.2 0-3 .2-1.7.4m151.5 0c1.5.2 3.9.2 5.5 0 1.5-.2.2-.4-2.8-.4s-4.3.2-2.7.4m-200.3.7c0 .2.8 1 1.8 1.7 1.5 1.3 1.6 1.2.3-.4s-2.1-2.1-2.1-1.3m144.2 2.1c0 1.6.2 2.2.5 1.2.2-.9.2-2.3 0-3-.3-.6-.5.1-.5 1.8m2 .5c0 1.9.2 2.7.5 1.7.2-.9.2-2.5 0-3.5-.3-.9-.5-.1-.5 1.8m20.1-2.3c.9.2 2.5.2 3.5 0 .9-.3.1-.5-1.8-.5s-2.7.2-1.7.5m-192.1 2.8c0 1.6.2 2.2.5 1.2.2-.9.2-2.3 0-3-.3-.6-.5.1-.5 1.8m2 0c0 1.6.2 2.2.5 1.2.2-.9.2-2.3 0-3-.3-.6-.5.1-.5 1.8m109.6-1.8c.6.2 1.8.2 2.5 0 .6-.3.1-.5-1.3-.5s-1.9.2-1.2.5m-7 1c.7.3 1.6.2 1.9-.1.4-.3-.2-.6-1.3-.5-1.1 0-1.4.3-.6.6m87.5 0c1.5.2 3.9.2 5.5 0 1.5-.2.2-.4-2.8-.4s-4.3.2-2.7.4m84.8 1.9c0 1.1.3 1.4.6.6.3-.7.2-1.6-.1-1.9-.3-.4-.6.2-.5 1.3m-6 3c0 1.1.3 1.4.6.6.3-.7.2-1.6-.1-1.9-.3-.4-.6.2-.5 1.3m-254.1-.2c0 .2.8 1 1.8 1.7 1.5 1.3 1.6 1.2.3-.4s-2.1-2.1-2.1-1.3m261 0c0 .2.8 1 1.8 1.7 1.5 1.3 1.6 1.2.3-.4s-2.1-2.1-2.1-1.3m-81.2 1.3c1.2.2 3.2.2 4.5 0 1.2-.2.2-.4-2.3-.4s-3.5.2-2.2.4m-66.4 2.5-1.9 2.3 2.3-1.9c1.2-1.1 2.2-2.1 2.2-2.3 0-.8-.8-.2-2.6 1.9m66.9-.5c.9.2 2.5.2 3.5 0 .9-.3.1-.5-1.8-.5s-2.7.2-1.7.5m30 0c1.5.2 3.7.2 5 0 1.2-.2 0-.4-2.8-.4-2.7 0-3.8.2-2.2.4M475.2 358c0 1.9.2 2.7.5 1.7.2-.9.2-2.5 0-3.5-.3-.9-.5-.1-.5 1.8m2 0c0 1.9.2 2.7.5 1.7.2-.9.2-2.5 0-3.5-.3-.9-.5-.1-.5 1.8m124.8-.5c1.3 1.4 2.6 2.5 2.8 2.5.3 0-.5-1.1-1.8-2.5s-2.6-2.5-2.8-2.5c-.3 0 .5 1.1 1.8 2.5m111.2.5c0 1.4.2 1.9.5 1.2.2-.6.2-1.8 0-2.5-.3-.6-.5-.1-.5 1.3m-53.3 1.7c-1.3 1.6-1.2 1.7.4.4.9-.7 1.7-1.5 1.7-1.7 0-.8-.8-.3-2.1 1.3m-108.1 2c.7.3 1.6.2 1.9-.1.4-.3-.2-.6-1.3-.5-1.1 0-1.4.3-.6.6m82 1c.7.3 1.6.2 1.9-.1.4-.3-.2-.6-1.3-.5-1.1 0-1.4.3-.6.6m-82 1c.7.3 1.6.2 1.9-.1.4-.3-.2-.6-1.3-.5-1.1 0-1.4.3-.6.6m-19.7 1.9c0 1.1.3 1.4.6.6.3-.7.2-1.6-.1-1.9-.3-.4-.6.2-.5 1.3m102.7-.9c.7.3 1.6.2 1.9-.1.4-.3-.2-.6-1.3-.5-1.1 0-1.4.3-.6.6m22.4 1.8c0 1.6.2 2.2.5 1.2.2-.9.2-2.3 0-3-.3-.6-.5.1-.5 1.8m-163.2.9c0 .2.8 1 1.8 1.7 1.5 1.3 1.6 1.2.3-.4s-2.1-2.1-2.1-1.3m31.2 2.1c0 1.6.2 2.2.5 1.2.2-.9.2-2.3 0-3-.3-.6-.5.1-.5 1.8m18.9-.9c0 1.1.3 1.4.6.6.3-.7.2-1.6-.1-1.9-.3-.4-.6.2-.5 1.3m120.2 3.9c0 2.2.2 3 .4 1.7.2-1.2.2-3 0-4-.3-.9-.5.1-.4 2.3m-48.8.5c1 1.1 2 2 2.3 2s-.3-.9-1.3-2-2-2-2.3-2 .3.9 1.3 2m3 0c1 1.1 2 2 2.3 2s-.3-.9-1.3-2-2-2-2.3-2 .3.9 1.3 2m43.4.8c-.3 2-.2 2.9.4 2.3.5-.5.7-1.9.5-3.2-.3-2-.5-1.9-.9.9m-152.1-1.1c.7.3 1.6.2 1.9-.1.4-.3-.2-.6-1.3-.5-1.1 0-1.4.3-.6.6m207.1 3c-1.3 1.6-1.2 1.7.4.4.9-.7 1.7-1.5 1.7-1.7 0-.8-.8-.3-2.1 1.3m5.9-1c.7.3 1.6.2 1.9-.1.4-.3-.2-.6-1.3-.5-1.1 0-1.4.3-.6.6m-264.9 3c-1.3 1.6-1.2 1.7.4.4.9-.7 1.7-1.5 1.7-1.7 0-.8-.8-.3-2.1 1.3m135 0c-1.3 1.6-1.2 1.7.4.4s2.1-2.1 1.3-2.1c-.2 0-1 .8-1.7 1.7m151.2-.1c0 1.1.3 1.4.6.6.3-.7.2-1.6-.1-1.9-.3-.4-.6.2-.5 1.3m-215.2 1.1c-1.3 1.6-1.2 1.7.4.4.9-.7 1.7-1.5 1.7-1.7 0-.8-.8-.3-2.1 1.3m144.2-.1c0 1.1.3 1.4.6.6.3-.7.2-1.6-.1-1.9-.3-.4-.6.2-.5 1.3M439.2 381c0 1.4.2 1.9.5 1.2.2-.6.2-1.8 0-2.5-.3-.6-.5-.1-.5 1.3m124.7-.3c-1.3 1.6-1.2 1.7.4.4.9-.7 1.7-1.5 1.7-1.7 0-.8-.8-.3-2.1 1.3m135.6 2.5-4 4.3 4.3-4c2.3-2.1 4.2-4 4.2-4.2 0-.8-.9 0-4.5 3.9m-258.4-1.6c0 1.1.3 1.4.6.6.3-.7.2-1.6-.1-1.9-.3-.4-.6.2-.5 1.3m124.8.1c-1.3 1.6-1.2 1.7.4.4.9-.7 1.7-1.5 1.7-1.7 0-.8-.8-.3-2.1 1.3m-91.7 1.8c0 1.6.2 2.2.5 1.2.2-.9.2-2.3 0-3-.3-.6-.5.1-.5 1.8m12.8-1.2c0 .2 1.5 1.6 3.3 3.3l3.2 2.9-2.9-3.3c-2.8-3-3.6-3.7-3.6-2.9m140.5 1.7c1 1.1 2 2 2.3 2s-.3-.9-1.3-2-2-2-2.3-2 .3.9 1.3 2m1.5-1.6c0 .2.8 1 1.8 1.7 1.5 1.3 1.6 1.2.3-.4s-2.1-2.1-2.1-1.3M488.5 387c1 1.1 2 2 2.3 2s-.3-.9-1.3-2-2-2-2.3-2 .3.9 1.3 2m121 0c1 1.1 2 2 2.3 2s-.3-.9-1.3-2-2-2-2.3-2 .3.9 1.3 2m1.5-1.6c0 .2.8 1 1.8 1.7 1.5 1.3 1.6 1.2.3-.4s-2.1-2.1-2.1-1.3m37 0c0 .2.8 1 1.8 1.7 1.5 1.3 1.6 1.2.3-.4s-2.1-2.1-2.1-1.3m-92.6 2.8-1.9 2.3 2.3-1.9c1.2-1.1 2.2-2.1 2.2-2.3 0-.8-.8-.2-2.6 1.9m2 1-1.9 2.3 2.3-1.9c1.2-1.1 2.2-2.1 2.2-2.3 0-.8-.8-.2-2.6 1.9M444 390.4c0 .2.8 1 1.8 1.7 1.5 1.3 1.6 1.2.3-.4s-2.1-2.1-2.1-1.3m287.8 1.3c.7.3 1.6.2 1.9-.1.4-.3-.2-.6-1.3-.5-1.1 0-1.4.3-.6.6M444.5 394c1 1.1 2 2 2.3 2s-.3-.9-1.3-2-2-2-2.3-2 .3.9 1.3 2m175.5-.6c0 .2.8 1 1.8 1.7 1.5 1.3 1.6 1.2.3-.4s-2.1-2.1-2.1-1.3m-2 1c0 .2.8 1 1.8 1.7 1.5 1.3 1.6 1.2.3-.4s-2.1-2.1-2.1-1.3m81.8.3c.7.3 1.6.2 1.9-.1.4-.3-.2-.6-1.3-.5-1.1 0-1.4.3-.6.6m-210 1c.7.3 1.6.2 1.9-.1.4-.3-.2-.6-1.3-.5-1.1 0-1.4.3-.6.6m-36 1c.7.3 1.6.2 1.9-.1.4-.3-.2-.6-1.3-.5-1.1 0-1.4.3-.6.6m36 1c.7.3 1.6.2 1.9-.1.4-.3-.2-.6-1.3-.5-1.1 0-1.4.3-.6.6m55.1 1c-1.3 1.6-1.2 1.7.4.4.9-.7 1.7-1.5 1.7-1.7 0-.8-.8-.3-2.1 1.3m19.5.5-1.9 2.3 2.3-1.9c1.2-1.1 2.2-2.1 2.2-2.3 0-.8-.8-.2-2.6 1.9m3.5-.5c-1.3 1.6-1.2 1.7.4.4.9-.7 1.7-1.5 1.7-1.7 0-.8-.8-.3-2.1 1.3m-113.9-.3c0 .2 1.1.6 2.5.8 1.3.3 2.2.1 1.9-.3-.5-.9-4.4-1.3-4.4-.5m91.9 2.3c-1.3 1.6-1.2 1.7.4.4s2.1-2.1 1.3-2.1c-.2 0-1 .8-1.7 1.7m-91.5 2.5-1.9 2.3 2.3-1.9c2.1-1.8 2.7-2.6 1.9-2.6-.2 0-1.2 1-2.3 2.2m2 1-2.9 3.3 3.3-2.9c1.7-1.7 3.2-3.1 3.2-3.3 0-.8-.8-.1-3.6 2.9m69.1-.3 2 .8-2 .6-2 .6 2-.2c2.4-.3 2.3-2.1-.2-2.4-1.5-.2-1.4-.1.2.6m106.5 3.3c4.1 4.5 5 5.3 5 4.5 0-.2-2.1-2.3-4.7-4.7l-4.8-4.5zm2-.7c1.9 1.9 3.6 3.5 3.9 3.5s-1-1.6-2.9-3.5-3.6-3.5-3.9-3.5 1 1.6 2.9 3.5m-167.6.7-1.9 2.3 2.3-1.9c1.2-1.1 2.2-2.1 2.2-2.3 0-.8-.8-.2-2.6 1.9m1.5 1.5-2.4 2.8 2.8-2.4c1.5-1.4 2.7-2.6 2.7-2.8 0-.8-.8-.1-3.1 2.4m87 0c-1.3 1.6-1.2 1.7.4.4.9-.7 1.7-1.5 1.7-1.7 0-.8-.8-.3-2.1 1.3m-57.1 1c.7.3 1.6.2 1.9-.1.4-.3-.2-.6-1.3-.5-1.1 0-1.4.3-.6.6m196 1c.7.3 1.6.2 1.9-.1.4-.3-.2-.6-1.3-.5-1.1 0-1.4.3-.6.6m0 2c.7.3 1.6.2 1.9-.1.4-.3-.2-.6-1.3-.5-1.1 0-1.4.3-.6.6m-111.7 9.9c0 1.1.3 1.4.6.6.3-.7.2-1.6-.1-1.9-.3-.4-.6.2-.5 1.3m28 1c0 1.1.3 1.4.6.6.3-.7.2-1.6-.1-1.9-.3-.4-.6.2-.5 1.3m-105.7 2.6-1.9 2.3 2.3-1.9c1.2-1.1 2.2-2.1 2.2-2.3 0-.8-.8-.2-2.6 1.9m-61.3.4c0 1.1.3 1.4.6.6.3-.7.2-1.6-.1-1.9-.3-.4-.6.2-.5 1.3m2 0c0 1.1.3 1.4.6.6.3-.7.2-1.6-.1-1.9-.3-.4-.6.2-.5 1.3m302.2 4.9c0 3.8.2 5.3.4 3.2.2-2 .2-5.2 0-7-.2-1.7-.4-.1-.4 3.8m2 0c0 3.3.2 4.5.4 2.7s.2-4.5 0-6-.4 0-.4 3.3m-166-.5c0 2.5.2 3.5.4 2.2.2-1.2.2-3.2 0-4.5-.2-1.2-.4-.2-.4 2.3m-87.4.7-3.4 3.8 3.8-3.4c2-1.9 3.7-3.6 3.7-3.8 0-.8-.8 0-4.1 3.4m115.3.3c0 1.9.2 2.7.5 1.7.2-.9.2-2.5 0-3.5-.3-.9-.5-.1-.5 1.8m-17.8 21.5c0 12.1.2 16.9.3 10.7.2-6.2.2-16.1 0-22-.1-5.9-.3-.8-.3 11.3m19.9-13.5c0 4.7.2 6.6.4 4.2.2-2.3.2-6.1 0-8.5-.2-2.3-.4-.4-.4 4.3m-31.9 19c0 14.6.2 20.5.3 13.2.2-7.2.2-19.2 0-26.5-.1-7.2-.3-1.3-.3 13.3m20-3c0 10.7.2 15.1.3 9.7.2-5.3.2-14.1 0-19.5-.1-5.3-.3-.9-.3 9.8m-158.3-15.4c0 1.1.3 1.4.6.6.3-.7.2-1.6-.1-1.9-.3-.4-.6.2-.5 1.3m2 0c0 1.1.3 1.4.6.6.3-.7.2-1.6-.1-1.9-.3-.4-.6.2-.5 1.3m239.9-1.2c0 .2.8 1 1.8 1.7 1.5 1.3 1.6 1.2.3-.4s-2.1-2.1-2.1-1.3m49.1 1.2c0 1.1.3 1.4.6.6.3-.7.2-1.6-.1-1.9-.3-.4-.6.2-.5 1.3M475 446.4c0 .2.8 1 1.8 1.7 1.5 1.3 1.6 1.2.3-.4s-2.1-2.1-2.1-1.3m-1 2c0 .2.8 1 1.8 1.7 1.5 1.3 1.6 1.2.3-.4s-2.1-2.1-2.1-1.3m10.3 3.3c.9.2 2.3.2 3 0 .6-.3-.1-.5-1.8-.5-1.6 0-2.2.2-1.2.5m171.8.9c0 1.1.3 1.4.6.6.3-.7.2-1.6-.1-1.9-.3-.4-.6.2-.5 1.3m2.1.4c0 1.4.2 1.9.5 1.2.2-.6.2-1.8 0-2.5-.3-.6-.5-.1-.5 1.3m48.1-1.3c.9.2 2.3.2 3 0 .6-.3-.1-.5-1.8-.5-1.6 0-2.2.2-1.2.5m-221.5 2c.7.3 1.6.2 1.9-.1.4-.3-.2-.6-1.3-.5-1.1 0-1.4.3-.6.6m52.3.9c0 1.1.3 1.4.6.6.3-.7.2-1.6-.1-1.9-.3-.4-.6.2-.5 1.3m169.2-.9c.9.2 2.3.2 3 0 .6-.3-.1-.5-1.8-.5-1.6 0-2.2.2-1.2.5M465.5 456c1 1.1 2 2 2.3 2s-.3-.9-1.3-2-2-2-2.3-2 .3.9 1.3 2m69.8 2c0 2.5.2 3.5.4 2.2.2-1.2.2-3.2 0-4.5-.2-1.2-.4-.2-.4 2.3m122 7c0 3 .2 4.3.4 2.7.2-1.5.2-3.9 0-5.5-.2-1.5-.4-.2-.4 2.8m-122 2.5c0 2.2.2 3 .4 1.7.2-1.2.2-3 0-4-.3-.9-.5.1-.4 2.3m77 3c0 3.8.2 5.3.4 3.2.2-2 .2-5.2 0-7-.2-1.7-.4-.1-.4 3.8m93-4.8c.9.2 2.3.2 3 0 .6-.3-.1-.5-1.8-.5-1.6 0-2.2.2-1.2.5m-182.5 2c.6.2 1.8.2 2.5 0 .6-.3.1-.5-1.3-.5s-1.9.2-1.2.5m136.5 4.3c0 3 .2 4.3.4 2.7.2-1.5.2-3.9 0-5.5-.2-1.5-.4-.2-.4 2.8m44.2-2c1 1.1 2 2 2.3 2s-.3-.9-1.3-2-2-2-2.3-2 .3.9 1.3 2m40.5-1.6c0 .2.8 1 1.8 1.7 1.5 1.3 1.6 1.2.3-.4s-2.1-2.1-2.1-1.3m-221.7 1.3c.9.2 2.5.2 3.5 0 .9-.3.1-.5-1.8-.5s-2.7.2-1.7.5m14.9 1.3c0 1.4.2 1.9.5 1.2.2-.6.2-1.8 0-2.5-.3-.6-.5-.1-.5 1.3m206.3 0c1 1.1 2 2 2.3 2s-.3-.9-1.3-2-2-2-2.3-2 .3.9 1.3 2m-291.6 1.7c-1.3 1.6-1.2 1.7.4.4.9-.7 1.7-1.5 1.7-1.7 0-.8-.8-.3-2.1 1.3m205.4 5.8c0 3.3.2 4.5.4 2.7s.2-4.5 0-6-.4 0-.4 3.3m-151.9-2.3-1.9 2.3 2.3-1.9c2.1-1.8 2.7-2.6 1.9-2.6-.2 0-1.2 1-2.3 2.2m108.8 1.8c0 1.9.2 2.7.5 1.7.2-.9.2-2.5 0-3.5-.3-.9-.5-.1-.5 1.8m79.3 1c1 1.1 2 2 2.3 2s-.3-.9-1.3-2-2-2-2.3-2 .3.9 1.3 2m-227.7.7c.7.3 1.6.2 1.9-.1.4-.3-.2-.6-1.3-.5-1.1 0-1.4.3-.6.6m261 0c.7.3 1.6.2 1.9-.1.4-.3-.2-.6-1.3-.5-1.1 0-1.4.3-.6.6M469.5 481c-.3.6.1.7.9.4 1.8-.7 2.1-1.4.7-1.4-.6 0-1.3.4-1.6 1m130.8 3.5c0 2.2.2 3 .4 1.7.2-1.2.2-3 0-4-.3-.9-.5.1-.4 2.3m-130.8-1.8c-1.1.3-2.4 1-3 1.5-1.2 1.3 3.5 0 5-1.3.5-.5.7-.8.5-.8-.3.1-1.4.3-2.5.6m143.6 1.9c0 1.1.3 1.4.6.6.3-.7.2-1.6-.1-1.9-.3-.4-.6.2-.5 1.3m113.2-.9c.9.2 2.3.2 3 0 .6-.3-.1-.5-1.8-.5-1.6 0-2.2.2-1.2.5m-124.1 3.8c0 1.6.2 2.2.5 1.2.2-.9.2-2.3 0-3-.3-.6-.5.1-.5 1.8m-8.9 3c0 2.2.2 3 .4 1.7.2-1.2.2-3 0-4-.3-.9-.5.1-.4 2.3m83.5-2.8c.7.3 1.6.2 1.9-.1.4-.3-.2-.6-1.3-.5-1.1 0-1.4.3-.6.6m-190.7 2.9c0 1.1.3 1.4.6.6.3-.7.2-1.6-.1-1.9-.3-.4-.6.2-.5 1.3m170 0c0 1.1.3 1.4.6.6.3-.7.2-1.6-.1-1.9-.3-.4-.6.2-.5 1.3M542.3 494c0 2.5.2 3.5.4 2.2.2-1.2.2-3.2 0-4.5-.2-1.2-.4-.2-.4 2.3m159.8-2.4c0 1.1.3 1.4.6.6.3-.7.2-1.6-.1-1.9-.3-.4-.6.2-.5 1.3M473.2 493c0 1.4.2 1.9.5 1.2.2-.6.2-1.8 0-2.5-.3-.6-.5-.1-.5 1.3m58 2c0 1.9.2 2.7.5 1.7.2-.9.2-2.5 0-3.5-.3-.9-.5-.1-.5 1.8m181.9-.4c0 1.1.3 1.4.6.6.3-.7.2-1.6-.1-1.9-.3-.4-.6.2-.5 1.3m2.2 6.9c0 4.4.2 6.1.4 3.7.2-2.3.2-5.9 0-8-.2-2-.4-.1-.4 4.3m-250.6-5.1c-.4.9 0 1.2 1.3.9 1-.3 2.1 0 2.4.6.4.6 1.3 1.1 1.9 1.1.7 0 .4-.5-.6-1.1-.9-.6-1.5-1.4-1.2-2 .4-.5-.3-.9-1.3-.9-1.1 0-2.2.6-2.5 1.4m33.6 3.6c0 3 .2 4.3.4 2.7.2-1.5.2-3.9 0-5.5-.2-1.5-.4-.2-.4 2.8m228.5-4.3c.6.2 1 .8.7 1.3-.3.4.4.6 1.5.3 3.4-.9 3.3-2.3-.2-2.2-1.8 0-2.7.3-2 .6m-230.5 3.8c0 2.2.2 3 .4 1.7.2-1.2.2-3 0-4-.3-.9-.5.1-.4 2.3m205 1.5c0 3 .2 4.3.4 2.7.2-1.5.2-3.9 0-5.5-.2-1.5-.4-.2-.4 2.8m32.2-3.9c-.4.6-.5 1.2-.2 1.5.2.3.7-.2 1-1.1.7-1.7.1-2-.8-.4M594.2 499c0 1.4.2 1.9.5 1.2.2-.6.2-1.8 0-2.5-.3-.6-.5-.1-.5 1.3m109.1 2.5c0 2.2.2 3 .4 1.7.2-1.2.2-3 0-4-.3-.9-.5.1-.4 2.3m-240.5-1.8c.6.2 1.8.2 2.5 0 .6-.3.1-.5-1.3-.5s-1.9.2-1.2.5m223.4 2.3c0 1.9.2 2.7.5 1.7.2-.9.2-2.5 0-3.5-.3-.9-.5-.1-.5 1.8m1.9-.4c0 1.1.3 1.4.6.6.3-.7.2-1.6-.1-1.9-.3-.4-.6.2-.5 1.3M471.2 504c0 1.4.2 1.9.5 1.2.2-.6.2-1.8 0-2.5-.3-.6-.5-.1-.5 1.3m187.8-1.6c0 .2.8 1 1.8 1.7 1.5 1.3 1.6 1.2.3-.4s-2.1-2.1-2.1-1.3m-212 1c0 .2.8 1 1.8 1.7 1.5 1.3 1.6 1.2.3-.4s-2.1-2.1-2.1-1.3m26.1 1.2c0 1.1.3 1.4.6.6.3-.7.2-1.6-.1-1.9-.3-.4-.6.2-.5 1.3m184.9-.2c0 .2.8 1 1.8 1.7 1.5 1.3 1.6 1.2.3-.4s-2.1-2.1-2.1-1.3m15.9 1.3c-1.3 1.6-1.2 1.7.4.4.9-.7 1.7-1.5 1.7-1.7 0-.8-.8-.3-2.1 1.3m-227.9-.3c0 .2.8 1 1.8 1.7 1.5 1.3 1.6 1.2.3-.4s-2.1-2.1-2.1-1.3m84.8 1.3c.7.3 1.6.2 1.9-.1.4-.3-.2-.6-1.3-.5-1.1 0-1.4.3-.6.6m215.1 1c-1.3 1.6-1.2 1.7.4.4s2.1-2.1 1.3-2.1c-.2 0-1 .8-1.7 1.7m-293.3.6c.3 1 .9 1.5 1.2 1.2s0-1.1-.7-1.8c-1-.9-1.1-.8-.5.6m260.5.3c0 1.1.3 1.4.6.6.3-.7.2-1.6-.1-1.9-.3-.4-.6.2-.5 1.3m33.9.9c-1.3 1.4-2.2 2.7-1.9 2.9.2.2 1.4-1 2.7-2.5 2.9-3.6 2.4-3.8-.8-.4m-81.2-.8c.6.2 1.8.2 2.5 0 .6-.3.1-.5-1.3-.5s-1.9.2-1.2.5m-39.3 2.3c1 1.1 2 2 2.3 2s-.3-.9-1.3-2-2-2-2.3-2 .3.9 1.3 2M518 512.5c1.3 1.4 2.6 2.5 2.8 2.5.3 0-.5-1.1-1.8-2.5s-2.6-2.5-2.8-2.5c-.3 0 .5 1.1 1.8 2.5m-50.5-.5c.3.5.8 1 1.1 1 .2 0 .4-.5.4-1 0-.6-.5-1-1.1-1-.5 0-.7.4-.4 1m49 2c1 1.1 2 2 2.3 2s-.3-.9-1.3-2-2-2-2.3-2 .3.9 1.3 2m225.5-1.6c0 .2.8 1 1.8 1.7 1.5 1.3 1.6 1.2.3-.4s-2.1-2.1-2.1-1.3m-271 1c0 .2.7.7 1.6 1 .8.3 1.2.2.9-.4-.6-1-2.5-1.4-2.5-.6m259.5 1.6c-.3.5-.3 1 .1 1s-.1.7-1.2 1.6c-1.8 1.5-1.8 1.5.3.4 2.7-1.2 3.6-2.7 2.4-3.4-.5-.4-1.2-.2-1.6.4m-283.4 3.6c0 1.1.3 1.4.6.6.3-.7.2-1.6-.1-1.9-.3-.4-.6.2-.5 1.3m165.9-1.3c0 .2 1.5 1.6 3.3 3.3l3.2 2.9-2.9-3.3c-2.8-3-3.6-3.7-3.6-2.9m-64.2 3.4c.7.3 1.6.2 1.9-.1.4-.3-.2-.6-1.3-.5-1.1 0-1.4.3-.6.6m64.2-.3c0 .2.8 1 1.8 1.7 1.5 1.3 1.6 1.2.3-.4s-2.1-2.1-2.1-1.3m-107 1c0 .2.8 1 1.8 1.7 1.5 1.3 1.6 1.2.3-.4s-2.1-2.1-2.1-1.3m27.8 1.3c.6.2 1.8.2 2.5 0 .6-.3.1-.5-1.3-.5s-1.9.2-1.2.5m15 0c.7.3 1.6.2 1.9-.1.4-.3-.2-.6-1.3-.5-1.1 0-1.4.3-.6.6m106 0c1.2.2 3 .2 4 0 .9-.3-.1-.5-2.3-.4-2.2 0-3 .2-1.7.4m-149.8.6c0 .2 1.5 1.6 3.3 3.3l3.2 2.9-2.9-3.3c-2.8-3-3.6-3.7-3.6-2.9m-56 1.1c0 .2.8 1 1.8 1.7 1.5 1.3 1.6 1.2.3-.4s-2.1-2.1-2.1-1.3m205.3.3c.9.2 2.3.2 3 0 .6-.3-.1-.5-1.8-.5-1.6 0-2.2.2-1.2.5m36.1 2.5-1.9 2.3 2.3-1.9c1.2-1.1 2.2-2.1 2.2-2.3 0-.8-.8-.2-2.6 1.9m-230.8 1.1c.3 1 .9 1.5 1.2 1.2s0-1.1-.7-1.8c-1-.9-1.1-.8-.5.6m259.9 1.7c-.3.6.1.7.9.4 1.8-.7 2.1-1.4.7-1.4-.6 0-1.3.4-1.6 1m-248.6 1.7c-1.3 1.6-1.2 1.7.4.4s2.1-2.1 1.3-2.1c-.2 0-1 .8-1.7 1.7m4.6-.7c.3.5.8 1 1.1 1 .2 0 .4-.5.4-1 0-.6-.5-1-1.1-1-.5 0-.7.4-.4 1m246.5 1.1c0 .5-.6.7-1.2.3-.9-.5-.8-.2.1.9.8 1 1.6 1.5 1.9 1.2 1-1 1.1-3.5.1-3.5-.5 0-.9.5-.9 1.1m-263.8 4.4c0 1.6.2 2.2.5 1.2.2-.9.2-2.3 0-3-.3-.6-.5.1-.5 1.8m-2 .5c0 1.4.2 1.9.5 1.2.2-.6.2-1.8 0-2.5-.3-.6-.5-.1-.5 1.3m76.6-.3c.7.3 1.6.2 1.9-.1.4-.3-.2-.6-1.3-.5-1.1 0-1.4.3-.6.6m14 0c.7.3 1.6.2 1.9-.1.4-.3-.2-.6-1.3-.5-1.1 0-1.4.3-.6.6m63.2-.3c0 .2.8 1 1.8 1.7 1.5 1.3 1.6 1.2.3-.4s-2.1-2.1-2.1-1.3m47.3 1.3c2 .2 5.4.2 7.5 0 2-.2.3-.4-3.8-.4s-5.8.2-3.7.4m-123.5 1c.6.2 1.8.2 2.5 0 .6-.3.1-.5-1.3-.5s-1.9.2-1.2.5m11 0c.6.2 1.8.2 2.5 0 .6-.3.1-.5-1.3-.5s-1.9.2-1.2.5m112.5 1c2 .2 5.4.2 7.5 0 2-.2.3-.4-3.8-.4s-5.8.2-3.7.4m55.8 3.9c0 1.1.3 1.4.6.6.3-.7.2-1.6-.1-1.9-.3-.4-.6.2-.5 1.3m-255.1-.2c0 .2.8 1 1.8 1.7 1.5 1.3 1.6 1.2.3-.4s-2.1-2.1-2.1-1.3m8.3 2.3c.9.2 2.3.2 3 0 .6-.3-.1-.5-1.8-.5-1.6 0-2.2.2-1.2.5m-.5 2c.6.2 1.8.2 2.5 0 .6-.3.1-.5-1.3-.5s-1.9.2-1.2.5m266.5 4c.9.2 2.5.2 3.5 0 .9-.3.1-.5-1.8-.5s-2.7.2-1.7.5m-201.5 1c2.8.2 7.6.2 10.5 0 2.8-.2.5-.3-5.3-.3s-8.1.1-5.2.3m123 0c1.2.2 3 .2 4 0 .9-.3-.1-.5-2.3-.4-2.2 0-3 .2-1.7.4m12.5 0c.9.2 2.5.2 3.5 0 .9-.3.1-.5-1.8-.5s-2.7.2-1.7.5m54.5 0c.6.2 1.8.2 2.5 0 .6-.3.1-.5-1.3-.5s-1.9.2-1.2.5m-190 2c2.8.2 7.6.2 10.5 0 2.8-.2.5-.3-5.3-.3s-8.1.1-5.2.3m126 0c2.9.2 7.4.2 10 0s.2-.3-5.3-.3-7.6.1-4.7.3m63.5 0c.9.2 2.3.2 3 0 .6-.3-.1-.5-1.8-.5-1.6 0-2.2.2-1.2.5"/></svg>