<svg xmlns="http://www.w3.org/2000/svg" viewBox="298 213 595 425"><path fill="#d4d4d4" d="m582 275-2 2zl2-3zm22 2 3 3-2-2-3-3zm-67 1h6q2-1-3-1-6 1-3 1m198 0 2 2q1 2 0 0zm-287 5-3 2zl3-3zm159 0q0 2 1 1v-2q-1-1-1 1m-118 1 3 2-2-2-2-2zm212 0q-1 1 0 0l2-2zm38-2 2 2q2 2 0 0zm-165 5 5 5zl-5-5zm-69 0-2 2zl2-3zm181 1 4 4zl-4-3zm-115 1 2 2q1 2 0 0zm146 2h2q1-1-1-1-3 0-1 1m-114 3q-2 2 0 0l2-2zm7 3-3 2zl3-3zm-49-2 2 2q2 2 0 0zm151 2q-2 2 0 0l2-2zm-216 2q0 2 1 1v-2q-1-1-1 1m23 1-3 3zl3-4zm74 0 2 2zl-3-2zm-5 1 3 2-2-2-2-2zm19 3-5 5zl5-5zm64-3 3 2-2-2-2-2zm-46 2q-1 2 0 0l2-2zm-26 4-3 3zl3-4zm27 0q-1 2 0 0l2-2zm86-1h2zm-230 2q-1 2 0 0l2-2zm236 0zv-2zm-266 2zv-2zm77 1-3 2zl3-3zm10-1h2zm-100 2zv-2zm202 1-3 3zl3-3zm-152 0-2 3zl2-3zm42 0-2 3zl2-3zm15 0 3 2-2-2-2-2zm52 2q-1 2 0 0l2-2zm45 0-2 3zl2-3zm14 0 3 2-2-2-2-2zm21 1zv-2zm29-1h2q1-1-1-1-3 0-1 1m-239 3 2 2zl-3-2zm142 0-2 2zl2-3zm5 1-3 2zl3-3zm-136 0h2zm246 3q-1 1 0 0l2-2zm11 1-3 3zl3-4zm-53 0zv-2zm44 2-3 3zl3-3zm-265-2 2 2q2 2 0 0zm45 2zv-2zm78 1 3 2-2-2-3-3zm-127-2 3 4 4 3-3-4zm83 0 2 2q2 2 0 0zm48 0 2 2q2 2 0 0zm20 2q-1 2 0 0l2-2zm-157 2 3 2-2-2-3-3zm199-2h2zm-205 0 2 2q2 2 0 0zm291 1v2l1-2q1-2-1 0m-73 2q0 3 1 2v-3q-1-1-1 1m-182 5zl2-3zm43 0zv-2zm108-1h3q1-1-1-1-3 0-2 1m23 4 1 2v-5zm-179-2h2zm187 3q0 4 1 1v-4q-1-1-1 3m-178 0-3 4zl3-4zm47 2q0 4 1 1v-4q-1-1-1 3m187 2q-2 2 0 0l2-2zm-261 1q-1 1 0 0l2-2zm12-2 2 2q2 2 0 0zm256 2h2zm-209 1h4q2-1-3-1-4 1-1 1m151 0h6q2-1-3-1-6 1-3 1m-115 1 3 1h1zm167 3zv-2zm-250 1zv-2zm178 0q-1 2 0 0l2-2zm42 1 3 2-2-2-3-3zm-39 0-1 3zl2-3zm-80 2-2 3zl3-3zm143 2q0 5 1 2v-4zm-141 0-2 4zl3-4zm-114 0 2 2zl-3-2zm211-1h4q1-1-2-1-4 0-2 1m48-1 2 2q2 1 0 0zm-240 5q1 5 1 2v-4q-1-3-1 2m124-2 2 2zl-2-2zm55 2-2 2zl2-3zm-68 1q-2 1 0 0l2-2zm13 3 6 5-5-5-5-5zm-156-2 3 2-2-2-2-2zm48 0zv-2zm34-1 2 2q2 2 0 0zm132 2q-1 2 0 0l2-2zm-76 2q-1 2 0 0l2-2zm6 0q-1 1 0 0l2-2zm-59 3q0 2 1 1v-2q-1-1-1 1m-87 1-2 2zl2-3zm52-2 2 2q2 2 0 0zm140 1h2zm-52 2q-2 2 0 0l2-2zm-89 1 3 3zq-2-3-3-2zm82 0q-1 2 0 0l2-2zm37-2 3 4 3 2-2-3zm125 4 3 2-2-2-2-2zm-230 1h2q1-1-1-1-3 0-1 1m69 1q-1 2 0 0l2-2zm-7 1q-1 1 0 0l2-2zm47 2 4 4zl-4-3zm111-3 2 2q1 2 0 0zm-273 3q-1 1 0 0l2-2zm15-2 2 2q1 1 0 0zm120 2q-1 2 0 0l2-2zm-66 1zv-2zm47 1q-1 2 0 0l2-2zm27 0 3 3zq-2-2-3-2zm-70 1-2 2zl2-3zm36 0q-1 2 0 0l2-2zm132 2-4 5zl4-4zm-105-1q-1 2 0 0l2-2zm36 0 3 3zq-2-2-3-2zm71 4-6 6zl6-6zm-257-3q0 2 1 1v-2q-1-1-1 1m143 0q-2 1 0 0l2-2zm-60 1h2zm40 2-3 2zl3-3zm159-2 1 1q1 0 0 0 0-3-1-1m-249 2zv-2zm14 0 3 2-2-2-2-2zm121 0 3 2-2-2-2-2zm-123 3 5 4-4-4-4-4zm99-2q-1 1 0 0l2-2zm-30 1-2 2zl2-3zm23 0q-1 2 0 0l2-2zm48-2 3 4 3 2-2-3zm22 1 2 2q2 2 0 0zm-131 3 2 2zl-2-2zm129 1 3 2-2-2-3-3zm-36 1 3 2-2-2-3-3zm-37 0q-2 1 0 0l2-2zm142-2 2 2q2 2 0 0zm-164 8-7 6zm91-1 7 6-6-6-6-6zm-198-5 2 2q2 2 0 0zm175 2 3 3-2-2-3-3zm-179-2 3 4 4 3-3-4zm258 1h2zm-125 2-2 2zl2-3zm-83 1h2zm75 2-3 2zl3-3zm55 1 3 3zl-3-3zm116-1 3 2-2-2-2-2zm-194 2q-1 1 0 0l2-2zm22 2-4 4zl4-5zm-110-2-2 3-3 3 4-2q5-5 1-5zm179 6 7 6zl-7-7zm-177-1-3 3zl3-3zm8 2-4 5zl4-5zm124-1q-1 2 0 0l2-2zm58-2 2 2q2 2 0 0zm-15 4 4 4zl-4-4zm-30 0 3 2zl-3-3zm-134 0-2 2zl2-3zm90 1-3 2zl3-3zm-5 0q-1 1 0 0l2-2zm171-2 2 2q1 2 0 0zm-73 1 2 2q2 2 0 0zm17 5v3l1-2q1-4-1 0m-158 3q-1 1 0 0l2-2zm4 0q-2 3 1 1l1-2zm198 1 3 2-2-2-2-2zm-215 11-5 5zm249-4zv-2zm-244 4-5 6zl5-6zm83-1q0 2 1 1v-2q-1-1-1 1m166 3 1 2v-5zm-140-1zv-2zm-18 14q1 9 1 5v-11q0-4-1 6m22-3 1 3v-7zm132-4zv-2zm-58 0 2 2q1 2 0 0zm-108 26q0 19 1 10zm-77-18q-2 1 0 0l2-2zm191-2 2 2q2 2 0 0zm-218 2 2 2q2 2 0 0zm-2 4 3 2-2-2-2-2zm243 1q-1 1 0 0l2-2zm-233 0h3q1-1-2-1-2 0-1 1m171 1zv-2zm24 1 3 2zl-3-3zm-141 1zv-2zm-73 1 3 2-2-2-2-2zm49 1-3 4zl3-4zm88 9q0 10 1 5zm-142-11 3 4 4 3-3-4zm247 1h2zm-173 8v7l1-7v-7zm194-4q-1 1 0 0l2-2zm-271 4 4 3-3-3-4-4zm199 0q0 3 1 2v-4q-1-1-1 2m83 0q-1 1 0 0l2-2zm-128 6q0 5 1 3v-6q-1-2-1 3m93-4h4q1-1-2-1-4 0-2 1m-211 3-2 2zl2-3zm4 1-2 2zl2-3zm-47 2-3 2zl3-3zm256-3 2 2q1 2 0 0zm-4 1 2 2q2 2 0 0zm40 1 2 2q2 2 0 0zm-237 6-4 3zl4-4zm27-2 3 2-2-2-2-2zm-55 0zq4 0 1-1zm218 2 3 3zq-2-3-3-2zm-188 2-2 2zl2-3zm158 0-2 2zl2-3zm27 1 3 2-2-2-2-2zm54 0zv-2zm-131 1zv-2zm-16 2q0 2 1 1v-3q-1-1-1 2m57 1q0 2 1 1v-3q-1-1-1 2m78 1q-1 2 0 0l1-1zm-281 1v4q-1 2 0 0 3-2 0-5zm70 0h3q1-1-2-1-2 0-1 1m219 1-2 3zl2-3zm-212 0 2 2q1 2 0 0zm145 1h2q1-1-1-1-3 0-1 1m-72 3zv-2zm65 0q-1 2 0 0l2-2zm-125 4q0 3 1 2v-4q-1-1-1 2m49-1q0 2 1 1v-2q-1-1-1 1m154 0 2 2zl-2-2zm-212 2q0 2 1 1v-3q-1-1-1 1m194 1h2q1-1-1-1-3 0-1 1m7 1 1 3v2q3-2-1-5-2-2 0 0m-140 2zv-2zm105 0zv-2zm16 3 1 3v-6zm-257-3 1 1q2 1 0 0-1-3-1-1m27 1zv-2zm244-1h2zm-45 4q0 3 1 2v-4q-1-1-1 2m-215 1q0 2 1 1v-2q-1-1-1 1m29 1zv-2zm26-2 2 2q2 2 0 0zm11 2q-1 1 0 0l2-2zm124-2 2 2q2 2 0 0zm40 4zv-2zm-169 0h2zm181 4zv-2zm-86-1 2 2q1 2 0 0zm-107 3 2 2zl-2-2zm53 0-2 3zl2-3zm174-1 1 2 1-1q0-3-2-1m-121 3 3 2-2-2-3-3zm55 0-3 3zl3-3zm-164 1 3 2-2-2-3-3zm225-3 2 2q1 2 0 0zm-270 3q-1 2 0 0 3-1 1-1zm255-1 2 1h1zm4 2 1 1 1-1-2-1zm-279 3zv-2zm166 1 3 2-2-2-3-3zm-2 2 4 4zl-4-4zm-17 0q-2 2 0 0l2-2zm-90-1 3 4 3 3-2-4zm70 2q-1 2 0 0l2-2zm77-1h5l-3-1zm-149 2 2 2zl-3-2zm-54 2 2 2zl-3-2zm241 1q-2 2 0 0l2-2zm2 2-3 4zl3-4zm-183-1 2 2q1 2 0 0zm101 4 5 5zl-5-4zm136-2-2 3zl2-3zm-270 0h2zm126-1 2 2q2 1 0 0zm-118 1 2 2q1 2 0 0zm234 1 3 4 3 3-3-4zm-223 0 2 2q1 2 0 0zm96 3-3 4zl3-4zm-132 3q0 2 1 1v-3q-1-1-1 2m195 0h3q1-1-2-1-2 0-1 1m12 0h2zm-56 0 2 2q1 2 0 0zm-75 3h2zm10 0h2zm114 1h4q1-1-2-1-4 0-2 1m37 1q-2 1 0 0l2-2zm-205 2h1v-1q-1-2-1 1m-33 1 3 2-2-2-2-2zm9 4h2zm18 1q-1 2 0 0l2-2zm41 2h2q1-1-1-1-3 0-1 1m18 0h2q1-1-1-1-3 0-1 1m125 0h2zm44-1 2 2q2 2 0 0zm19 2h3q1-1-2-1-2 0-1 1m-200 3h8q4 0-4-1-10 0-4 1m125 0h8l-4-1zm64 0h2z"/><path fill="#aaa" d="m607 275 2 2zl-2-2zm-138 0h6q2-1-3-1-6 1-3 1m247 0h5q1-1-3-1zm-132 3-2 2zl2-3zm-114 0h4q2-1-3-1-4 1-1 1m247 0h4q1-1-3-1-3 1-1 1m-224 5 2 2zl-3-2zm87 1q0 2 1 1v-3q-1-1-1 1m76-1h4q3-1-2-1c-5 0-3 1-2 1m-205 4-1 2zl2-3zm59 0q-1 1 0 0l2-2zm59 1 2 2q2 2 0 0zm-60 4-3 2zl3-3zm-39-1h4q1-1-2-1-4 0-2 1m68 0h2q1-1-1-1-3 0-1 1m6 0h2q1-1-1-1-3 0-1 1m138-1 3 4 3 3-2-4zm-222 6-3 2zl3-3zm80-2h4q1-1-2-1-5 1-2 1m112 0h2zm7 0h2zm-84 0 2 2q2 2 0 0zm-74 2v1l1-1zm153 1h4q1-1-2-1-5 1-2 1m-65 0 2 2q2 2 0 0zm11 4-4 3zl4-4zm-83-1-2 2zl2-3zm84 3-5 5zl5-6zm14-3q-2 1 0 0l2-2zm111-2 2 2q2 2 0 0zm-165 3 2 2zl-2-2zm113-2 2 2q2 2 0 0zm-68 5-3 2zl3-3zm142 2q0 5 1 2v-4q-1-3-1 2m-308 2q0 5 1 2v-4q-1-3-1 2m34-4 2 2q2 2 0 0zm246 0 2 2q2 2 0 0zm25 2q0 3 1 2v-3q-1-1-1 1m-302 2q0 2 1 1v-2q-1-1-1 1m175 4-6 6zl6-7zm116-3q0 3 1 2v-3q-1-1-1 1m-113 5-4 4zl4-5zm-156-2zv-2zm187-1h2zm-51 2-2 3zl2-3zm-4 1q-1 2 0 0l2-2zm102-2 2 2q1 2 0 0zm18 2q-2 2 0 0l2-2zm-57-1 2 2q2 2 0 0zm38 2 3 3zl-3-3zm-205 2q-1 1 0 0l2-2zm100-1 2 2q1 2 0 0zm15 7q-2 1 0 0l2-2zm-22-1 2 2q2 2 0 0zm25 2q-1 1 0 0l2-2zm121 4v3h1zl1-1zm-100 1-3 1zl4-1v-1zm77 0h2q1-1-1-1-3 0-1 1m-3 1 3 2-2-2zm-258 4-3 3zl3-4zm182-1h2zm-55 2 3 2-2-2-2-2zm41 1-3 2zl3-3zm90-1 3 2-2-2-2-2zm-224 1q-2 1 0 0l2-2zm169 1q0 3 1 2v-4q-1-1-1 2m-203 0q-2 2 0 0l2-2zm169 0-2 2zl2-3zm124-2 2 2q1 2 0 0zm-65 6h2zm-102 3q0 2 1 1v-2q-1-1-1 1m155-1 2 2q1 2 0 0zm20 3q0 3 1 2v-4q-1-1-1 2m-3 0q0 2 1 1v-2q-1-1-1 1m-12 1q0 2 1 1v-2q-1-1-1 1m-279 1q0 2 1 1v-2q-1-1-1 1m17 0q0 2 1 1v-2q-1-1-1 1m22 0-2 2zl2-3zm64 1q-1 1 0 0l2-2zm-61 1q-1 1 0 0l2-2zm45 1h3q1-1-2-1-2 0-1 1m-73 3-2 2zl2-3zm127-1h2zm-51 1h2zm-98 1 2 2q2 2 0 0zm167 0 2 2q2 2 0 0zm-98 2h2zm5 0h2zm86 5 6 5-5-5-5-5zm136-3-2 2zl2-3zm-221 3 2 2q2 2 0 0zm64 2q-1 1 0 0l2-2zm77 0q-1 1 0 0l2-2zm67-1v2l1-2q1-2-1 0m-150 2q-1 2 0 0l2-2zm29 2 5 5zl-5-5zm80-2-2 2zl2-3zm48-1 1 1q1 0 0 0 0-3-1-1m-291 5-3 2zl3-3zm134 0q-1 1 0 0l2-2zm-118 3h3q1-1-2-1-2 0-1 1m140 4 6 6zl-6-6zm-28-3q-1 1 0 0l2-2zm45-2 3 4 3 2-2-3zm-156 3h2zm46 2q0 3 1 2v-4q-1-1-1 2m58-1q-1 2 0 0l2-2zm27 0q-1 2 0 0l2-2zm-127-1 2 2q1 2 0 0zm45 3zv-2zm75 0q-1 1 0 0l2-2zm15 3 6 5-5-5-5-5zm-34-2q-2 2 0 0l2-2zm-115 1zv-2zm170 0 3 3zq-2-3-3-2zm-167 0 1 1q1 0 0 0 0-3-1-1m104 1-2 2zl2-3zm165-1h2q1-1-1-1-3 0-1 1m-144 3q-1 2 0 0l2-2zm52 2 4 4zl-4-3zm-98 1-2 2zl2-3zm24 0-2 2zl2-3zm23 0q-1 2 0 0l2-2zm85 0-2 2zl2-3zm-176-1 2 2q2 1 0 0zm123 2 3 3zq-2-3-3-2zm-77 2-3 2zl3-3zm132-1-2 2zl2-3zm72 0-2 2zl2-3zm-193 4-5 5zl5-5zm84-4 8 8 7 7-7-7zm60 1q-3 2 2 2 4 0 1-1zq2-1 0 0m-226 2-2 2zl2-3zm192-1h2q1-1-1-1-3 0-1 1m-134 1h3q1-1-2-1-2 0-1 1m45 1-2 2zl2-3zm46 0 3 3zq-2-3-3-2zm-122 2h2q1-1-1-1-3 0-1 1m31 0h3q1-1-2-1-2 0-1 1m168 0h2q1-1-1-1-3 0-1 1m-122 2q-1 2 0 0l2-2zm54 0 3 3zq-2-3-3-2zm110 3 3 3zq-2-3-3-2zm-176 3-4 4zl4-4zm67-1 3 3zq-2-3-3-2zm113-2 2 2q2 1 0 0zm-89 3 3 2-2-2-2-2zm75 1 4 4zl-4-3zm-164 1-2 2zl2-3zm161 0 2 2q1 1 0 0zm-131 4-3 2zl3-3zm-89 0h4q1-1-2-1-5 0-2 1m181 1h2zm8 0h2zm-226 3q-2 2 0 0l2-2zm37-1h4q2-1-3-1-4 0-1 1m135 2 3 2-2-2-2-2zm3-2 2 2q2 1 0 0zm45 1h5q2-1-3-1-3 0-2 1m-207 5-3 3zl3-4zm2 2-2 2zl2-3zm25 2-3 3zl3-4zm205-1 3 3zq-2-2-3-2zm-201 2-3 2zl3-3zm205-2 2 2q2 1 0 0zm-133 5zv-2zm3 0zv-2zm29 1q0 2 1 1v-2q-1-1-1 1m-3 1zv-2zm-168 5q0 6 1 3v-6zm12-2zv-2zm280 3q0 3 1 2v-5q-1-2-1 2m-289 1q0 4 1 1v-4q-1-1-1 2m12 2q0 3 1 2v-5q-1-2-1 2m38 1-2 2zl2-3zm226 3q0 5 1 2v-4q-1-1-1 2m-267 0zv-2zm141 6q0 8 1 4v-8q-1-4-1 4m123-5q0 2 1 1v-3q-1-1-1 2m19-1zv-2zm-264 2zv-2zm27 3-3 4zl3-4zm4 0-2 3zl2-3zm185 2 4 3zl-4-4zm2-2 3 2-2-2-2-2zm-191 5q-1 1 0 0l2-2zm111 7q0 8 1 5v-10q-1-3-1 5m103-7-2 3zl2-3zm-100 8q0 8 1 4v-8q-1-4-1 4m-101-3-3 2zl3-3zm162 0 2 2q2 2 0 0zm50 4-3 2zl3-3zm4-1-2 2zl2-3zm-70 1q0 3 1 2v-3q-1-1-1 1m-3 1q0 2 1 1v-2q-1-1-1 1m81 2q-1 1 0 0l2-2zm-12 1q-1 2 0 0l2-2zm-271 3 2 2zl-3-2zm280 0q-3 4 2 4 2-1-1-1-4 0 0-3l1-2zm-248 0h4q1-1-2-1-4 0-2 1m225 4h2zm-111 6q0 5 1 3v-6q-1-2-1 3m78-4h3q1-1-2-1-2 0-1 1m1 3h2zm-76 5q0 3 1 2v-3q-1-1-1 1m-136 4h2q3 0-1-1zm4 4h2q1-1-1-1-3 0-1 1m111 1zv-2zm3 0zv-2zm-68 2q-2 2 0 0l2-2zm233 2 3 2-2-2-3-3zm-299 0-2 3zl2-3zm234-2 2 2q1 1 0 0zm-12 3q-1 2 0 0l2-2zm-188 2q0 2 1 1v-2q-1-1-1 1m175 0zv-2zm-172 1q0 2 1 1v-2q-1-1-1 1m109 0zv-2zm74 1zv-2zm54 0 1 2 1-1q0-3-2-1m-65 2zv-2zm-212 1zv-2zm86-1v1l1-1zm220 2q0 3 1 2v-4q-1-1-1 2m-242 1q0 2 1 1v-3q-1-1-1 2m239-1zv-2zm-263 3q0 3 1 2v-4q-1-1-1 2m-3 1q0 2 1 1v-2q-1-1-1 1m87 6-4 3zl4-4zm154 2h2q1-1-1-1-3 0-1 1m-258 2v1l1-1zm217 2q-2 2 0 0l2-2zm-102 4-3 2zl3-3zm2 2-4 3zl4-4zm148-3zl3-1zm-192 2h5q2-1-3-1-3 0-2 1m206 1q0 2 1 1v-2q-1-1-1 1m-96 0h2zm12 0h2zm-124 2h2q1-1-1-1-3 0-1 1m7 0h2q1-1-1-1-3 0-1 1m104 1h2zm-150 5 4 4zl-4-4zm-5-1 2 2zl-3-2zm96 3-4 4 5-4 4-5zm6-2q-2 2 0 0l2-2zm-125 2q-4 5-1 5v-1q-2-1 1-3 2-3 4-2v-1q0-3-4 2m257 1 3 2-2-2-2-2zm-120 2 3 2-2-2-3-3zm117-1q3 3 3 1l-2-2q-4-2-1 1m-242 0v1l5 4 4 3-4-5zm6 2 3 2-2-2-3-3zm10-3 2 2q2 2 0 0zm88 5-2 3zl2-3zm83-1h2zm30 2-2 3zl2-3zm3 2-4 4zl4-4zm26-3v1l2-1zm-189 2h4q2-1-3-1-3 0-1 1m176 8 2 2q1 2 0 0zm-240 4 2 2zl-3-2z"/><path fill="gray" d="m582 276-2 2zl2-3zm-48 0h2zm11 0h2zm110 3h6l-4-1q-5 1-2 1m-45 5q0 5 1 2v-4q-1-1-1 2m41-2h2zm11 0h2zm-80 2zv-2zm-76 5q-1 2 0 0l2-2zm148 4h2q1-1-1-1-3 0-1 1m-136 8-2 3zl2-3zm89 4q-1 2 0 0l2-2zm109 1h2zm-177 2h2zm-97 3zv-2zm25 0zv-2zm183 2h2q1-1-1-1-3 0-1 1m-160 2q-1 2 0 0l2-2zm167-1 2 2q2 2 0 0zm24 3zv-2zm-204 6h3q1-1-2-1-2 0-1 1m202 1q0 2 1 1v-2q-1-1-1 1m-142 5h1q3 0 1-1zm129 1zv-2zm-104 1h2zm-84 2h2zm43 2zv-2zm14 3zv-2zm131 1q0 3 5 3h5l-4-1q-5 1-5-2-1-3-1 0m-181 0q-1 1 0 0l2-2zm-20 3h2zm51 0h3q1-1-2-1-2 0-1 1m19 1zv-2zm19 1h2q1-1-1-1-3 0-1 1m24 1zv-2zm111 3 2 2q1 1 0 0zm-154 2 2 2q2 1 0 0zm176 5q0 4 1 1v-4q-1-1-1 3m-246 0h2zm53 0h4q1-1-2-1-4 0-2 1m151 2h3q1-1-2-1-2 0-1 1m25 2q0 2 1 1v-3q-1-1-1 2m-203 1q0 2 1 1v-3q-1-1-1 2m-45-2 2 2q2 1 0 0zm157 4 3 2zl-3-3zm-148 0 1 2zq-1-1 0 0m79 4q0 2 1 1v-3q-1-1-1 2m121 1q0 3 1 2v-4q-1-1-1 2m-211 1-2 3zl2-3zm170 0 2 2q2 1 0 0zm5 9 3 2-2-2-2-2zm7 2 2 2q2 1 0 0zm71 3-3 4zl3-4zm20 0q0 2 1 1v-2q-1-1-1 1m-87 4 2 2q1 1 0 0zm13 10 6 5zl-6-6zm-92-1-4 5zl4-5zm178-3h2zm-70 2h2zm31 1h2zm7 0h2zm-240 2h2q1-1-1-1-3 0-1 1m36 1h2zm128-1 2 2q2 1 0 0zm115 0 2 2q2 1 0 0zm-171 5q-1 2 0 0l2-2zm63-2 2 2q2 2 0 0zm-70 9q-1 2 0 0l2-2zm128 1h2q1-1-1-1-3 0-1 1m-173 9q-1 2 0 0l2-2zm198-1 2 2q2 2 0 0zm38 7zv-2zm-248 2q-1 2 0 0l2-2zm80 3q0 3 1 2v-4q-1-1-1 2m-81 1-3 3zl3-3zm113 0zv-2zm124 2q0 3 1 2v-4q-1-1-1 2m-283 1q0 2 1 1v-2q-1-1-1 1m141 1zv-2zm16 6q0 5 1 2v-6zm-28 20q1 21 1 12zm16-8q1 15 1 8zm150-14zv-2zm-33 12q-1 1 0 0l2-2zm-121 22q0 18 1 10zm-58-10q0 5 1 3v-7q-1-2-1 4m122 1q0 4 1 1v-4q-1-1-1 3m-204-3 2 2q2 2 0 0zm283 2q-2 1 0 0l2-2zm-124 6q0 6 1 3v-6zm-130-2h4q1-1-2-1-4 0-2 1m223 1h2zm-114 13q0 6 1 3v-6q-1-3-1 3m72-3q-2 1 0 0l2-2zm84 0q0 3 1 2v-3q-1-1-1 1m-137 2zv-2zm-10 3q0 2 1 1v-2q-1-1-1 1m124 3h3q1-1-2-1-2 0-1 1m17 1q-1 1 0 0l2-2zm-143 3zv-2zm76 0h2zm-136 4q0 3 1 2v-4q-1-1-1 2m115 2q0 2 1 1v-2q-1-1-1 1m-182 3q0 5 1 2v-4q0-3-1 2m230-2zv-2zm-220 2q0 3 1 2v-4q-1-1-1 2m230 2q0 5 1 3v-6q-1-2-1 3m-247-3h2zm265 1h2zm0 2h2q1-1-1-1-3 0-1 1m-43 4zv-2zm-158 4h3q1-1-2-1-2 0-1 1m185 2zv-2zm-144 1-2 3zl2-3zm54 1 3 2zl-3-3zm55 1-2 3zl2-3zm41-1v2l1-1q1-3-1-1m28 9q0 2 1 1v-2q-1-1-1 1m-207 2h2zm118 1h2zm-53 5 3 4 3 3-2-4zm-16 4-3 3zl3-3zm-53 3h6l-4-1q-5 0-2 1m173 7q0 2 1 1v-3q-1-1-1 2m-241 3 2 1h1zm52 5h2zm138 1h4q1-1-2-1-4 0-2 1m-136 2h2zm23 0h2z"/><g stroke-width="0"><path d="M590 271q-10 6-9 13l2 9c4 6 10 13 12 13s12-11 14-15v-14c-2-2-12-9-14-9zm11 2q9 5 8 12 0 7-9 16l-4 4-5-5q-11-14-7-21l12-9z"/><path d="M461 277q-15 5-20 22-3 18 7 30 6 4 1 6-6 5-6 13-1 6 5 12l3 3-3 3q-9 7-8 17 2 14 14 15l4 1q1 1-4 5a45 45 0 0 0-2 57l5 6-5 4q-4 3-4 7l2 6q2 2-1 5-9 8-1 17 4 5 2 6c-4 5-1 15 5 16q4 0 2 7c0 6 0 6 3 9q3 3 7 3 5 0 8 4 8 7 15-2l1-4-2 1q-2 4-7 7-2 0-6-4-3-5-7-3c-7 1-12-6-10-13q2-6-2-6-4-1-7-6-2-3 1-8l2-4-3-3q-8-7 0-15l4-4-2-3q-5-6 1-12l5-3q4-1-1-5a43 43 0 0 1-3-57l10-9q11-7 10-15-1-9-10-9-4-1-7 2-3 5-1 8h5v-1q-4 1-4-2c0-5 8-8 12-5q8 7 0 16-10 9-20 3-14-11-2-26l6-5q4 0-2-5-12-11-1-22l3-4-3-5q-7-9-8-18-1-14 9-24 8-9 21-9c12 0 23 8 25 20 3 11-11 25-21 23-6-1-11-8-8-13q2-4 6 1t8-1q5-6-1-12-5-6-12-5-14 4-15 20 1 20 22 24h5l-5-1c-17-2-27-22-16-35 6-8 18-8 22 1q2 3-1 6-3 5-6 2-2-5-7-3-4 3-2 9 3 8 10 9 14 1 21-14c4-9 6-11 10-16 12-13 31-18 49-12 11 4 17 10 33 31l5 7 10-10q15-16 27-21 14-7 29-6 14 0 24 11c5 4 6 6 10 16q4 10 14 10 12 0 13-10 1-4-6-4-5 0-5-3 1-6 8-7 7 1 11 7 4 9-1 19-8 9-17 10l-4 1 5 1q19-4 20-23 0-15-14-16-5 0-7 3-7 8 4 9 4 0 4 2 1 4-6 8-5 3-8 1-4 0-6-4c-9-10-5-26 8-32 5-3 6-3 13-3q9 1 17 8c6 6 8 10 8 20 0 8-1 9-3 13l-7 8-4 4 4 2q13 4 13 16 0 9-12 15l-4 2 4 2c10 5 12 15 4 21q-6 6-14 3c-8-2-11-10-6-14q2-4 6-2 6 4 2 6l-2 1h5q3-3-1-6c-6-6-14-2-14 5q-1 8 10 12c17 9 25 29 20 50q-1 11-10 19l-4 4 4 1 7 3c5 4 6 12 1 16q-3 1 2 6 4 4 4 7 0 6-5 10l-3 2 3 4q6 11-5 17-3 0 0 4l1 6q-1 7-8 8-4 0-7 2-9 4-13-9v2q0 4 3 7 6 4 12 1l6-2q12-2 8-14-2-3 3-7 4-3 4-8l-2-7-2-3 3-3q8-10 0-19l-3-2 2-3 2-7q1-5-4-8l-6-4q-5 1 2-7 8-11 8-27 0-24-14-35l-3-3 5-2q8-4 9-10 1-7-5-13l-3-4 2-2c13-8 13-24 0-31l-5-2 4-5c6-7 7-11 7-20q2-13-9-22a27 27 0 0 0-38 1l-5 8-2 5-5-5q-11-13-29-13-30 0-56 29l-7 7-9-11q-14-19-23-23c-13-7-32-7-45 0-6 3-14 10-16 13q-3 6-4 0c-3-14-21-23-37-17"/><path d="M530 292q-19 6-22 29l-1 6-7 2q-10 3-16 8-7 8-8 18-1 19 16 34l6 5-7 2q-23 4-33 24c-3 8-4 20 0 27 6 14 22 22 35 18h4l-3 4q-9 12-10 30c0 14 7 29 17 36q11 7 0-3a40 40 0 0 1-15-33q0-23 16-35c16-11 18-14 26-33 7-17 13-26 25-37 9-9 39-35 43-37 2-1 4 1 16 12 23 21 40 39 45 46l11 21q6 15 10 19l15 9c12 6 15 8 18 19 4 14 3 32-2 45-11 23-44 32-77 20q-17-7-29-22l-3-5-10 10a66 66 0 0 1-54 22c-16-1-23-2-34-7-24-12-36-44-25-66l2-5c0-2-4 3-4 5l-6 1-6 1 2 2q3 0 1-1l-1-1h6q2 1-1 2l-3 1h3q4 0 3 2l-1 5-2 4-1 1-3 1q-2 0-1-1t-1-1l-3 1v1l5 1q6-2 5 2 2 9-1 10l-1 1-2 3q-5 2-1-1 3-4-2 0-3 3-1 4l5-3q6-3 6 0c0 3 6 14 10 19q9 10 25 17c8 2 9 2 27 2 17 0 19 0 26-2q17-5 30-19l8-8 4 5q14 17 37 23c10 2 28 3 38 0q21-5 31-23c4-9 5-15 5-27q0-23-8-32-5-2 4-4c21-3 32-28 22-50q-7-12-18-18a58 58 0 0 0-24-6l8-8q15-15 14-29 0-23-24-27c-7-2-8-2-8-9q0-16-12-23c-5-2-7-3-15-3s-9 1-18 5c-7 3-10 6-17 13a83 83 0 0 0-20 26l-3 6-2-6q-5-15-20-19-4-1-6-7c-3-16-21-25-38-19m22 2q11 5 14 16l2 6 5 3q15 5 20 21l3 7 3-5c4-11 9-18 23-31 12-12 19-15 31-16 7 0 8 0 13 2q14 6 14 25c0 6 0 6 10 8q22 5 22 27-1 12-15 26c-7 6-9 8-20 14l-12 7 12-5c11-5 11-5 19-5q24 2 35 23c4 8 5 20 2 28-3 11-15 20-27 20-5 0-7 0-15-4q-9-5-12-8c-2-1-6-10-10-19-10-20-13-25-27-39l-44-41c-2 0-37 29-47 39-12 12-17 19-27 43q-11 27-36 28c-8 0-9 0-15-3q-10-4-14-16c-3-6-2-18 1-26 6-12 20-21 33-22 6 0 7 0 14 3s17 5 19 5l-6-2c-18-5-35-19-41-34-4-11-1-25 7-31 4-4 13-8 17-8q7 1 6-8 5-28 31-30z"/><path d="M533 310q-9 6-11 24v8h-7q-14 2-20 9-4 9 0 17c3 3 10 6 13 6q4-1 3 5 1 10 9 13 6 5 14 0 8-3 11-16c2-12 2-12 9-13q14-3 20-9 6-7 3-13-2-8-14-10-7-1-7-4-4-18-15-19-4 0-8 2m15 4q4 3 7 15 0 4 3 3 9 0 15 6t0 14c-3 4-12 9-19 10q-10 0-9 7-2 13-8 19-4 3-9 4-14 1-15-14v-5l-6-1c-13-3-17-13-9-22q6-5 19-7h6v-7q2-15 8-22 3-5 9-4 5-1 8 4"/><path d="M536 328q-2 2-2 11c0 8 0 9 2 12 3 2 3 3 9 2q14-1 15-6 0-2-7-2c-8 0-8-1-9-9q-2-9-5-10zm5 3 2 7c0 8 1 8 8 8l7 1q0 3-10 5t-12-4v-16q3-7 5-1m-29 26q-7 3 3 7c9 3 9 2 8 10l1 6q5 1 8-6 4-12-2-17c-4-2-14-2-18 0m17 2q5 3 3 10-2 9-6 10l-1-7c0-8 0-8-8-9q-8-2-5-5c3-2 13-2 17 1m117-48q-7 4-10 17-1 3-6 3-16 2-17 16 0 8 6 12c3 2 11 5 14 5q8-1 8 7 3 19 15 21 15 2 19-11 1-7 4-7c4 0 12-4 15-7 5-7 3-17-6-21l-13-4h-9v-10q-1-18-10-20-6-3-10-1m12 4q6 4 7 19v9h8q22 2 22 16-1 9-13 13-9 1-8 7l-5 8q-3 5-9 4-14 0-17-19l-2-8-7-1q-10-2-16-8-8-8 0-16 4-6 13-6 7-1 6-4c0-4 4-12 8-15q7-5 13 1"/><path d="m647 331-2 7q-2 8-8 7-9 1-9 4 3 5 13 5 6 1 9-3c3-3 5-11 4-16l-1-5q-2-5-6 1m6 7q0 10-6 13t-13 0q-10-4 4-5c6 0 6-1 8-7q6-18 7-1m9 18q-6 3-6 11 1 9 6 11 2 0 2-4 0-8 7-10 9-2 8-6 0-3-7-3zm15 1q3 2-6 6-9 2-8 9 0 8-3 3-7-12 3-18zm-182 53q-22 6-24 27c0 16 16 21 30 9 4-3 15-19 19-27q3-5 1-6c-5-3-18-4-26-3m20 3q5 1 5 2c0 3-13 22-19 28q-13 14-23 6c-5-3-7-13-4-20q5-9 12-14 14-6 29-2"/><path d="m503 426-9 10 20-19q-2 0-11 9m176-15q-10 3-9 5l20 28c12 12 27 12 30 0s-4-25-18-31c-6-2-17-4-23-2m20 3c6 2 15 10 18 15q6 15-5 22-5 3-12-1-8-4-20-22l-8-11q-2-1 5-3c5-2 17-2 22 0m22-70q-3 2-3 5 1 6 7 7 8 0 9-5 3-4-1-7-7-6-12 0m10 1q5 4-1 8-6 3-10-1-2-9 7-10zm-271 0q-6 4-1 9c5 5 14 2 14-5q-1-6-8-7-3 0-5 3m11 2c2 5-3 10-9 7-4-2-4-8 1-10q5-2 8 3m115 34c-30 25-35 31-42 45q-8 17-8 35l-1 10-4-1c-9-5-24 2-31 15-2 4-3 6-3 15 1 11 2 16 10 25q12 13 34 13c10 0 17-2 29-7q15-8 21-20c3-8 4-15 4-48l1-33c3-1 4 2 4 32 1 33 2 39 7 49q12 20 39 26c10 3 26 2 34-1q13-5 20-18c2-6 3-7 3-17-1-13-2-16-7-22q-7-9-17-8-9-1-16 6l-3 3-1-12c0-27-6-42-25-61-17-17-36-34-37-34zm30 12c11 9 22 20 24 23 7 7 13 21 16 31 1 8 2 28 1 47l-1 8 4 3q3 3 7 3 8-1 9-6 0-2-2 1l-5 4q-6 0-10-5c-2-3-1-11 0-16q10-20 29-11 10 6 13 19 3 19-10 33c-22 23-76 8-86-25q-4-13-4-51l-1-20q-3-5-5-1l-1 31c0 33-1 41-5 49-5 10-21 22-36 25-22 6-43-3-52-22q-3-6-2-13 1-23 21-30 9-2 14 4c3 4 7 15 7 21q-1 9-7 11-6 1-10-4-1-3-2-1 0 3 4 6c4 3 13 0 15-4q3-8-2-23c-2-8-2-10-2-20 1-10 1-14 4-22 6-18 15-29 40-50l16-13z"/><path d="M592 405q-7 6-9 16l-1 33-1 35q-3 20-21 28c-12 6-29 5-39-2q-11-9-6-21 4-6 9-7 7 1 8 8 0 4 1 2 1-9-8-11c-10-1-16 10-12 20 4 13 22 20 39 16q24-6 29-28c2-5 2-13 2-36l1-35q4-12 10-17 3-3 6-1 4 2 8 10c3 6 4 14 4 41l2 31q3 19 16 29c8 6 14 8 27 8 12-1 16-1 23-7 12-8 10-28-2-29q-6-1-8 2-5 6-2 7l1-2 2-4c7-7 18 4 15 15q-3 13-23 16c-18 3-36-6-43-21q-6-13-6-35c0-21-2-44-3-49-4-12-13-17-19-12m131 76q-2 2 1 4 8 1 9-2 0-2-4-3zm8 1-3 2-4-2 4-1zm-7 15 9 3q3 1 2-2l-2-2q-2 0 0 1 3 1-1 2-5 0-4-2l-2-1zm-1 16q-2 3 4 5h6c0-4-9-8-10-5m6 2 2 2c-1 1-7-2-6-3q0-2 4 1m-9 16 8 7q3-1-2-6-5-4-6-1m6 3 1 2-5-4q1-3 4 2m-256-1q-5 5 2 1l4-3q-1-1-6 2m10 5-2 4 2-2 2-5q-2 0-2 3"/></g><path fill="#555" d="M538 276h4q1-1-2-1-4 1-2 1m1 2h4q2-1-3-1-3 1-1 1m10 1h2zm99 1h2zm51 3-3 2zl3-3zm39 0 3 3-2-2-3-3zm-248 1 3 2-2-2-3-3zm210-1-2 2zl2-3zm35-1 2 2q1 2 0 0zm-164 3 3 4 3 2-2-3zm1 4 3 3zq-2-3-3-2zm113 0 3 2-2-2-2-2zm-205 4 3 2-2-2-2-2zm236-1h4q1-1-2-1-4 0-2 1m-238 1 2 2q2 2 0 0zm238 1h4q1-1-2-1-4 0-2 1m-68 1h2zm43 0 1 1zq-1-1 0 0m3 4q0 3 1 2v-4q-1-3-1 2m-197 0q0 2 1 1v-2q-1-1-1 1m112 0q-1 2 0 0l2-2zm-19-1 2 2q2 2 0 0zm20 2-2 2zl2-3zm-170 1zv-2zm44 0zv-2zm105-1 2 2q2 2 0 0zm14 5-4 4zl4-4zm109 0h2q1-1-1-1-3 0-1 1m-109 2-2 3zl2-3zm-150 3q1 5 1 2v-4q-1-3-1 2m2 0q1 4 1 1v-4q-1-1-1 2m291 1zv-2zm-197 1 2 2zl-2-2zm183 1zv-2zm-201 1q-1 2 0 0l2-2zm63 0 2 1zq-1-2 0 0m47 1q-2 2 0 0l2-2zm-72 0 1 2v-1q-1-3-1-1m27 2q-2 2 0 0l2-2zm83 2q0 2 1 1v-3q-1-1-1 2m28-2h2q1-1-1-1-3 0-1 1m-96 2q-2 2 0 0l2-2zm70 3q0 4 1 1v-4q-1-1-1 3m-69-1q-1 2 0 0l2-2zm-134 0h2zm29 3v3zq-1-3-1 1m2 1q0 4 1 1v-4q-1-1-1 3m215-2-2 3zl2-3zm14 0q-1 2 0 0l2-2zm-152 2 3 2-2-2-3-3zm79 0zv-2zm60 0-2 3zl2-3zm12 1-3 4zl3-4zm-275 0 2 2zl-3-2zm273 1q-2 2 0 0l2-2zm-275-1 2 2q1 2 0 0zm-9 3 3 2-2-2-2-2zm-2 1 3 2-2-2-2-2zm216 6q0 5 1 3v-7q-1-2-1 4m-106-5h2q1-1-1-1-3 0-1 1m-83 2h2zm83 0h4q2-1-3-1-3 1-1 1m74 0h2zm22 1q0 2 1 1v-2q-1-1-1 1m12 0zv-2zm-143 4q0 3 1 2v-5q-1-1-1 3m-48-3h2zm58 5q0 5 1 3v-6q-1-1-1 3m-12-1v2l1-3q-1-3-1 1m21 0zv-2zm2 2zv-2zm110 1zv-2zm72 1h2zm-209 1h4q1-1-2-1-4 0-2 1m151 0h6l-3-1zm-200 0 2 2q1 1 0 0zm144 3q0 2 1 1v-3q-1-1-1 2m2 0q0 3 1 2v-4q-1-1-1 2m20-2h4q1-1-2-1-4 0-2 1m-192 3q0 2 1 1v-3q-1-1-1 2m2 0q0 2 1 1v-3q-1-1-1 2m110-2h2q1-1-1-1-3 0-1 1m-7 1h2zm87 0h6l-3-1zm85 2zv-2zm-6 3zv-2zm-254-1 2 2q2 2 0 0zm261 0 2 2q1 2 0 0zm-81 2h4l-2-1zm-67 2-2 3zl2-3zm67 0h4q1-1-2-1-4 0-2 1m30 0h5l-3-1zm-194 3q0 3 1 2v-4q-1-1-1 2m2 0q0 3 1 2v-4q-1-1-1 2m125 0 3 2-2-2-3-3zm111 0q0 2 1 1v-2q-1-1-1 1m-53 2q-1 1 0 0l2-2zm-108 2h2zm82 1h2zm-82 1h2zm-20 2zv-2zm103-1h2zm22 2q0 2 1 1v-3q-1-1-1 2m-163 0 2 2q1 2 0 0zm31 3q0 2 1 1v-3q-1-1-1 2m19-1zv-2zm120 4q0 4 1 1v-4q-1-1-1 3m-48 0 2 2zl-3-2zm3 0 2 2zl-3-2zm43 1v2l1-3q-1-3-1 1m-152-1h2zm207 3q-2 2 0 0l2-2zm6-1h2zm-265 3q-2 2 0 0l2-2zm135 0q-1 2 0 0l2-2zm151 0zv-2zm-215 1q-1 2 0 0l2-2zm144 0zv-2zm-234 2q0 2 1 1v-2q-1-1-1 1m125 0q-2 1 0 0l2-2zm135 2-3 4zl4-5zm-259-1zv-2zm125 0q-2 2 0 0l2-2zm-92 2q0 2 1 1v-3q-1-1-1 2m13-2 3 4 4 3-3-4zm141 2 2 2zl-2-2zm1-2 2 2q2 2 0 0zm-140 5 2 2zl-3-2zm122 0 2 2zl-2-2zm1-2 2 2q2 2 0 0zm37 0 2 2q2 2 0 0zm-93 3-2 2zl2-3zm2 1-2 2zl2-3zm-113 1 2 2q2 2 0 0zm288 2h2zm-287 2 2 2zl-3-2zm176-1 2 2q2 2 0 0zm-2 1 2 2q2 2 0 0zm82 1h2zm-210 1h2zm-36 1h2zm36 1h2zm55 1q-2 1 0 0l2-2zm19 0-2 2zl2-3zm4 0q-2 1 0 0l2-2zm-114-1 2 1h2zm92 3q-2 1 0 0l2-2zm-92 2-2 2zl2-3zm2 1-3 3zl3-4zm69 0 2 1h-2l-2 1h2q4-2 0-3zm107 3 5 5zl-5-4zm2 0 4 3zl-4-4zm-168 0-2 3zl2-3zm2 2-3 3zl3-3zm87 0q-1 2 0 0l2-2zm-57 1h2zm196 1h2zm0 2h2zm-112 10zv-2zm28 1zv-2zm-106 2-2 3zl2-3zm-61 1zv-2zm2 0zv-2zm302 5q0 5 1 3v-7q-1-3-1 4m2 0q0 5 1 2v-6zm-166-1q0 5 1 2v-4q-1-1-1 2m-87 1-4 4zl4-4zm115 0q0 3 1 2v-4q-1-1-1 2m-18 22q1 19 1 10zm20-14q0 8 1 4v-8q-1-4-1 4m-32 19q1 24 1 13zm20-3q1 17 1 10zm-158-15zv-2zm2 0zv-2zm240-2 2 2q2 2 0 0zm49 2zv-2zm-259 5 2 2q2 2 0 0zm-1 2 2 2q2 2 0 0zm10 4h3q1-1-1-1-3 0-2 1m172 1zv-2zm2 0q0 2 1 1v-2q-1-1-1 1m48-1h3q1-1-1-1-3 0-2 1m-221 2h2zm52 1zv-2zm169-1h3q1-1-2-1-2 0-1 1m-240 2 2 2zl-3-2zm70 2q0 5 1 2v-4q-1-3-1 2m122 7q0 5 1 3v-6q-1-2-1 3m-122 3q0 4 1 1v-4q-1-1-1 2m77 4q0 5 1 3v-7q-1-2-1 3m93-4h3q1-1-2-1-2 0-1 1m-182 2h2q1-1-1-1-3 0-1 1m136 4q0 5 1 3v-6q-1-2-1 3m44-2 3 2-2-2-2-2zm40-2 2 2q1 2 0 0zm-222 2h4q1-1-2-1-4 0-2 1m15 1q0 2 1 1v-2q-1-1-1 1m206 0 3 2-2-2-2-2zm-292 2q-2 1 0 0l2-2zm205 5q0 6 1 3v-6zm-152-2-2 2zl2-3zm109 2q0 3 1 2v-4q-1-1-1 2m79 1 3 2-2-2-2-2zm-227 1h2zm261 0h2zm-257 1q-1 2 0 0 3-1 1-1zm131 4q0 4 1 1v-4q-1-1-1 2m-131-1-3 1 5-1 1-1zm144 2zv-2zm113-1h3q1-1-2-1-2 0-1 1m-124 4q0 2 1 1v-3q-1-1-1 2m-9 3q0 4 1 1v-4q-1-1-1 3m84-3h2zm-191 3zv-2zm170 0zv-2zm-114 3q0 5 1 2v-4q-1-3-1 2m160-2zv-2zm-229 1q0 2 1 1v-2q-1-1-1 1m58 2q0 3 1 2v-4q-1-1-1 2m182 0zv-2zm2 7q0 7 1 3v-8zm-250-6q-1 2 1 1l2 1 2 1v-1l-2-2q1-1-1-1zm33 4 1 3v-6q-1-1-1 3m229-4v1h2q5-2 0-2-3 0-2 1m-231 4q0 4 1 1v-4q-1-1-1 3m205 1q0 5 1 3v-6q-1-1-1 3m32-4v2l1-1q1-3-1-1m-139 2q0 2 1 1v-2q-1-1-1 1m109 3q0 4 1 1v-4q-1-1-1 2m-240-1h2q1-1-1-1-3 0-1 1m223 2q0 3 1 2v-4q-1-1-1 2m2 0zv-2zm-217 2q0 2 1 1v-2q-1-1-1 1m188-2 2 2q2 2 0 0zm-212 1 2 2q1 2 0 0zm26 2zv-2zm185-1 2 2q2 2 0 0zm16 2q-1 2 0 0l2-2zm-228-1 2 2q2 2 0 0zm85 2h2zm215 1q-1 2 0 0l2-2zm-293 0 1 2zq-2-2 0 0m260 1zv-2zm34 1-2 2zq4-6-1 0m-81-1h2q1-1-1-1-3 0-1 1m-40 2 3 2-2-2-2-2zm-108 2 3 2-2-2-3-3zm-50-1 1 1v-1l-1-1zm50 2 2 2zl-2-2zm225-2 2 2q1 2 0 0zm-271 1 2 1q1 2 0 0zm259 2 1 1-2 2h1q3-2 2-3zm-283 4zv-2zm166-2 3 4 3 3-2-4zm-64 4h2zm64-1 2 2q2 1 0 0zm-107 1 2 2q1 2 0 0zm28 2h2q1-1-1-1-3 0-1 1m15 0h2zm106 0h4q1-1-3-1-3 1-1 1m-150 0 3 4 3 3-2-4zm-56 1 2 2q1 2 0 0zm205 1h3q1-1-2-1-2 0-1 1m36 2-2 3zl2-3zm-230 1 1 2zq-2-2 0 0m259 2h1q3 0 1-1zm-248 2q-2 2 0 0l2-2zm4-1 2 1v-1zm247 1h-1v1l2 2zm-264 5q0 2 1 1v-3q-1-1-1 2m-2 0q0 2 1 1v-2q-1-1-1 1m77 0h2zm14 0h2zm63-1 2 2q2 2 0 0zm47 2h8l-4-1zm-123 1h2q1-1-1-1-3 0-1 1m11 0h2q1-1-1-1-3 0-1 1m112 1h8l-4-1zm56 4zv-2zm-255-1 2 2q2 2 0 0zm8 3h3q1-1-2-1-2 0-1 1m0 2h2q1-1-1-1-3 0-1 1m266 4h4q1-1-2-1-4 0-2 1m-78 1h4q2-1-3-1-3 1-1 1m12 0h4q1-1-2-1-4 0-2 1m55 0h2q1-1-1-1-3 0-1 1m-64 2h10l-6-1q-9 0-4 1m63 0h3q1-1-2-1-2 0-1 1"/></svg>